<svg width="551" height="134" viewBox="0 0 551 134" fill="none" xmlns="http://www.w3.org/2000/svg">
<path d="M220.502 114.781C207.103 114.781 196.036 110.329 187.301 101.424C178.565 92.5191 174.198 81.5367 174.198 68.4764C174.198 55.3314 178.565 44.3489 187.301 35.529C196.036 26.6242 207.103 22.1719 220.502 22.1719C228.559 22.1719 235.98 24.08 242.764 27.8963C249.634 31.6278 254.976 36.7163 258.793 43.1616L243.655 51.9391C241.45 47.9532 238.312 44.8577 234.241 42.6527C230.17 40.3629 225.591 39.218 220.502 39.218C211.852 39.218 204.856 41.9319 199.513 47.3595C194.255 52.7871 191.626 59.8261 191.626 68.4764C191.626 77.0419 194.255 84.0385 199.513 89.4661C204.856 94.8937 211.852 97.6076 220.502 97.6076C225.591 97.6076 230.17 96.5051 234.241 94.3001C238.397 92.0103 241.535 88.9149 243.655 85.0137L258.793 93.7913C254.976 100.237 249.676 105.367 242.891 109.184C236.107 112.915 228.644 114.781 220.502 114.781ZM263.447 113V20.1365H279.857V113H263.447ZM296.658 41.7623C293.944 41.7623 291.569 40.787 289.534 38.8364C287.583 36.8011 286.608 34.4265 286.608 31.7126C286.608 28.9988 287.583 26.6242 289.534 24.5889C291.569 22.5535 293.944 21.5358 296.658 21.5358C299.456 21.5358 301.831 22.5535 303.781 24.5889C305.817 26.6242 306.835 28.9988 306.835 31.7126C306.835 34.4265 305.817 36.8011 303.781 38.8364C301.831 40.787 299.456 41.7623 296.658 41.7623ZM288.516 113V49.3949H304.926V113H288.516ZM348.95 47.6139C355.904 47.6139 361.629 49.9461 366.123 54.6105C370.703 59.2749 372.993 65.7202 372.993 73.9465V113H356.583V75.9818C356.583 71.7415 355.438 68.5188 353.148 66.3138C350.858 64.0241 347.805 62.8792 343.989 62.8792C339.748 62.8792 336.356 64.1937 333.812 66.8227C331.268 69.4517 329.996 73.3952 329.996 78.6532V113H313.586V49.3949H329.996V56.5186C333.982 50.5822 340.3 47.6139 348.95 47.6139ZM388.786 41.7623C386.072 41.7623 383.697 40.787 381.662 38.8364C379.711 36.8011 378.736 34.4265 378.736 31.7126C378.736 28.9988 379.711 26.6242 381.662 24.5889C383.697 22.5535 386.072 21.5358 388.786 21.5358C391.584 21.5358 393.959 22.5535 395.91 24.5889C397.945 26.6242 398.963 28.9988 398.963 31.7126C398.963 34.4265 397.945 36.8011 395.91 38.8364C393.959 40.787 391.584 41.7623 388.786 41.7623ZM380.644 113V49.3949H397.054V113H380.644ZM420.355 67.4587C420.355 69.1549 421.457 70.5542 423.662 71.6567C425.952 72.6743 428.708 73.6072 431.931 74.4553C435.154 75.2186 438.376 76.2362 441.599 77.5083C444.822 78.6956 447.535 80.731 449.74 83.6144C452.03 86.4979 453.175 90.1022 453.175 94.4273C453.175 100.957 450.716 106.003 445.797 109.565C440.963 113.042 434.899 114.781 427.606 114.781C414.545 114.781 405.641 109.735 400.892 99.6429L415.139 91.6287C417.005 97.1411 421.16 99.8973 427.606 99.8973C433.457 99.8973 436.383 98.074 436.383 94.4273C436.383 92.7312 435.238 91.3743 432.949 90.3566C430.744 89.2541 428.03 88.2788 424.807 87.4307C421.584 86.5827 418.362 85.5226 415.139 84.2505C411.916 82.9784 409.16 80.9854 406.87 78.2716C404.665 75.473 403.563 71.9959 403.563 67.8404C403.563 61.5647 405.853 56.6459 410.432 53.084C415.097 49.4373 420.864 47.6139 427.733 47.6139C432.906 47.6139 437.613 48.8012 441.853 51.1758C446.094 53.4656 449.443 56.7731 451.903 61.0982L437.91 68.7308C435.874 64.4057 432.482 62.2431 427.733 62.2431C425.613 62.2431 423.832 62.7095 422.39 63.6424C421.033 64.5753 420.355 65.8474 420.355 67.4587ZM465.509 41.7623C462.796 41.7623 460.421 40.787 458.386 38.8364C456.435 36.8011 455.46 34.4265 455.46 31.7126C455.46 28.9988 456.435 26.6242 458.386 24.5889C460.421 22.5535 462.796 21.5358 465.509 21.5358C468.308 21.5358 470.683 22.5535 472.633 24.5889C474.669 26.6242 475.686 28.9988 475.686 31.7126C475.686 34.4265 474.669 36.8011 472.633 38.8364C470.683 40.787 468.308 41.7623 465.509 41.7623ZM457.368 113V49.3949H473.778V113H457.368ZM536.629 105.113C530.099 111.558 522.127 114.781 512.713 114.781C503.3 114.781 495.328 111.558 488.798 105.113C482.353 98.5828 479.13 90.611 479.13 81.1974C479.13 71.7839 482.353 63.8544 488.798 57.4091C495.328 50.879 503.3 47.6139 512.713 47.6139C522.127 47.6139 530.099 50.879 536.629 57.4091C543.159 63.8544 546.424 71.7839 546.424 81.1974C546.424 90.611 543.159 98.5828 536.629 105.113ZM500.374 93.7913C503.681 97.0987 507.795 98.7525 512.713 98.7525C517.632 98.7525 521.745 97.0987 525.053 93.7913C528.36 90.4838 530.014 86.2858 530.014 81.1974C530.014 76.109 528.36 71.9111 525.053 68.6036C521.745 65.2962 517.632 63.6424 512.713 63.6424C507.795 63.6424 503.681 65.2962 500.374 68.6036C497.151 71.9111 495.54 76.109 495.54 81.1974C495.54 86.2858 497.151 90.4838 500.374 93.7913Z" fill="black"/>
<path d="M80.4982 76.7911C92.3256 81.0891 103.447 85.4993 112.737 76.9463C117.207 72.8311 117.797 68.5424 117.999 62.4671C118.328 52.5794 110.32 44.148 107.356 41.173C102.95 36.751 85.8527 19.0381 52.2987 22.0285C39.5163 23.1677 22.6812 34.041 16.9711 42.6635C8.99944 54.701 5.02978 68.7537 12.6749 80.9589C18.0097 89.4758 25.4368 95.9488 34.0909 95.2978C39.339 94.9029 45.5961 87.746 45.5961 87.746C45.5961 87.746 50.6409 89.4666 53.9444 88.8817C56.8894 88.3603 59.1672 87.3208 61.6493 85.6427C65.6869 82.9129 64.9281 78.1581 69.4717 76.4075C73.4982 74.8561 77.0081 75.5228 80.4982 76.7911Z" fill="url(#paint0_linear_837_3822)"/>
<path d="M54.218 71.8649C38.5796 71.8649 23.7174 72.2959 16.4971 58.3498C13.0232 51.6399 14.1548 46.3753 16.4971 39.1867C20.3094 27.4872 33.2414 21.0322 37.9659 18.8133C44.9884 15.5152 72.4765 2.07085 110.398 19.8219C124.844 26.5843 139.892 46.4486 142.902 58.955C147.104 76.4148 145.776 94.5303 131.666 105.552C121.82 113.242 110.398 117.655 100.566 113.217C94.6043 110.526 90.3337 99.5 90.3337 99.5C90.3337 99.5 83.7112 99.3684 80.1009 97.2812C76.8825 95.4204 74.6633 93.2374 72.4765 90.2211C68.9192 85.3143 71.8235 80.0778 67.2598 76.1009C63.2153 72.5765 58.8328 71.8649 54.218 71.8649Z" fill="url(#paint1_linear_837_3822)"/>
<circle cx="79.6479" cy="114.986" r="10.2113" transform="rotate(60 79.6479 114.986)" fill="url(#paint2_linear_837_3822)"/>
<defs>
<linearGradient id="paint0_linear_837_3822" x1="81.3078" y1="20.0892" x2="39.5746" y2="98.5295" gradientUnits="userSpaceOnUse">
<stop stop-color="#004CFC" stop-opacity="0.68"/>
<stop offset="0.42411" stop-color="#004CFC" stop-opacity="0.58"/>
<stop offset="1" stop-color="#00C9FD" stop-opacity="0.2"/>
</linearGradient>
<linearGradient id="paint1_linear_837_3822" x1="145" y1="88.4367" x2="14.2958" y2="45.0388" gradientUnits="userSpaceOnUse">
<stop stop-color="#064BF0" stop-opacity="0.75"/>
<stop offset="0.43855" stop-color="#148EF6" stop-opacity="0.6645"/>
<stop offset="1" stop-color="#1FC4FB" stop-opacity="0.39"/>
</linearGradient>
<linearGradient id="paint2_linear_837_3822" x1="81.2932" y1="129.495" x2="78.6268" y2="104.775" gradientUnits="userSpaceOnUse">
<stop stop-color="#2C68D5"/>
<stop offset="1" stop-color="#8ED3FA"/>
</linearGradient>
</defs>
</svg>
