  <svg
                viewBox="0 0 70 30"
                fill='white'
                xmlns="http://www.w3.org/2000/svg"
              >
                <path
                  clipRule="evenodd"
                  d="M35.1.046c-.025.025-.045.363-.045.751v.707h1.572V0h-.74c-.408 0-.762.02-.787.046zm20.013.037c-.018.048-.026 1.903-.016 4.12l.018 4.033h1.572V.034l-.77-.02c-.578-.014-.779.003-.804.07zM7.203.65c-.775.119-1.139.215-1.205.32-.067.106-.084.27-.064.615.008.138-.047.392-.123.564-.117.265-.167.312-.33.31a.64.64 0 01-.325-.102.55.55 0 00-.28-.1c-.081 0-.234-.08-.339-.178-.22-.203-.432-.199-1.055.023-.379.134-.433.184-.548.51-.036.101-.266.342-.512.536-.317.248-.448.397-.448.506 0 .086-.081.275-.18.421-.205.3-.367.656-.367.806 0 .157.546.72.656.678.067-.025.096.016.096.138 0 .105.112.303.283.502.432.502.463.513.719.257.096-.096.193-.157.214-.135.022.021-.03.23-.115.465-.22.607-.288.911-.314 1.417-.033.654.115 1.094.648 1.914.437.672.547.974.547 1.497 0 .27.036.709.08.973.085.515-.013 1.994-.15 2.248-.045.086-.16.133-.357.148-.251.018-.305.05-.404.247a1.907 1.907 0 01-.222.347c-.06.067-.109.24-.109.389 0 .202-.05.32-.202.483-.111.119-.236.227-.278.241-.042.014-.117.302-.168.64-.05.337-.13.7-.178.804-.073.16-.068.244.024.512.061.177.147.506.19.732.14.718.363.957 1.021 1.087.368.073.377.08.42.344.052.329.32.582.628.593.32.012 4.39-.017 5.826-.042 1.696-.03 1.983-.126 2.076-.701.039-.242.062-.263.44-.382.328-.105.435-.18.614-.43.118-.168.281-.526.362-.797.08-.27.187-.591.236-.713.077-.187.074-.268-.02-.546a6.453 6.453 0 01-.15-.498c-.021-.094-.177-.381-.347-.638-.232-.35-.299-.509-.268-.632.03-.12-.011-.227-.154-.398a7.346 7.346 0 01-.318-.41c-.1-.146-.177-.177-.425-.177-.296 0-.302-.005-.379-.29-.043-.16-.125-.43-.182-.599-.133-.395-.132-.54.012-1.162.085-.364.109-.68.085-1.09-.034-.576-.034-.577.278-1.196.171-.34.378-.71.46-.824.287-.399.542-1.31.535-1.913-.008-.687-.062-.94-.286-1.352-.248-.455-.249-.46-.11-.46.057 0 .132.073.165.162.061.16.198.248.387.248.113 0 .495-.412.628-.677.049-.097.228-.285.398-.416.364-.281.531-.56.465-.772a2.159 2.159 0 00-.237-.424 1.658 1.658 0 01-.238-.575c-.058-.369-.284-.595-.668-.671-.235-.047-.308-.105-.458-.362-.21-.36-.555-.614-.832-.614-.254 0-.66.17-.876.369-.151.137-.605.315-.806.315-.04 0-.092-.09-.116-.2a.597.597 0 00-.142-.282c-.054-.045-.098-.2-.098-.344a1.45 1.45 0 00-.099-.487 2.535 2.535 0 01-.135-.404C10.029.78 9.825.707 8.96.619 8.13.534 7.93.537 7.203.649zM29.655 3.56c0 2.48.017 3.004.108 3.316.296 1.018 1.267 1.59 2.568 1.515.991-.057 1.742-.588 2.043-1.446.112-.32.134-.564.134-1.51v-1.13h-1.419l-.03.974c-.046 1.397-.217 1.708-.938 1.702-.445-.003-.604-.096-.761-.443-.114-.25-.13-.46-.131-1.738l-.002-1.452H34.508V2.187h-3.28V.615h-1.573v2.946zM8.262 1.098c0 .233-.099.262-.207.06C7.999 1.053 8 .99 8.06.919c.114-.137.202-.058.202.179zm.82-.252c0 .103-.22.521-.274.521-.115 0-.104-.315.016-.461.064-.078.258-.123.258-.06zM7.47.996c.078.203.047.388-.057.348-.054-.02-.11-.001-.127.044-.019.053-.092.023-.21-.084-.098-.091-.195-.15-.215-.13-.02.02.01.076.068.123.17.142.118.219-.067.098-.094-.062-.17-.08-.17-.042s-.066.053-.145.032c-.133-.035-.138-.025-.06.121.078.145.093.149.17.044.11-.152.171-.145.171.02 0 .073-.074.204-.164.29-.245.234-.384 1.156-.222 1.47.094.181.094.22.003.35-.212.302-.625.352-.55.067a.79.79 0 00-.026-.336c-.104-.364.08-.566.209-.229.036.097.098.156.136.132.073-.045.064-.066-.185-.435-.11-.162-.144-.283-.113-.41.06-.255.165-.373.253-.285.04.04.096.071.127.071.071 0-.002-.533-.102-.739-.098-.201.003-.38.23-.408.091-.011.234-.055.319-.097.13-.065.18-.052.324.083.164.153.171.154.171.023 0-.232.158-.313.232-.12zm.439.19c.02.233.039.258.17.223.083-.022.189-.04.236-.041.052 0 .085-.096.085-.246 0-.166.028-.236.085-.216.047.016.088.131.09.257.002.128.046.248.102.275.054.026.27.126.481.221.3.137.4.223.467.403.047.125.128.329.182.452.134.311.124.373-.095.583l-.192.184-.158-.213-.158-.214.194-.154c.16-.128.18-.173.11-.257-.047-.056-.068-.146-.047-.2.046-.121-.146-.304-.384-.363-.134-.033-.23.001-.4.144-.219.184-.223.197-.178.59l.045.402-.294-.022-.294-.02v-.889l-.26-.127c-.22-.107-.29-.114-.46-.043-.114.047-.203.135-.203.201 0 .065-.06.172-.132.238-.166.15-.12.275.137.382.18.075.284.271.143.271-.106 0-.244.374-.224.607.011.128-.016.255-.062.282-.144.09-.012.472.18.52.196.05.346.281.246.381-.043.043-.125.007-.232-.1a.995.995 0 00-.256-.196c-.05-.016-.117-.206-.15-.42-.051-.32-.042-.423.05-.562.103-.158.103-.182 0-.324-.356-.492-.34-.447-.22-.63a.784.784 0 00.11-.364c0-.25.198-.428.705-.633.288-.117.388-.19.363-.267C7.552.874 7.552.875 7.723.9c.135.019.167.068.185.286zM9.658.93c.15.058.135.222-.033.358-.092.075-.125.156-.095.233.064.167.257.158.204-.01-.026-.081-.002-.143.066-.169.125-.048.24.196.24.509 0 .11.035.27.078.354.178.344.195.402.196.682.001.16.028.405.06.545.073.312-.033.874-.165.874-.056 0-.088.066-.08.167.023.294-.115.22-.246-.131-.124-.335-.124-.347.015-.77.165-.502.174-.738.039-.975a.877.877 0 01-.1-.355c-.004-.286-.128-.49-.366-.602-.274-.128-.335-.385-.102-.43l.158-.03-.156-.009c-.086-.005-.174.037-.195.093-.05.13-.162.134-.162.005 0-.111.317-.38.448-.38.048 0 .136.018.196.041zM7.59 2.095c.183.167.152.25-.046.12-.095-.062-.23-.097-.303-.078-.092.024-.12.006-.095-.06.05-.13.291-.12.443.018zm1.289.169c-.118.117-.228.199-.246.181-.056-.056.25-.395.356-.395.068 0 .03.073-.11.214zm11.772-.12c-.411.105-.854.376-1.016.624-.171.262-.233.207-.233-.207v-.378l-.735.019-.734.02-.018 7.295-.017 7.297h1.561l.023-1.931c.021-1.799.033-1.953.168-2.246.195-.42.553-.688.977-.729.451-.043.806.085.967.35.125.205.131.383.132 3.504v3.288l-.632-.032c-1.457-.074-2.365.478-2.596 1.578-.07.335-.068.404.018.46.104.067 1.187.067 1.278 0 .029-.021.111-.155.183-.297a.945.945 0 01.856-.528c.515 0 .893.293.893.694 0 .22-.032.276-.21.368-.116.06-.554.167-.974.239-1.021.173-1.398.294-1.706.55-.366.302-.543.687-.58 1.259-.055.844.2 1.348.847 1.672.68.34 1.978.249 2.483-.176l.21-.177.074.212.074.212h1.422v-6.429c0-4.715-.021-6.514-.08-6.749-.112-.444-.642-.97-1.152-1.146-.8-.274-1.85-.087-2.357.42-.127.128-.249.204-.27.17-.02-.033-.03-1.624-.02-3.535.017-3.438.02-3.478.17-3.784.084-.17.244-.363.357-.43.473-.28 1.334-.202 1.558.14.106.161.124.438.154 2.339l.034 2.156h1.572V5.844c0-2.368-.002-2.396-.16-2.716-.19-.388-.685-.842-1.028-.945-.395-.118-1.106-.137-1.493-.038zm5.066.008c-.987.215-1.539.765-1.641 1.635l-.045.382h1.455l.11-.274c.06-.15.192-.333.292-.404.587-.418 1.716-.144 1.716.416 0 .31-.31.582-.724.637-.715.096-1.754.324-2.031.447-.665.294-1.004.875-1.004 1.722 0 .555.208 1.04.563 1.307.7.529 2.233.499 2.963-.058.272-.207.259-.21.349.069l.066.205h1.424V5.912c-.001-2.218-.008-2.338-.145-2.632-.197-.422-.47-.731-.793-.896-.612-.312-1.724-.413-2.555-.232zm13.49.005c-1.435.348-2.27 1.494-2.26 3.106.005.904.254 1.617.766 2.198.855.97 2.587 1.238 3.853.595.627-.318 1.112-.894 1.357-1.613.13-.382.157-.599.154-1.249-.006-1.075-.242-1.705-.874-2.33-.688-.681-1.912-.97-2.995-.707zm6.92-.009c-.464.129-.714.28-.981.592l-.243.283-.02-.4-.021-.402h-1.436l-.017 3.025-.018 3.024h1.573V6.37c0-2.045.044-2.37.363-2.663.28-.259.875-.352 1.368-.215.213.059.287.127.392.358.118.26.13.47.131 2.356l.002 2.07.803-.02.803-.019V5.878c0-2.34-.001-2.36-.163-2.72-.398-.879-1.47-1.306-2.537-1.01zm5.084.004c-1.007.22-1.558.769-1.648 1.646l-.038.371h1.431l.13-.285c.178-.386.423-.55.871-.588.706-.059 1.24.334 1.086.798-.082.245-.375.396-.936.483-1.685.258-2.253.514-2.58 1.16-.161.316-.188.454-.188.942 0 .633.108.934.457 1.265.627.595 2.295.609 3.06.025.248-.189.265-.183.337.115l.045.19.733-.019.733-.019.019-2.05c.016-1.668 0-2.14-.088-2.53-.13-.576-.378-.957-.79-1.211-.58-.36-1.738-.488-2.634-.293zm-41.856.035c.056.037.072.066.034.066a.41.41 0 01-.17-.066c-.057-.036-.073-.066-.035-.066a.41.41 0 01.17.066zm25.73.086c-.018.047-.025 1.408-.015 3.024l.018 2.939.769.02.769.019V2.187h-.754c-.54 0-.764.024-.787.086zm-30.618.142c.159.242.112 1.666-.06 1.79-.096.072-.106.118-.047.228.103.193.092.388-.029.488-.086.072-.102.057-.102-.096 0-.113-.045-.196-.12-.219-.326-.1-.477-.3-.228-.3.182 0 .186-.182.006-.24-.185-.058-.171-.116.058-.246.107-.061.211-.175.232-.254.044-.169-.144-.57-.289-.617-.077-.024-.072-.003.017.086.17.17.156.563-.024.659-.166.089-.261.032-.143-.086.167-.167.087-.332-.227-.471-.264-.117-.307-.164-.307-.338 0-.154.03-.202.132-.202.073 0 .152-.03.175-.068.023-.038.098-.068.167-.068a.313.313 0 00.209-.103c.133-.16.458-.128.58.057zm3.054-.046c.069.062.125.135.125.163 0 .096-.327.132-.538.058l-.213-.074.154-.128c.19-.16.312-.164.472-.02zm1.76.016l.164.127-.175.114c-.16.105-.53.095-.53-.015 0-.053.287-.356.336-.354a.82.82 0 01.204.128zm3.298.052c.07.063.195.148.279.19.303.151.199.517-.148.517-.127 0-.216.058-.297.196a.8.8 0 01-.326.283c-.145.06-.223.148-.25.283-.026.131-.08.195-.167.195-.16 0-.167-.187-.017-.502.106-.222.104-.24-.027-.37l-.138-.14-.039.195c-.03.152-.117.232-.399.366-.198.095-.383.15-.412.121-.098-.098.158-.35.428-.423.159-.042.271-.114.271-.172 0-.136-.054-.127-.403.073-.315.18-.426.172-.307-.023.103-.168.503-.355.761-.355.122 0 .222-.028.222-.061 0-.034.09-.157.199-.274.227-.243.563-.286.77-.099zm-7.53.194c.072.087.057.103-.094.103-.114 0-.18-.038-.18-.103 0-.056.043-.102.095-.102.051 0 .132.046.179.102zm.615.205c.07.084.066.103-.018.103a.168.168 0 01-.143-.103c-.022-.056-.014-.102.018-.102s.096.046.143.102zm-.23.137c.26.109.318.307.285.991l-.02.444-.129-.235c-.1-.183-.111-.261-.051-.357a.636.636 0 00.067-.312c-.008-.16-.013-.166-.038-.036a.444.444 0 01-.157.242c-.12.084-.12.104-.02.313.1.204.1.232 0 .332s-.117.095-.192-.07c-.045-.1-.135-.198-.2-.219-.214-.068-.35-.278-.303-.467l.045-.176.199.148c.186.137.207.14.313.033.124-.123.112-.133-.262-.214-.22-.048-.282-.188-.193-.425.074-.192.18-.19.656.008zm2.192-.06c-.085.085.097.301.338.402.22.091.268.09.481-.011.13-.062.267-.19.303-.284.047-.124.086-.151.14-.097.104.104.022.28-.164.355-.153.061-.152.062.024.067a.344.344 0 00.288-.15c.091-.13.118-.138.176-.053.11.165-.108.343-.432.35l-.28.008.22.07c.176.057.255.048.391-.04.207-.136.312-.143.312-.022 0 .166-.313.273-.663.228-.2-.026-.288-.019-.225.018.107.063.336.094.601.081.086-.004.233-.09.325-.19.093-.099.189-.16.214-.135.025.024.038.22.03.436-.015.35-.042.415-.25.606-.128.117-.246.2-.261.185-.015-.015-.047.05-.071.145-.06.242-.204.297-.828.318-.798.027-.854-.002-.854-.454 0-.205.028-.372.062-.372.033 0 .169.108.3.24.396.395.828.29 1.128-.274.069-.13.077-.126.148.062l.075.198.169-.229c.093-.125.169-.282.169-.347 0-.109-.017-.11-.21-.013-.27.135-.582.075-.825-.158l-.186-.178-.315.227c-.329.236-.713.301-.866.148-.06-.059-.038-.067.085-.035.156.04.158.037.044-.078-.157-.156-.154-.16.085-.124.112.016.282.01.378-.014.141-.035.158-.06.087-.128a1.205 1.205 0 00-.279-.168c-.182-.081-.309-.259-.236-.332.02-.019.12.044.224.14.24.224.353.23.13.007-.193-.194-.224-.447-.053-.447.063 0 .095.019.07.043zm-4.372.368c.16.094.28.201.269.239-.012.038-.124.117-.25.177l-.227.11.267.13.266.13.017.478c.023.65.023.647-.026.957-.03.194-.12.348-.308.53-.24.234-.467.333-.47.205 0-.028-.019-.12-.042-.205-.036-.135-.015-.154.164-.154.387 0 .533-.41.26-.734-.208-.247-.227-.428-.046-.428.071 0 .145-.041.165-.092.024-.065-.011-.083-.122-.062-.086.017-.177-.003-.203-.045-.06-.097-.347-.095-.538.002-.123.064-.134.061-.064-.013a.406.406 0 00.086-.243c0-.092.082-.211.206-.3l.207-.147-.166-.131c-.092-.072-.21-.13-.262-.13-.23 0-.36.375-.156.453.155.06.123.281-.058.4a.772.772 0 00-.238.275c-.092.202-.187.217-.28.043-.053-.1-.024-.187.133-.4.11-.15.24-.386.287-.524.062-.176.19-.32.43-.482.187-.126.356-.226.375-.22.019.005.165.087.324.18zm10.524.076c.258.077.36.197.166.197-.128 0-.557.46-.557.596 0 .036.077.105.17.155.094.05.189.15.212.223.023.073.145.175.272.228.126.053.266.165.311.248l.081.151-.192-.125c-.166-.11-.186-.111-.149-.015.024.061.01.111-.031.111s-.058.062-.039.137c.024.089.002.137-.06.137-.056 0-.096-.07-.096-.166 0-.091-.083-.264-.183-.383-.179-.212-.194-.217-.585-.173l-.402.046.021-.329.021-.328.308-.035c.295-.033.3-.038.148-.125-.087-.05-.199-.075-.248-.056-.107.041-.242-.081-.242-.22 0-.056.099-.184.22-.285.189-.157.25-.175.427-.12.114.036.306.095.427.13zm-6.2.354c.072.026.062.039-.036.043-.184.007-.443-.18-.443-.32 0-.087.04-.073.188.065.104.096.234.192.29.212zm33.31-.042c.405.284.586.757.588 1.54.005 1.25-.462 1.83-1.469 1.83-.598 0-.95-.213-1.237-.751-.104-.195-.128-.39-.127-1.06 0-.871.09-1.184.431-1.492.416-.376 1.326-.41 1.815-.067zm-28.349.032c.029.046-.042.153-.167.256-.15.124-.216.237-.215.372 0 .244-.144.211-.238-.054-.061-.173-.043-.21.205-.42.3-.254.344-.27.415-.154zm-1.145.197c-.048.14-.162.25-.35.342-.339.163-.322.163-.322.008 0-.143.145-.286.444-.438.293-.15.309-.143.228.088zm-4.87.135c.126 0 .128.465.002.632-.132.174-.286.147-.447-.08-.203-.284-.183-.456.064-.542.112-.04.208-.112.212-.16.005-.05.022-.036.04.03.017.066.075.12.128.12zm7.317.053c-.158.159-.226.042-.073-.127.081-.09.138-.113.155-.062.015.045-.022.13-.082.19zm.417.066c.044.104.15.273.233.376.237.29.08.376-.27.147-.23-.151-.269-.206-.215-.306a.663.663 0 00.065-.264c0-.198.092-.175.187.047zm-8.987.482c.066.05.12.135.12.19 0 .154-.197.196-.328.07a3.756 3.756 0 00-.276-.232c-.136-.103-.153-.158-.113-.37l.046-.25.216.252c.118.138.27.291.335.34zm5.298.144c-.014.21-.053.444-.086.519-.053.12-.047.126.052.045.116-.094.255-.057.255.068 0 .04-.05.177-.111.306-.123.258-.087.367.075.232.132-.11.14-.007.023.316-.094.26-.029.38.106.197.163-.224.191.008.037.304-.165.316-.117.461.07.213.068-.09.157-.142.199-.116.051.032.009.174-.13.438-.18.343-.195.418-.13.607.042.118.117.231.167.25.177.068.19.418.026.696-.174.295-.237.23-.135-.142.07-.25.07-.25-.07-.124-.119.107-.136.187-.11.503.032.376-.03.612-.22.838-.152.18-.212.143-.108-.069.142-.29.243-.654.243-.883 0-.114.03-.296.068-.405.097-.28-.015-1.402-.19-1.907-.4-1.15-.427-1.387-.22-1.932.075-.197.141-.443.147-.546l.01-.188.03.199c.016.109.017.37.002.58zm-2.1-.573c.267.138.26.33-.016.463-.193.093-.242.094-.41.007-.106-.055-.192-.111-.192-.126a.668.668 0 00-.04-.13c-.025-.067.029-.14.154-.208.244-.132.26-.132.505-.006zm4.072.182c-.056.282-.227.466-.43.466-.111 0-.183.055-.229.175-.081.214-.204.157-.202-.094.001-.28.09-.384.254-.296.173.092.326-.019.387-.28.025-.11.09-.189.154-.189.086 0 .1.046.066.218zm-1.136.047c0 .073-.116.204-.272.307-.323.214-.343.217-.343.055 0-.177.329-.46.564-.485.028-.003.051.052.051.123zm-5.732.093c.045.084.12.358.168.609.073.38.071.508-.01.78-.054.177-.126.357-.16.399-.035.041-.083.184-.108.317-.042.221-.031.242.127.255.095.008.191-.016.214-.053.061-.1.239-.082.239.023 0 .05-.077.163-.171.251-.094.089-.171.127-.171.087 0-.04-.062-.058-.137-.038-.096.025-.137.002-.137-.079 0-.063-.026-.098-.059-.078-.069.043-.152.471-.188.963-.027.365-.198.758-.358.82-.128.049-.352-.024-.352-.115 0-.04.064-.056.141-.035.173.045.252-.116.13-.264-.066-.08-.068-.124-.008-.184.06-.06.105-.046.185.055.105.131.106.131.074-.004-.099-.411-.119-.718-.047-.718.053 0 .063-.107.032-.341-.04-.298-.03-.342.075-.342.1 0 .114-.044.083-.274-.036-.267.036-.426.116-.256.022.047.028-.043.013-.2-.03-.323.006-.398.14-.286.13.107.123-.08-.01-.253-.086-.113-.11-.118-.167-.032-.056.086-.089.08-.223-.043-.182-.167-.465-.27-.465-.17 0 .038.13.14.29.228.31.17.403.384.231.526-.08.068-.108.058-.142-.051-.024-.074-.133-.166-.243-.204a.359.359 0 01-.245-.25c-.045-.18-.045-.18-.122-.029-.1.197-.2.204-.213.016-.006-.082-.124-.274-.262-.427-.305-.337-.317-.427-.046-.325.113.043.205.097.205.12 0 .06.246.338.299.338.023 0 .043-.044.043-.098 0-.054.03-.18.068-.279l.069-.18.388.275c.343.243.397.262.468.165.044-.06.115-.087.158-.06.106.065.1.02-.033-.259-.062-.13-.094-.284-.07-.344.055-.146.094-.137.19.044zm-3.126.309c-.185.273-.327.357-.521.306-.18-.047-.15-.098.205-.333.435-.29.525-.282.316.027zm7.526-.027c.082.125.09.204.035.348-.039.102-.107.173-.152.158-.168-.056-.212-.667-.048-.667.032 0 .106.072.165.161zm-3.423.097c.022.067.134.158.251.202.122.046.2.117.183.168-.045.135.214.294.639.393.311.073.378.113.353.21-.018.066.002.14.043.166.15.093.068.183-.147.162-.153-.015-.246-.073-.303-.19l-.084-.167-.068.18c-.048.126-.105.169-.192.144-.142-.04-.43-.455-.433-.625-.002-.103-.01-.102-.074.008-.053.092-.044.165.037.288.139.213.136.238-.029.238-.09 0-.137-.046-.137-.134 0-.074-.093-.266-.207-.427l-.317-.45c-.129-.183-.074-.279.085-.147.094.078.12.075.176-.024.084-.15.176-.148.224.005zm-3.58.258c.146.237.147.362.001.272A.176.176 0 013 5.301c0-.05-.045-.128-.101-.174-.056-.047-.085-.112-.065-.145.058-.093.076-.08.237.182zm8.214.104c-.121.114-.22.242-.22.285 0 .055-.022.057-.071.008-.099-.099.022-.393.217-.53.106-.074.178-.086.225-.039.048.048 0 .136-.15.276zm1.83-.244c0 .056-.063.166-.14.243-.206.206-.149.424.135.516.274.088.405.339.256.488-.08.081-.111.079-.207-.017-.062-.062-.112-.155-.112-.206 0-.052-.085-.135-.188-.184-.171-.082-.188-.124-.188-.462 0-.339.015-.376.17-.42.258-.071.274-.07.274.042zm-3.347.143a.406.406 0 01-.018.353c-.135.276-.234.255-.284-.057-.068-.425.166-.654.302-.296zm2.745.034c-.01.09-.126.257-.256.37-.13.112-.236.26-.236.33 0 .184-.167.098-.19-.099-.014-.11.04-.224.153-.331.096-.09.174-.203.174-.25 0-.1.206-.238.308-.206.037.012.059.095.047.186zm-9.85.404c.126 0 .06.197-.082.242-.175.055-.256-.052-.213-.278.027-.144.044-.152.131-.064.055.055.129.1.164.1zm1.408.03c.121.255.29.364.366.239.087-.14.538.215.585.46.05.26-.002.364-.181.364-.159 0-.172.088-.03.205.15.125.125.255-.07.384-.158.103-.164.124-.07.229.144.158.132.325-.027.41-.103.055-.124.12-.096.296.025.153.004.253-.066.31-.09.076-.09.109 0 .29.08.162.085.226.019.305-.123.149-.203.121-.203-.07a.347.347 0 00-.164-.276c-.177-.116-.258-.312-.18-.438.035-.057.073-.05.136.026.049.059.115.106.148.106.1 0 .067-.25-.046-.344-.121-.101-.104-.382.022-.356.046.009.119.024.161.034.148.033.127-.122-.044-.32-.206-.24-.186-.351.06-.334.216.016.225-.04.044-.27-.208-.264-.11-.43.232-.394.118.013.115-.004-.034-.185l-.164-.2-.119.194c-.172.28-.344.26-.289-.034.035-.183.008-.27-.133-.437-.097-.116-.177-.26-.177-.32 0-.196.205-.115.32.127zm5.34.043c.03.36-.103.484-.544.509-.476.026-.55-.019-.494-.298.038-.19.067-.215.223-.189.098.017.2.033.226.036.025.003.06.09.075.193.023.154.03.143.039-.064.007-.186.045-.263.146-.295.076-.023.137-.074.137-.112 0-.039.039-.057.086-.042.047.016.094.134.105.262zm4.032-.187a.23.23 0 00.183.021c.052-.02.13.008.176.062.074.09.044.127-.086.108-.027-.004-.033.035-.013.087.067.173-.087.176-.248.004-.087-.093-.213-.168-.28-.168-.12 0-.22-.091-.163-.148.05-.05.336-.026.431.034zm14.23.207c0 .93-.703 1.615-1.571 1.532-.407-.04-.596-.188-.658-.515-.103-.55.262-.864 1.245-1.07.26-.055.549-.13.642-.168.303-.122.342-.096.342.221zm25.426.097c0 .817-.503 1.366-1.31 1.431-.402.032-.455.02-.657-.15-.188-.158-.22-.23-.22-.492 0-.245.038-.345.193-.5.187-.187.944-.476 1.266-.483.08-.001.239-.045.352-.097.35-.16.376-.139.376.291zm-46.756.1c.061.164-.078.53-.201.53-.086 0-.086-.283 0-.508.082-.216.126-.22.2-.022zm3.833.235c0 .05-.046.09-.103.09-.07 0-.101-.07-.1-.222.002-.21.008-.215.103-.09.055.073.1.173.1.222zm1.176-.238c-.157.156-.1.262.1.187.293-.112.372.04.124.24-.165.132-.183.172-.096.206.06.023.19.01.29-.027.242-.092.248.047.012.268-.151.143-.237.41-.131.41.021 0 .133-.094.248-.209.277-.276.428-.166.198.145-.093.127-.137.256-.11.326.038.098.065.087.182-.073.075-.104.196-.188.268-.188.17 0 .166.031-.047.311-.111.146-.162.278-.134.35.037.096.08.073.252-.136.305-.371.492-.304.197.071-.075.096-.137.237-.137.313 0 .136.005.136.166-.016.246-.231.348-.147.149.122-.093.126-.153.28-.133.341.02.067-.024.044-.11-.058-.08-.094-.296-.34-.48-.547-.55-.617-.82-.983-.821-1.114 0-.067-.063-.25-.138-.405-.198-.41-.183-.6.048-.6.144 0 .166.019.103.083zm1.08.055a.514.514 0 01-.08.196c-.102.164-.025.362.13.336.089-.015.126.033.144.185a.687.687 0 00.093.29c.052.062.043.086-.031.086-.14 0-.28-.181-.235-.3.023-.058-.015-.11-.093-.13-.072-.02-.166-.114-.21-.21-.065-.143-.059-.207.034-.348.115-.176.248-.232.248-.105zM3.86 6.3a.567.567 0 00.153.32c.182.18.186.313.017.482-.115.115-.12.147-.034.268.053.075.078.183.057.24-.046.12-.219.2-.309.144-.034-.021-.062-.008-.062.03 0 .037.03.087.068.11.108.067.08.357-.039.403-.068.026-.092.087-.066.168a.207.207 0 01-.064.214c-.087.072-.104.064-.104-.05a.333.333 0 00-.106-.225c-.153-.127-.25-.33-.198-.414.028-.045.103-.017.201.075.23.216.262.063.064-.31-.2-.376-.174-.65.038-.39.069.084.159.153.2.153.106 0 .092-.173-.02-.267-.163-.135-.185-.348-.036-.348.072 0 .13.037.13.082 0 .06.02.062.077.005.057-.056.039-.13-.068-.28-.151-.212-.175-.334-.103-.522.062-.162.196-.088.204.112zm2.985.005c.043.12-.074.325-.184.325-.05 0-.131.047-.18.106-.07.084-.099.087-.143.017-.088-.138-.072-.186.122-.366.199-.184.338-.214.385-.082zm2.886.09c0 .072-.054.14-.12.154-.113.021-.121-.026-.056-.318.02-.086.176.06.176.164zm-3.794.017c0 .03-.045.115-.1.188-.099.13-.1.13-.102-.01-.002-.078.018-.163.043-.188.063-.063.16-.057.16.01zm1.553.055c.014.043-.053.17-.149.284-.095.113-.173.27-.173.35 0 .158-.008.163-.166.102-.259-.099.048-.87.331-.831.073.01.143.053.157.095zm1.903.211c.3.252.389.43.212.43-.05 0-.147-.06-.214-.135a.698.698 0 00-.244-.173c-.134-.043-.224-.216-.164-.313.058-.094.082-.083.41.191zm.889-.085c.153.233.05.38-.115.166-.07-.09-.126-.202-.127-.249-.003-.14.124-.097.242.083zm-2.173.024c.016.049-.097.209-.25.356-.155.146-.281.314-.281.372 0 .16-.184.125-.228-.045-.049-.184.127-.571.322-.709.167-.118.394-.105.437.026zm.761.163c.212.287.272.556.143.636-.038.023-.098-.035-.134-.13a.686.686 0 00-.228-.278c-.136-.089-.321-.368-.321-.484 0-.017.074-.03.165-.03.114 0 .229.087.375.286zm1.113-.046c.117.256-.026.367-.177.137-.113-.173-.098-.31.033-.31.036 0 .101.078.144.173zm-3.294.33c0 .088-.06.215-.135.282a.714.714 0 00-.176.253c-.033.105-.062.115-.139.051-.145-.12-.118-.239.116-.505.247-.282.334-.303.334-.082zm2.038.294c.158.175.286.357.286.406 0 .18-.16.182-.29.004-.072-.1-.165-.181-.206-.181-.136 0-.324-.225-.324-.387 0-.258.218-.194.534.158zm1.773-.199c.016.05-.03.086-.114.086s-.143-.044-.143-.108c0-.125.214-.107.257.022zm-.934.16c.198.203.242.406.096.446-.088.024-.375-.338-.41-.518-.037-.198.075-.172.314.072zm-1.522.052c.015.103-.055.218-.222.366-.134.12-.244.275-.244.346 0 .2-.168.1-.193-.116a.364.364 0 01.12-.322c.077-.072.141-.16.141-.193 0-.1.215-.284.299-.256.042.014.087.093.1.175zM5.71 7.48c-.022.058-.088.107-.145.107-.127 0-.13-.03-.021-.205.095-.152.232-.072.166.098zm4.432.004c0 .144-.037.21-.128.228-.082.016-.11-.003-.08-.053.027-.043.013-.122-.031-.175-.1-.12-.025-.254.126-.225.075.015.113.09.113.225zm1.137.154c-.045.084-.045.16 0 .226.046.065.08.073.1.023.018-.042.075-.134.127-.205.091-.124.098-.124.143-.006.028.07-.004.238-.072.39-.066.145-.102.311-.08.368.025.067.007.09-.052.067-.05-.019-.11-.127-.133-.24a.711.711 0 00-.144-.307c-.137-.138-.13-.367.016-.574.12-.169.12-.169.141-.019a.53.53 0 01-.046.277zM7.06 7.355c.134.051.134.084.001.401-.103.247-.11.251-.239.135-.16-.146-.166-.227-.026-.426.119-.17.114-.168.264-.11zm-1.043.27a.81.81 0 01-.118.261c-.086.124-.097.125-.14.016-.058-.153.086-.472.197-.433.046.016.073.086.06.156zm4.564.091c.096.179-.074.331-.2.18-.09-.11-.05-.31.063-.31.037 0 .1.059.137.13zm-.953.496c0 .065-.03.137-.068.16-.038.024-.068 0-.068-.053s-.062-.152-.137-.22a.456.456 0 01-.134-.3l.003-.178.202.236c.111.13.202.29.202.355zm-3.007-.326c0 .09-.046.2-.103.247a.317.317 0 00-.102.214c0 .156-.174.17-.232.02-.074-.193-.045-.305.126-.476.212-.211.31-.213.31-.005zm2.102.103c.314.287.37.507.158.62-.114.062-.135.046-.154-.115a.348.348 0 00-.168-.26c-.245-.12-.366-.247-.366-.382 0-.207.214-.152.53.137zm-3.105.4c-.039.16-.187.207-.263.083-.055-.088.097-.283.18-.231.088.054.075-.066-.017-.158-.045-.045-.055-.129-.024-.201.043-.101.063-.08.107.115.03.131.038.308.017.393zm4.493-.458c.146.078.185.409.047.405-.115-.003-.343-.323-.29-.408.052-.085.08-.085.243.003zm-2.81.305c0 .145-.357.58-.474.58-.157 0-.064-.41.146-.65.224-.255.33-.232.328.07zm.851-.138a.583.583 0 00.23.29.97.97 0 01.244.209c.03.05.13.12.222.154.177.067.218.26.083.394-.12.12-.191.1-.191-.054 0-.083-.101-.2-.26-.3a1.512 1.512 0 01-.37-.325C8 8.306 8 8.306 7.894 8.44a1.967 1.967 0 00-.194.325c-.1.217-.23.244-.29.06-.047-.15.042-.372.327-.812.1-.156.37-.102.416.084zm3.886-.05c.014.066-.032.24-.104.385-.072.146-.117.339-.1.427.034.182-.05.221-.114.054-.068-.179-.047-.384.07-.693.12-.31.203-.37.248-.173zm-5.979.16c.01.054-.082.235-.205.401a2.279 2.279 0 00-.298.546l-.075.243-.114-.24-.114-.239.036.296c.02.162.043.327.052.367.034.158-.142.118-.182-.042-.024-.096-.08-.158-.128-.141-.046.017-.138-.077-.203-.207l-.118-.238h.166c.091 0 .198-.054.237-.12.061-.104.079-.107.14-.017.056.082.08.085.127.013.032-.049.1-.08.154-.068.062.013.104-.05.119-.178.043-.382.35-.665.406-.376zm3.636.618a.29.29 0 01-.1.196c-.086.07-.103.062-.103-.05a.406.406 0 00-.13-.251c-.072-.065-.143-.227-.158-.361l-.029-.244.259.3c.142.164.26.348.26.41zm.89-.513c0 .151-.016.166-.102.094-.057-.047-.103-.128-.103-.18 0-.051.046-.094.103-.094.065 0 .102.066.102.18zm1.666.528c-.107.223-.095.456.024.453.029-.001.11-.127.18-.28.083-.177.152-.253.195-.21.042.042.027.14-.043.275a.975.975 0 00-.108.35c0 .198-.037.186-.378-.121-.132-.12-.128-.445.01-.711.092-.179.12-.196.172-.104.04.073.023.19-.052.348zm-2.202-.2a.434.434 0 01.026.291c-.046.115-.055.113-.107-.023a.46.46 0 00-.13-.192c-.11-.068-.088-.242.03-.242.058 0 .139.075.18.167zm25.037-.014c-.018.048-.026 1.902-.016 4.12l.018 4.032h1.572V8.578l-.77-.02c-.578-.014-.779.003-.804.069zm7.213 4.05v4.137h1.564l.021-2 .02-1.999.192-.324a1.222 1.222 0 011.577-.486c.405.193.416.253.453 2.621l.034 2.153h1.572v-4.784l-.185-.35c-.346-.657-.964-.997-1.83-1.008-.65-.009-1.119.149-1.532.512l-.312.274-.018-1.422-.019-1.423-.768-.02-.77-.019v4.137zM3.41 8.818c.088.124.13.255.104.324-.034.088-.076.045-.178-.181a3.187 3.187 0 01-.132-.323c0-.072.072-.008.206.18zm3.21-.109c0 .055-.068.216-.153.36l-.154.26-.02-.22a.756.756 0 01.053-.358c.086-.16.275-.189.275-.042zm-.48.09c-.002.117-.22.427-.299.427-.066 0-.046-.272.03-.415.089-.164.272-.173.27-.012zm2.228.134c.167.14.303.286.303.325 0 .04.062.11.137.157.075.047.137.147.137.222 0 .185-.095.17-.203-.03a.657.657 0 00-.286-.248c-.11-.047-.214-.152-.237-.244l-.04-.161-.202.215a2.26 2.26 0 00-.275.354c-.072.134-.076.134-.167.01a.542.542 0 01-.093-.166c0-.05.547-.688.59-.688.018 0 .169.114.336.254zm2.08-.006c0 .162-.119.102-.153-.078-.027-.138-.015-.156.06-.094.052.043.093.12.093.172zm-3.185-.071c.07.183.048.262-.132.456-.321.346-.416.164-.156-.299.163-.29.224-.323.288-.157zm2.218.348c.134.254.088.311-.126.159-.162-.116-.205-.197-.205-.39V8.73l.126.163c.07.09.162.23.205.312zm-5.432-.06c.099.143.18.31.18.372 0 .165-.13.217-.183.073a1.385 1.385 0 00-.17-.287c-.13-.169-.17-.418-.067-.418.033 0 .14.117.24.26zm7.493-.126c0 .036-.073.174-.163.306-.163.24-.164.24-.263.093-.09-.136-.083-.162.079-.304.184-.163.347-.207.347-.095zm-1.504.353c0 .07-.027.128-.06.128-.11 0-.229-.201-.186-.314.035-.09.062-.095.145-.027a.316.316 0 01.101.213zm-3.445.116c-.143.276-.245.332-.245.134 0-.212.199-.496.287-.409.042.043.028.14-.042.275zm30.456 2.73c.02 2.995.024 3.065.173 3.388.249.538.534.842 1.014 1.078.372.183.54.222 1.077.25 1.062.056 1.751-.24 2.234-.958.298-.444.428-.984.398-1.657l-.022-.479-.735-.019-.735-.02v.501c0 .678-.19 1.072-.58 1.2-.515.168-1.053-.072-1.181-.527-.027-.098-.05-.823-.05-1.613v-1.435l1.657-.019 1.658-.018v-1.088l-1.657-.019-1.658-.018-.02-.803-.018-.803h-1.577l.022 3.058zM10.427 9.334c.023.06-.01.158-.07.22-.104.103-.113.095-.113-.108 0-.23.111-.298.183-.112zm-4.653.134c.049.193.007.274-.104.205-.092-.056-.097-.379-.006-.379.037 0 .087.079.11.174zm.438-.1a.61.61 0 01-.073.209c-.057.107-.094.12-.168.058-.075-.063-.078-.106-.013-.21.088-.14.254-.178.254-.058zm5.502.337c-.083.16-.092.238-.035.306.05.06.052.106.008.133-.082.05-.212-.17-.212-.357 0-.073.069-.22.153-.327.12-.154.158-.171.175-.083.012.063-.028.21-.09.328zM4.852 9.65c.064.119.055.192-.046.379-.102.19-.108.242-.033.289.06.036.073.1.037.183-.052.12-.056.12-.084.004-.02-.086-.069-.11-.16-.081-.106.033-.131.008-.131-.13 0-.094-.031-.19-.069-.214-.138-.085-.066-.185.103-.142.201.05.225-.057.064-.287-.058-.083-.087-.183-.064-.22.059-.095.284.033.383.219zm3.554-.077c.147.116.266.245.266.286 0 .04.05.129.111.196.061.068.093.17.07.228-.05.134-.18.137-.18.004 0-.056-.075-.15-.166-.21a.73.73 0 01-.24-.32l-.074-.212-.17.16c-.094.088-.17.214-.17.28 0 .167-.129.232-.182.092-.062-.16.274-.697.445-.712.013-.001.144.093.29.208zm-1.1-.016c0 .07-.062.182-.137.25-.193.174-.17.277.032.145a.867.867 0 01.205-.11c.071 0 .034.214-.073.422-.079.152-.087.224-.03.259.11.068-.092.225-.25.194-.091-.018-.123-.088-.123-.269 0-.134-.043-.295-.095-.358-.082-.098-.07-.15.095-.386.2-.289.375-.357.375-.147zm1.955-.006c.02.065.079.198.13.293.127.24.012.438-.139.24a.598.598 0 01-.101-.31c0-.099-.037-.216-.082-.26-.064-.065-.056-.083.036-.083.065 0 .135.054.156.12zm-5.385.085c.181.151.181.43 0 .465-.086.016-.105-.014-.076-.123.025-.095-.012-.19-.108-.28-.08-.075-.146-.15-.146-.167 0-.075.184-.016.33.105zm8.262.2a.85.85 0 00-.117.34c0 .182-.113.187-.17.007-.057-.178.235-.715.334-.615.048.047.033.133-.047.267zm-2.208 0c.05.17.042.236-.033.283-.155.099-.169.08-.183-.249-.016-.368.115-.389.216-.035zm1.134-.149c-.003.14-.09.36-.144.36-.07 0-.082-.298-.015-.365.062-.062.16-.058.159.005zm-5.823.268c.02.131-.158.352-.227.283-.019-.018-.014-.132.01-.252.047-.236.184-.255.217-.031zm1.34.153c-.048.3-.182.349-.22.081-.02-.137.175-.456.24-.392.014.014.005.154-.02.311zm-.37-.17c0 .148-.075.313-.143.313-.07 0-.083-.297-.016-.364.077-.077.16-.05.16.051zm3.917.251c-.068.128-.13.246-.14.262-.01.015-.036.01-.058-.013-.023-.023.008-.112.068-.198a.624.624 0 00.11-.291c0-.094.021-.113.071-.064.05.05.034.143-.051.304zm-4.518.09c.078.208.1.422.076.7-.022.237.009.64.074.986.143.762.139.938-.03 1.321-.125.282-.14.43-.12 1.274.01.524.028.954.037.954.009 0 .064-.113.121-.251.078-.186.125-.232.182-.175.057.057.048.122-.036.25-.062.094-.112.21-.111.26 0 .066.015.064.06-.008.04-.062.121-.08.239-.05.131.033.178.019.178-.055 0-.055-.03-.119-.068-.142-.112-.069-.078-.227.057-.27.14-.044.333-.354.264-.423-.025-.024-.102.027-.172.114-.077.095-.145.129-.172.085-.024-.039.002-.11.058-.156.082-.068.101-.28.1-1.084-.001-.55-.031-1.123-.067-1.273-.112-.474-.165-1.524-.08-1.626.101-.122.468-.09.629.056.238.215.3.548.199 1.08-.08.424-.076.545.033 1.065.068.323.135.828.149 1.123.022.478.013.532-.088.494-.062-.024-.139-.004-.17.044-.046.07-.069.07-.118-.007-.047-.073-.071-.058-.108.069-.027.09-.11.292-.184.451-.075.16-.123.344-.107.41.033.139.076.06.148-.271.027-.123.085-.188.169-.188.072 0 .144-.063.165-.144.064-.246.215-.103.281.268.035.195.1.354.143.354.044 0 .114.077.157.17.043.095.05.172.016.172s-.072-.052-.084-.115c-.02-.106-.032-.105-.143.007-.12.12-.369.1-.293-.023.021-.034.006-.15-.034-.256l-.074-.193-.13.17c-.072.094-.132.224-.133.29-.001.152-.128.156-.186.006-.037-.097-.051-.092-.098.034-.069.187-.18.191-.208.009-.024-.157-.158-.156-.159.002 0 .055-.053.111-.12.124-.065.013-.119-.013-.119-.057 0-.043-.058-.154-.13-.245-.12-.152-.14-.157-.24-.057-.099.1-.108.094-.108-.06 0-.093.039-.183.086-.201.058-.023.092-.222.103-.606.02-.688-.07-.914-.188-.464l-.15.575c-.038.15-.127.384-.196.52-.093.181-.106.267-.05.322.056.056.041.088-.055.118a4.762 4.762 0 00-.355.139c-.343.149-.366.13-.343-.261.02-.358.021-.36.234-.338.166.017.247-.02.359-.163.08-.101.144-.234.144-.295-.001-.09-.012-.093-.062-.014a.144.144 0 01-.165.055c-.058-.023-.118-.004-.134.04-.068.19-.116-.024-.061-.27.038-.168.034-.306-.01-.376-.05-.08-.018-.288.113-.75a5.247 5.247 0 00.187-2.076l-.053-.478.366-.388c.202-.213.367-.436.367-.496 0-.202.107-.107.218.193zm2.75-.157c.114.09.175.198.162.286-.033.226-.19.22-.278-.013-.044-.117-.098-.212-.12-.212-.055 0-.304.345-.362.501-.06.16-.21.113-.238-.073-.015-.098.058-.201.239-.336.143-.107.27-.218.283-.246.037-.084.119-.06.313.093zm-2.49.03c0 .06-.03.088-.068.065-.038-.023-.069-.071-.069-.107 0-.035.031-.064.069-.064.037 0 .068.048.068.107zm5.44.202c-.003.169-.011.307-.018.307-.111 0-.227-.114-.227-.224s.171-.39.239-.39c.007 0 .01.138.006.307zm-2.122-.167c.073.12-.01.145-.104.032-.054-.065-.06-.104-.014-.104.04 0 .093.032.118.072zm1.535.034c0 .059-.03.088-.069.064-.037-.023-.068-.07-.068-.106 0-.036.03-.064.069-.064.037 0 .068.048.068.106zm.036.55c.427.523.544 1.03.484 2.094-.038.662-.03.82.037.753.058-.059.09-.436.102-1.229.01-.63.046-1.154.081-1.166.193-.064.26.898.12 1.733l-.114.678.174.6c.205.708.205.708.061.588-.1-.083-.107-.075-.061.069.075.237-.08.118-.199-.151-.094-.214-.095-.214-.1-.038-.007.2.227.539.372.539.12 0 .211.167.273.496.056.298-.044.343-.15.068-.073-.194-.086-.184-.191.153-.018.057-.063.103-.1.103-.18 0-.756-1.163-.757-1.527 0-.081-.094-.332-.21-.558-.33-.649-.384-.934-.321-1.71.03-.375.05-.959.045-1.297-.012-.814-.007-.853.09-.684.044.075.208.293.364.485zm-6.495-.258c0 .212-.132.188-.16-.028-.015-.126.006-.171.07-.15.05.017.09.097.09.178zm5.527.029c.084.314.036 1.265-.093 1.828-.164.714-.17.99-.026 1.375.064.174.11.498.109.773-.003.42.016.488.162.603.09.071.165.189.165.261 0 .073.046.132.102.132.057 0 .103.046.103.103 0 .056-.031.102-.069.102-.037 0-.068.049-.068.108 0 .127-.138.099-.213-.044a1.427 1.427 0 01-.093-.292.845.845 0 00-.2-.353c-.096-.096-.216-.37-.303-.694l-.143-.536.023.668c.012.368.042.689.066.713.024.024.085-.012.136-.08.104-.143.22-.036.153.14a.109.109 0 00.063.14c.121.047.136.169.017.145-.046-.01-.094.052-.107.136-.013.085-.049.154-.08.154-.03 0-.074-.069-.098-.154l-.044-.153-.09.162-.092.162-.05-.162-.05-.162-.056.17c-.044.136-.057.097-.062-.188-.004-.197.021-.358.056-.358.036 0 .047-.212.025-.496-.027-.36-.007-.585.074-.822.061-.18.109-.411.106-.513l-.006-.186-.092.205c-.05.113-.114.444-.14.735-.026.292-.074.53-.106.53-.14 0-.141-.4-.003-.985.276-1.174.297-1.408.188-2.135-.102-.686-.096-.776.053-.776.047 0 .174-.092.282-.205.234-.245.346-.259.401-.051zm1.171-.029c0 .124-.134.101-.16-.027-.015-.071.01-.102.068-.083.05.017.092.066.092.11zm.854-.052c0 .04-.031.132-.07.205a.26.26 0 00.002.269c.057.106.052.136-.023.136-.242 0-.298-.346-.097-.598.084-.104.188-.111.188-.012zm-3.664.393c-.024.12-.071.217-.105.217-.112 0-.146-.21-.064-.39.108-.236.226-.114.169.173zm.794-.159c0 .057-.044.103-.097.103a.696.696 0 00-.206.042c-.078.03-.097.012-.068-.065.035-.092.132-.145.32-.174.028-.005.05.038.05.095zm16.84 0c-1.411.307-2.147 1.362-2.144 3.075.001.7.144 1.44.358 1.847.45.857 1.38 1.334 2.6 1.332.889-.002 1.528-.253 2.043-.804.286-.306.602-.85.602-1.037 0-.047-.278-.072-.778-.072h-.778l-.178.233c-.12.158-.29.27-.524.349-.535.177-1.036.04-1.389-.378-.182-.217-.412-.858-.346-.965.02-.033.958-.06 2.084-.06h2.046v-.153c0-.471-.174-1.442-.325-1.818-.345-.863-.89-1.331-1.8-1.546-.526-.124-.913-.125-1.471-.003zm5.715-.024c-.552.091-1.166.402-1.414.715-.21.265-.432.865-.432 1.167 0 .156.012.159.735.159h.735l.12-.294c.135-.328.36-.489.768-.547.82-.118 1.42.363 1.13.905-.086.16-.483.317-.959.378-.668.086-1.554.298-1.822.436-.535.275-.827.736-.89 1.404-.079.852.256 1.53.882 1.784.384.156 1.37.213 1.818.106.192-.046.515-.184.72-.307l.371-.224.061.213.061.212.736.02.737.02-.021-2.344c-.02-2.278-.026-2.353-.179-2.684-.29-.629-.697-.92-1.531-1.09a4.167 4.167 0 00-1.626-.029zm-25.462.52c-.026.291-.07.555-.099.585-.028.03-.072-.126-.097-.348-.047-.414.03-.767.168-.767.053 0 .062.159.028.53zm4.136.05c.002.568-.198 1.88-.318 2.086-.09.155-.095.115-.062-.444.02-.339.068-.723.107-.854.038-.132.069-.473.069-.758 0-.285.021-.54.047-.565.09-.091.156.132.157.535zm-2.604.331c0 .656-.113 1.6-.198 1.653-.071.044-.23-1.62-.185-1.95.046-.344.166-.51.294-.404.062.052.09.267.09.701zm3.73-.71c.021.035.008.083-.03.106-.039.024-.07-.005-.07-.063 0-.12.041-.138.1-.043zm-6.773.363c.054.202.043.927-.018 1.145-.04.146-.054.153-.094.05-.077-.201-.138-.984-.091-1.172.054-.218.148-.228.203-.023zm4.352.2c.143.595.067 1.492-.127 1.492-.127 0-.304-1.589-.195-1.76.115-.181.24-.078.322.267zm-.567.142c.037.047.086.424.109.837.022.414.088.906.145 1.094.133.436.134.995.003 1.309-.13.31-.129.484.003.737.128.245.086.379-.12.385-.148.004-.15.007-.02.06.241.1.75.243.803.225.028-.009.052.012.052.046 0 .035.129.165.287.29.199.158.272.19.24.105-.042-.11-.012-.12.274-.102.302.02.324.034.366.243.067.326-.022.668-.168.656-.08-.007-.107.023-.082.09.022.056.04.19.04.3 0 .147.025.187.102.157.076-.029.104.012.107.156.009.368.056.583.162.746.139.21.135.291-.029.616-.203.404-.306.508-.5.508-.097 0-.195.03-.219.068-.042.07.042.094.25.073.135-.013.222.102.157.207-.031.05-.069.052-.115.005-.047-.047-.11-.045-.195.008-.147.092-.187.064-.222-.16-.02-.127-.068-.167-.2-.167-.096 0-.198-.023-.227-.051-.028-.028-.006-.051.05-.051.055 0 .174-.1.264-.222l.163-.223-.236.178c-.916.691-2.127.63-2.822-.14-.364-.404-.59-.916-.59-1.336 0-.34.123-.85.273-1.13.248-.464 1-1.023 1.374-1.023.145 0 .146-.005.027-.136-.085-.094-.147-.346-.204-.837-.071-.606-.093-.678-.158-.53-.065.149-.074.124-.07-.206.002-.303.013-.336.052-.17.034.138.063.171.09.102.083-.21.19-1.492.174-2.073-.013-.467.005-.615.083-.664.145-.091.448-.08.527.02zm-2.818.205c-.015.047-.075.408-.133.803a10.58 10.58 0 01-.174.957c-.171.584-.035.515.2-.103.108-.282.167-.618.192-1.076.031-.595-.002-.826-.085-.581zm21.597.277c.286.162.532.53.614.92l.046.221h-1.235c-1.352 0-1.305.018-1.157-.417.262-.774 1.057-1.106 1.732-.724zm-20.92 2.215c.045.254.03.309-.122.462-.204.204-.426.238-.351.053.113-.278.162-.495.247-1.076l.09-.615.043.444c.023.244.065.574.093.732zm4.125.208c.036.528-.04.648-.188.294-.09-.22-.107-.41-.078-.926l.02-.342.106.239c.058.132.121.462.14.735zm22.98-.274c-.007.983-.559 1.59-1.447 1.59-.55 0-.74-.165-.74-.643 0-.285.032-.388.154-.5.24-.219.521-.337 1.077-.451a5.99 5.99 0 00.683-.175c.26-.104.274-.096.272.18zm-22.65.276c.03.143.018.22-.032.22-.043 0-.077-.075-.077-.165 0-.091-.02-.222-.044-.29-.032-.091-.023-.107.032-.056.043.04.097.17.122.29zm-1.845.677c-.13.239-.15.048-.024-.228.061-.134.09-.156.106-.075.012.061-.025.198-.082.303zM9.97 14.9c0 .037-.014.068-.03.068-.017 0-.05-.03-.073-.068-.023-.038-.01-.068.03-.068s.073.03.073.068zm.665.041c-.023.023-.082.025-.131.006-.055-.022-.038-.038.041-.042.072-.003.113.014.09.036zm.155.233c0 .12-.017.127-.136.052-.076-.047-.137-.109-.137-.138 0-.028.061-.051.136-.051.092 0 .137.045.137.137zm-7.316.416c-.045.11-.124.198-.175.198-.07 0-.06-.055.042-.222.074-.122.14-.283.145-.359.008-.112.015-.108.04.024a.76.76 0 01-.052.359zm6.997-.263a.988.988 0 00.206.316c.141.117.148.223.01.17-.066-.025-.102.002-.102.079 0 .2-.182-.007-.228-.258a4.583 4.583 0 00-.085-.375c-.07-.241.093-.185.2.068zm2.209.042c.023.099.09.234.147.3.129.149.057.24-.092.117-.137-.114-.38-.583-.329-.634.079-.078.232.043.274.217zm-8.656-.16c0 .068-.198.511-.228.511-.066 0-.09-.254-.038-.395.048-.13.266-.223.266-.115zm8.336.165c.085.16.093.414.013.414-.087 0-.262-.218-.315-.393-.038-.124-.02-.153.092-.153.076 0 .17.06.21.132zm-1.364.28c.04.075.055.167.033.204-.078.125-.155.068-.185-.138-.035-.235.043-.27.152-.067zm-4.123.216c-.022.054-.038.038-.042-.042-.003-.072.014-.112.036-.09.023.023.025.082.006.132zm-3.123.055c0 .075-.027.137-.06.137s-.077-.062-.096-.137c-.023-.089-.002-.137.06-.137.053 0 .096.062.096.137zm-.41.167c0 .017-.03.05-.068.072-.038.024-.068.01-.068-.03s.03-.072.068-.072c.037 0 .068.013.068.03zm2.323.055c-.002.16-.12.277-.234.233-.09-.034-.098-.07-.039-.18.081-.152.275-.189.273-.053zm.48-.046c0 .11-.155.303-.242.303-.1 0-.14-.212-.055-.297.056-.055.296-.06.296-.006zm.41.019c0 .031-.059.11-.13.175-.142.128-.255.046-.186-.134.04-.104.316-.14.316-.041zm.273.04c0 .11-.124.21-.184.15-.056-.055.032-.248.114-.248.038 0 .07.044.07.098zm.273.038c-.04.076-.102.137-.139.137-.096 0-.08-.188.02-.228.164-.066.192-.044.12.091zm2.563-.024c.079.078.09.133.04.184-.052.051-.103.033-.174-.06-.182-.241-.078-.337.134-.124zm.38.032c.113.21-.041.354-.18.167a.494.494 0 01-.097-.222c0-.142.192-.104.277.055zm.46.118c.014.044-.03.08-.1.08-.132 0-.318-.229-.245-.301.052-.052.309.112.345.221zm-5.698-.033c-.024.062-.09.113-.149.113-.09 0-.086-.022.018-.137.14-.155.196-.144.131.024zm.423-.053a.699.699 0 00-.041.137c0 .016-.047.029-.103.029-.123 0-.132-.08-.02-.192.116-.117.213-.101.164.026zm5.56-.008c.133.159.013.272-.14.133-.072-.064-.13-.143-.13-.175 0-.094.181-.066.27.042zm.41 0c.133.159.013.272-.14.133-.072-.064-.13-.143-.13-.175 0-.094.181-.066.27.042zm.345.113c0 .07-.03.129-.066.129-.082 0-.217-.241-.164-.294.074-.075.23.037.23.165zm-7.472.005c-.021.055-.038.038-.04-.041-.004-.072.012-.113.035-.09.023.023.025.082.005.131zm.364-.013c-.04.075-.088.137-.105.137-.018 0-.032-.062-.032-.137 0-.077.046-.137.105-.137.084 0 .09.028.032.137zm7.435.074c.018.16.015.161-.086.033-.126-.16-.135-.265-.019-.227.047.016.094.103.105.194zm-4.36-.004c-1.447.672-1.467 2.72-.034 3.39.39.182 1.138.172 1.504-.02.912-.481 1.293-1.691.807-2.563-.145-.26-.318-.442-.608-.637-.362-.245-.454-.275-.883-.293-.37-.015-.547.013-.786.123zm4.716-.036c0 .057-.027.103-.06.103-.034 0-.08-.046-.1-.103-.025-.062-.001-.102.06-.102.055 0 .1.046.1.102zm.33.03c.017.052-.01.077-.06.06a.214.214 0 01-.12-.12c-.017-.05.009-.076.06-.06.05.017.103.071.12.12zm.286.005c0 .037-.014.068-.03.068-.017 0-.05-.03-.073-.068-.023-.038-.01-.069.03-.069s.073.031.073.069zm-4.724.512c.003.56-.087.685-.159.222a1.668 1.668 0 00-.142-.461c-.091-.16-.097-.162-.1-.026 0 .08.04.25.092.377.228.562.183.635-.103.164-.159-.261-.301-.437-.317-.391-.015.046.071.238.192.427.121.188.208.355.194.37-.042.041-.743-.649-.743-.732 0-.041.019-.056.041-.034.023.023.107-.019.187-.093.118-.11.607-.31.81-.33.025-.003.047.225.048.507zm.64-.406c.103.023.188.051.188.063 0 .012-.108.213-.24.446-.131.233-.239.456-.239.496 0 .04-.017.056-.038.035-.02-.02.012-.23.073-.465.07-.272.087-.45.045-.492-.042-.042-.082.031-.11.202a3.852 3.852 0 01-.142.537c-.095.267-.095.265-.098-.332l-.003-.6.188.035c.103.018.272.052.376.075zm-4.686.254c.098.088.19.314.268.656.066.287.14.546.164.576.079.093 1.187.116 1.245.026.028-.044.051-.236.052-.427 0-.287.036-.386.205-.576.113-.126.225-.209.25-.185.024.025.01.085-.031.135s-.096.3-.123.559c-.05.494-.185.721-.429.721-.221 0-.279.143-.176.441.154.447-.056.567-.54.307-.206-.11-.281-.123-.36-.058-.078.066-.149.04-.357-.127l-.26-.208-.063.216a.474.474 0 01-.285.313c-.172.075-.222.14-.222.282 0 .101.046.223.102.27.123.1.134.204.023.204-.301 0-.445-.57-.202-.8.146-.138.2-.462.228-1.338.014-.443.046-.617.121-.664.077-.047.083-.082.023-.142-.133-.133-.227-.002-.227.317 0 .224-.027.303-.103.303-.129 0-.128-.06.007-.523.075-.26.153-.39.256-.43.164-.062.217-.044.434.152zm1.593-.155c.086.046.143.046.17 0 .024-.038.087-.069.142-.069.168 0 .108.223-.124.462-.198.204-.222.271-.218.607.003.372 0 .377-.171.332a4.822 4.822 0 00-.431-.08c-.148-.021-.256-.075-.256-.126a.146.146 0 00-.086-.124c-.047-.02-.008-.038.086-.041.127-.005.146-.022.074-.068a.24.24 0 00-.188-.025c-.057.022-.092-.015-.092-.099 0-.073-.049-.231-.108-.351-.064-.128-.088-.267-.058-.335.046-.107.054-.106.081.012.025.104.043.11.092.034.052-.08.072-.08.13.007.058.09.067.09.068-.005 0-.083.072-.107.315-.103.172.003.328-.017.345-.046.042-.067.076-.064.23.018zm5.108.085c-.012.113.024.16.138.175.119.018.154-.011.154-.125 0-.22.155-.127.222.133.093.358.039.645-.137.722-.108.047-.156.13-.16.273-.018.538-.272.782-.304.292-.01-.141.01-.24.044-.218.034.02.061.005.061-.035s-.043-.072-.095-.072c-.17 0-.215-.762-.073-1.213.047-.148.167-.093.15.068zm-1.492.1c.015.01-.13.186-.325.39-.193.206-.352.356-.352.335 0-.02.074-.18.164-.354.09-.175.183-.374.206-.444.036-.11.059-.115.16-.037l.147.11zm1.715-.083c0 .056-.03.103-.068.103-.038 0-.069-.047-.069-.103 0-.056.031-.102.069-.102.037 0 .068.046.068.102zm.783.042c.036.033.114.06.175.06.188 0 .355.172.38.392.014.116.03.237.035.269.042.236-.017.404-.143.404-.112 0-.136-.046-.136-.259 0-.213-.024-.259-.137-.259-.075 0-.137-.03-.137-.068 0-.038-.078-.068-.175-.068-.132 0-.17-.031-.154-.126a.337.337 0 00-.07-.237c-.182-.22.14-.316.362-.108zm-1.797.27c.04.114.086.195.101.18.034-.034-.095-.39-.14-.39-.019 0 0 .095.04.21zm-.421.145c0 .03-.1.1-.222.158-.122.057-.33.171-.462.254-.217.137-.204.112.137-.266.328-.364.387-.404.461-.309.048.06.086.133.086.163zm3.349.071c0 .155.023.258.051.23a.236.236 0 00.06-.114c.037-.27.052-.253.097.108.075.608.077 1.826.002 1.78-.035-.021-.084.025-.109.104-.043.135-.052.136-.173.026-.096-.087-.112-.147-.063-.24.109-.202.076-.592-.07-.831-.102-.167-.135-.337-.13-.668.005-.394.013-.42.07-.222.102.355.19.257.147-.165-.03-.283-.019-.373.039-.337.043.026.079.175.079.33zm.435-.135c.097.54.125 1.166.071 1.6l-.057.468-.044-.889c-.024-.489-.066-1.004-.095-1.145-.032-.16-.026-.256.016-.256.038 0 .087.1.109.222zm38.434-.11c-.026.026-.047.365-.047.754v.706h1.508l-.02-.735-.019-.735-.687-.019c-.378-.01-.708.002-.735.029zm-44.46.366c.186.188.283.317.214.287-.72-.317-.774-.357-.688-.494.046-.074.094-.134.108-.134.014 0 .178.153.365.341zm4.69-.295c.049.02.108.018.13-.005.023-.023-.017-.039-.09-.036-.079.003-.095.02-.04.041zm-1.187.095c-.024.04.012.115.082.166.134.099.2.03.135-.139-.045-.117-.152-.13-.216-.027zm1.131.064c0 .037.064.068.14.068.078 0 .123-.03.1-.068-.024-.038-.087-.069-.141-.069-.055 0-.099.031-.099.069zm23.134.015c-.018.048-.026 1.856-.016 4.017l.018 3.93h1.572l.034-1.948c.038-2.159.066-2.303.504-2.615.177-.126.305-.153.742-.153.477 0 .545.017.705.178.098.097.205.297.24.444.033.147.062 1.136.063 2.198l.002 1.93h1.572l-.003-2.306c-.003-1.748-.026-2.37-.095-2.564-.154-.433-.42-.712-.91-.952-.417-.206-.516-.226-1.077-.226-.563 0-.66.02-1.083.228-.255.126-.48.272-.5.325-.112.29-.159-.039-.175-1.22l-.019-1.315-.77-.02c-.578-.014-.779.003-.804.069zm-25.36.167c.047.123-.063.225-.243.227-.061 0-.222.047-.357.103-.374.157-.386.121-.034-.1.175-.11.338-.232.363-.272.068-.11.222-.086.27.042zm-2.615.2c.293.2.326.238.168.202-.49-.111-.59-.12-.59-.05 0 .04.14.093.309.119.33.05.487.167.225.168-.087 0-.277.02-.423.044l-.266.044.05-.335c.048-.32.085-.438.138-.438.013 0 .188.111.389.247zm4.75-.07a.188.188 0 01-.037.184c-.042.043-.077.158-.077.257 0 .098-.051.346-.114.55a3.802 3.802 0 00-.136.61c-.07.789-.133.949-.329.84-.089-.05-.089-.08.001-.254.092-.176.091-.228-.009-.489-.075-.196-.142-.28-.206-.255-.057.022-.095-.008-.095-.073 0-.06-.031-.11-.069-.11-.113 0-.077-.128.079-.284.135-.135.154-.137.23-.034.095.13.204.155.126.029-.029-.046-.063-.204-.077-.351-.021-.227.01-.302.198-.497.239-.247.448-.297.515-.123zm-7.856.209c.017.113.09.242.161.287.19.118.173-.038-.03-.291l-.16-.2.03.204zm26.074 2.913l.02 3.093.192.391c.722 1.471 3.113 1.626 3.977.258.276-.437.383-.978.424-2.136l.038-1.076h-1.436l-.032 1.008c-.044 1.417-.203 1.726-.888 1.726-.263 0-.368-.038-.549-.2l-.223-.199-.021-1.61-.022-1.611 1.56-.018 1.559-.019.02-.564.02-.564h-3.15v-1.572H30.06l.02 3.093zm23.976-.16c0 2.752.008 2.958.138 3.38.39 1.264 2.045 1.858 3.351 1.202.82-.412 1.158-1.287 1.158-3.003v-.894l-.7.02-.7.02-.043 1.024c-.046 1.117-.093 1.31-.372 1.53-.25.196-.763.2-1.01.005-.27-.213-.318-.523-.318-2.063v-1.417l1.554-.018 1.555-.019.02-.564.02-.564h-3.15v-1.572H54.056v2.932zM9.843 17.735c.04.476.019.65-.077.65a3.76 3.76 0 01-.547-.132l-.444-.131.5-.006c.614-.006.607-.139-.009-.148l-.423-.006.376-.1c.207-.057.405-.13.441-.166.096-.093.173-.077.183.04zm3.869.665c-.014.16-.027.046-.027-.255 0-.3.012-.432.026-.292.015.14.015.386 0 .547zm-5.173-.42c.058.109.05.178-.034.307-.206.314-.684.156-.642-.212.044-.38.49-.442.676-.094zm-5.21.117c.016.168-.018.257-.137.354-.103.084-.182.106-.226.063-.045-.044-.033-.088.033-.13.081-.05.085-.08.017-.147a.4.4 0 01-.085-.246c0-.137.03-.159.188-.14.157.017.192.058.21.246zm4.862-.199a.328.328 0 01.216.216c.04.143.048.147.053.028a.272.272 0 00-.297-.297c-.119.006-.115.014.028.053zm-.265.185c.003.08.02.096.041.041.02-.05.018-.108-.005-.13-.023-.024-.039.017-.036.089zm4.423.072c.167.045.356.342.356.561 0 .073-.112.298-.248.5-.137.2-.27.44-.294.531-.026.092-.083.179-.128.194-.142.047-.09-.2.123-.576.113-.2.205-.38.205-.402 0-.022-.143-.018-.318.008-.31.046-.317.044-.274-.116.024-.09.044-.264.044-.387.001-.168.04-.24.155-.286.193-.078.19-.078.379-.027zm-4.975.079c0 .045-.7.3-.726.264a1.75 1.75 0 01-.056-.165c-.046-.147-.031-.153.367-.153.228 0 .415.024.415.054zm2.886.219c0 .132.014.185.031.12a.56.56 0 000-.24c-.017-.065-.03-.011-.03.12zm-4.154.119c.07.293.314.778.527 1.053.236.303.239.332.03.332-.127 0-.199-.069-.308-.295-.079-.163-.143-.347-.143-.41 0-.064-.023-.117-.051-.118-.135-.006-.418-.328-.459-.522-.04-.19-.026-.22.113-.243.212-.034.238-.017.29.203zm2.075-.209c.05.02.108.017.131-.005.023-.023-.018-.04-.09-.036-.08.003-.095.02-.04.041zm1.293.068c.345.04.357.048.315.22-.057.241-.072.25-.21.129a3.51 3.51 0 00-.462-.291c-.188-.103-.265-.167-.171-.143.094.024.332.062.528.085zm-1.964-.014c0 .042-.76.529-.785.501a.993.993 0 01-.065-.175c-.04-.128-.02-.154.111-.159.087-.002.266-.046.398-.097.265-.102.341-.118.341-.07zm-.105.463c-.181.197-.338.37-.348.384-.01.014-.07-.026-.132-.088-.063-.063-.095-.134-.071-.157.048-.049.813-.492.854-.496.014 0-.122.16-.303.357zm-4.154-.14c-.022.054-.038.038-.041-.042-.003-.072.013-.113.036-.09.022.023.025.082.005.131zm6.098.51c.039.03-.137.228-.202.228-.03 0-.098-.084-.151-.188a11.42 11.42 0 00-.258-.461l-.161-.273.372.337c.205.185.385.346.4.357zm-.042-.49c.354.15.36.16.236.332-.078.106-.114.088-.393-.2-.169-.176-.275-.308-.236-.294.039.014.216.087.393.163zm-1.113.47v.571l-.359-.065a2.768 2.768 0 01-.378-.084c-.01-.01.09-.184.224-.387l.243-.368-.045.393c-.025.216-.029.393-.008.393.02 0 .092-.23.159-.512.066-.282.13-.513.142-.513.012 0 .022.257.022.572zm.818.328c.002.047-.336.17-.572.207-.116.019-.13-.026-.13-.44-.002-.543.054-.657.118-.243.025.162.09.37.143.465l.097.17.002-.179a1.747 1.747 0 00-.1-.47 2.703 2.703 0 01-.103-.332c0-.055.543.764.545.822zm-1.446-.379c-.085.184-.16.343-.167.355-.007.012-.076-.018-.154-.067-.139-.086-.135-.095.143-.379.157-.16.296-.28.31-.266.013.014-.046.174-.132.357zm-4.361-.11c0 .037-.031.067-.069.067a.069.069 0 01-.068-.068c0-.037.03-.068.068-.068.038 0 .069.03.069.068zm6.809.036a.578.578 0 00-.039.19c.003.045.034.007.07-.083.036-.09.053-.176.038-.19-.014-.016-.046.022-.07.083zm33.174-.007c-1.102.306-1.81 1.182-1.989 2.458-.162 1.162.14 2.231.824 2.915.425.424.904.652 1.585.753 1.948.29 3.408-1.017 3.408-3.051 0-1.585-.712-2.688-1.978-3.063-.44-.13-1.402-.137-1.85-.012zm6.965.006a2.12 2.12 0 00-.625.373c-.172.151-.33.275-.353.275-.022 0-.04-.139-.04-.308v-.308h-1.436v2.974c0 3.282-.037 2.99.376 2.99l.61-.009.506-.008.023-1.794c.023-1.768.026-1.799.194-2.096.225-.398.57-.576 1.159-.597l.447-.016v-1.546l-.273-.014c-.15-.008-.415.03-.587.084zm-44.047.34c.261.32.294.529.088.568-.086.017-.119-.022-.119-.138 0-.09-.09-.268-.202-.398-.227-.265-.251-.34-.114-.34.052 0 .208.14.347.308zm4.89-.158c0 .178-.26.739-.344.739-.13 0-.13-.144 0-.389.077-.142.14-.313.14-.379s.045-.12.102-.12c.06 0 .102.062.102.149zm13.139 2.123c.027 2.535.045 2.65.506 3.188.355.415.769.632 1.28.673.642.052 1.128-.112 1.555-.524.359-.346.385-.34.417.082.01.142.042.257.07.256l.701-.001h.65v-5.947H27.81l-.002 1.795c0 .987-.032 1.927-.07 2.089-.133.577-.53.902-1.1.9-.378-.001-.595-.112-.791-.403-.154-.228-.156-.26-.156-2.306v-2.075h-1.58l.024 2.273zm27.597.7v2.974H53.235v-5.947H51.732v2.974zm7.669-.666c.023 2.604.032 2.657.573 3.18.45.435.788.562 1.497.562.678 0 .914-.084 1.316-.465l.222-.21v.46c0 .689-.107 1.027-.414 1.304-.675.61-1.624.3-1.77-.576l-.04-.24-.709-.019-.71-.02.045.424c.117 1.121.894 1.91 2.089 2.12 1.093.193 2.319-.408 2.79-1.367l.189-.386.02-3.537.02-3.537h-1.502l-.021 2.046c-.02 1.942-.028 2.055-.162 2.234-.28.375-.48.47-.986.47-.394 0-.495-.024-.634-.155-.29-.272-.324-.55-.324-2.637v-1.957h-1.51l.02 2.306zM4.337 19.31c.154.012.319-.003.366-.032.114-.07.816.207.858.34.05.153-.062.719-.138.702-.037-.008-.076-.077-.088-.153-.03-.19-.329-.192-.389-.003-.063.2-.164.166-.15-.052.01-.145-.015-.185-.113-.177-.098.008-.119-.026-.095-.154.018-.09.005-.164-.027-.164s-.059.077-.059.17c0 .107-.039.172-.102.172a.1.1 0 00-.103.098.186.186 0 01-.074.144c-.047.03-.065-.013-.051-.115.018-.126-.013-.166-.14-.184-.088-.013-.176-.082-.195-.154-.019-.072-.061-.131-.095-.131-.09 0-.073-.233.023-.33a.189.189 0 01.188-.04c.058.023.23.052.384.063zm7.653.085a.55.55 0 01-.144.264.279.279 0 00-.099.193c0 .065-.038.105-.085.09-.078-.026-.086-.093-.06-.479.005-.066.055-.12.11-.12.057 0 .103-.03.103-.068 0-.037.05-.068.11-.068.086 0 .1.042.065.188zm.67.33c-.084.355-.234.395-.186.05.056-.4.086-.466.172-.38.05.05.054.16.013.33zm-6.758-.11c.046.144-.075.436-.16.384-.068-.042-.011-.519.062-.519.03 0 .075.06.098.134zm6.439.151c-.022.055-.039.039-.042-.04-.003-.073.013-.113.036-.09.023.022.025.081.005.13zm-7.798.516c-.069.07-.126-.035-.07-.127.044-.07.06-.07.083 0 .016.047.01.104-.013.127zm1.555-.014c-.05.129-.229.132-.229.004 0-.1.133-.18.22-.131.026.015.03.072.009.127zm.385-.087c-.002.144-.116.276-.196.227-.102-.064-.097-.225.01-.267.143-.059.187-.05.186.04zm4.336-.044c.123.047.143.202.035.269-.08.05-.276-.176-.225-.259.04-.062.052-.063.19-.01zm.381.137c0 .052-.03.095-.068.095-.038 0-.068-.013-.068-.029a.705.705 0 00-.042-.137c-.03-.08-.012-.098.068-.067.06.023.11.085.11.138zm.302.035c-.054.087-.165.004-.165-.123 0-.087.019-.092.102-.023.056.047.084.112.063.146zm.275-.07c-.06.097-.167.072-.167-.039 0-.06.04-.085.102-.061.057.021.086.067.065.1zm-6.523-.007c0 .038-.046.068-.103.068-.056 0-.102-.03-.102-.068 0-.038.046-.068.102-.068.057 0 .103.03.103.068zm.534.005c-.014.04-.054.074-.09.074s-.076-.033-.09-.074c-.013-.04.028-.073.09-.073.063 0 .103.033.09.073zm1.106-.013c0 .033-.047.099-.105.147-.082.068-.124.07-.187.006-.064-.064-.06-.097.02-.147.128-.081.272-.085.272-.006zm.274.076c0 .076-.046.137-.103.137-.104 0-.14-.144-.057-.228.087-.086.16-.045.16.091zm.564-.02c.126.07.03.143-.189.143-.246 0-.347-.07-.273-.191.038-.06.32-.031.462.048zm1.418-.048c.048-.077.077-.078.165-.005.166.138.08.184-.364.197a8.795 8.795 0 00-.464.02c-.141.024-.23-.014-.189-.08.025-.04.087-.057.139-.037.051.02.112.005.135-.032.024-.038.101-.05.173-.027.08.025.131.01.131-.04 0-.06.03-.057.108.008.09.074.118.073.166-.004zm.47-.007c.052.033.073.094.047.136-.072.117-.156.09-.195-.06-.039-.149 0-.169.148-.076zm.931.007c.023.038.021.102-.005.144-.046.074-.162-.04-.165-.161-.001-.075.12-.063.17.017zm1.675-.038c0 .016-.031.049-.069.072-.037.023-.068.01-.068-.03s.03-.072.068-.072c.038 0 .069.013.069.03zm-4.067.175c.023.037-.021.068-.099.068-.077 0-.14-.03-.14-.068 0-.038.044-.069.098-.069.054 0 .118.031.14.069zm36.6.123c.498.243.708.8.673 1.786-.028.776-.188 1.174-.582 1.44-.214.145-.33.17-.775.17-.471 0-.548-.019-.782-.197-.398-.304-.539-.693-.545-1.511-.004-.506.027-.767.119-1.005.138-.357.497-.714.783-.777.102-.023.217-.053.255-.067.127-.048.614.043.853.16zm-39.37.547c.001.05-.03.07-.067.047-.037-.023-.068-.11-.067-.192 0-.121.013-.13.067-.047a.443.443 0 01.068.192zm.412-.051c0 .143-.1.178-.173.061-.062-.1.02-.288.104-.236.038.023.069.102.069.175zm.384.033c-.036.094-.063.1-.147.03-.08-.066-.084-.107-.022-.182.102-.123.23-.008.169.152zm2.885-.177c.05.002.078.042.063.089-.017.05-.165.09-.365.096a4.768 4.768 0 00-.404.024c-.176.035-.352.03-.453-.015-.06-.027-.131-.028-.157-.003-.076.077-.548.073-.598-.005-.031-.048-.08-.043-.15.015-.118.098-.248.048-.248-.095 0-.051.069-.103.153-.115.12-.017 1.644-.01 2.16.009zm.341.094c.013.068-.022.114-.085.114-.064 0-.108-.058-.108-.142 0-.167.16-.143.193.028zm.342 0c.013.068-.022.114-.086.114-.063 0-.107-.058-.107-.142 0-.167.16-.143.193.028zm.354-.022c0 .141-.165.188-.24.068-.057-.093.02-.205.141-.205.054 0 .099.061.099.137zm.41-.039c0 .14-.142.21-.208.102-.031-.05-.041-.116-.023-.146.057-.093.23-.06.23.044zm.329.021c-.028.145-.15.136-.18-.013-.013-.062.024-.106.09-.106.07 0 .104.045.09.12zm.47.03c-.023.055-.039.039-.042-.04-.003-.073.013-.113.036-.09.023.022.025.081.005.13zm-6.308.027c.025.067.01.098-.04.082-.102-.034-.159-.19-.069-.19.037 0 .086.049.109.108zm1.6.012c-.013.066-.068.12-.124.12-.055 0-.11-.054-.123-.12-.017-.084.02-.12.123-.12s.14.036.124.12zm-1.73 1.04c-.094.154.105.344.361.346.212.003.286.045.447.257l.193.253-2.687.035c-2.449.03-2.688.044-2.709.15-.017.088.037.12.239.136.236.02.262.041.281.235.018.18-.007.22-.154.258-.273.068-.225.339.169.946.237.367.385.53.478.53.178 0 .172-.036-.06-.332-.34-.433-.38-.549-.242-.7.082-.09.142-.11.19-.063.038.038.187.07.33.07h.26v.43c0 .423.072.595.25.595.066 0 .092-.24.106-.974l.02-.974h.751c.7 0 .753.01.77.137.009.075-.011.18-.046.233-.053.083-.077.082-.165-.006-.072-.072-.214-.098-.467-.084-.65.034-.734.351-.328 1.241.107.235.228.427.269.427.15 0 .139-.19-.03-.484-.199-.348-.232-.777-.066-.841.238-.092.361-.038.485.213.175.357.508.539.814.445l.233-.072v.288c0 .265.09.451.217.451.03 0 .062-.438.072-.974l.02-.974h.272c.269 0 .274.005.296.264.016.199-.014.297-.122.397-.078.074-.122.17-.096.215.187.331.462.423.539.18.036-.114.092-.137.295-.12l.25.021.02.421c.02.388.15.663.262.55.021-.02.035-.452.03-.958-.007-.788.007-.925.102-.962.06-.023.37-.042.686-.042h.575v.216c0 .207-.005.211-.13.098-.11-.1-.172-.107-.41-.042-.515.138-.62.6-.225.994.159.16.22.178.474.143l.29-.04v.225c0 .233.102.388.252.388.065 0 .092-.24.106-.974.018-.951.022-.974.173-.996.098-.014.153-.069.153-.153 0-.126-.06-.132-1.256-.132H6.16l-.285-.438c-.162-.247-.35-.454-.435-.477-.232-.062-.514-.05-.56.025zm9.228 0c-.095.154.104.344.36.346.212.003.287.045.447.257l.193.253-2.516.035c-2.326.031-2.517.043-2.539.153-.02.109.052.12.768.12h.791v.17c0 .167-.013.172-.478.172h-.478l.139.14c.29.29.307.68.028.68-.125 0-.374-.335-.42-.562-.04-.198-.226-.268-.226-.085 0 .17.2.599.357.766.17.18.538.209.668.052.047-.057.083-.242.08-.41-.006-.283.007-.308.162-.308.166 0 .168.008.168.607 0 .463.025.627.106.694.187.155.231-.016.251-.96l.02-.922.299-.021c.165-.012.33.009.368.046.117.117-.006.414-.19.46-.226.057-.224.295.003.564.199.237.476.32.738.22.18-.068.182-.066.182.223 0 .271.09.456.22.456.03 0 .054-.427.054-.95 0-.802.016-.955.108-.99.06-.023.385-.042.722-.042.59 0 .614.006.593.147-.02.13-.074.15-.466.176-.49.03-.615.12-.615.439 0 .361.416 1.084.624 1.084.17 0 .165-.017-.112-.42-.385-.56-.307-.81.253-.81h.328v.512c0 .282-.005.52-.011.53-.039.056.17.324.253.324.083 0 .1-.166.1-.99v-.992h.17c.126 0 .172-.036.172-.137 0-.103-.046-.137-.188-.138-.154-.001-.243-.081-.486-.438-.163-.24-.363-.454-.444-.476-.228-.061-.51-.048-.556.026zm7.62.805c0 .677-.132.915-.634 1.148-.343.16-.803.215-1.038.125-.144-.055-.31-.381-.31-.61 0-.35.192-.623.547-.776.183-.079.404-.144.49-.146.088-.002.313-.06.5-.13.189-.071.365-.131.394-.134.028-.004.05.232.05.523zm-19.753.66c0 .325-.062.383-.415.383-.194 0-.2-.01-.2-.342v-.342h.615v.3zm2.584.12c.017.337 0 .4-.135.496a.668.668 0 01-.328.107c-.201-.001-.419-.129-.302-.177.24-.1.327-.232.34-.514.008-.164.018-.308.022-.32.003-.012.09-.012.194 0 .178.02.19.043.209.408zm1.777-.058l.021.329-.294-.021c-.279-.02-.296-.034-.316-.25-.035-.36.02-.432.312-.408.255.021.257.024.277.35zm7.04.058c.017.337 0 .4-.135.496a.669.669 0 01-.328.107c-.201-.001-.419-.129-.302-.177.24-.1.327-.232.34-.514.008-.164.018-.308.022-.32.003-.012.09-.012.194 0 .178.02.19.043.208.408zm-5.386.323c0 .344-.53.567-.68.286-.14-.26.076-.47.492-.479.163-.004.188.022.188.193z"
                  fillRule="evenodd"
                />
              </svg>