<svg width="644" height="546" viewBox="0 0 644 546" fill="none" xmlns="http://www.w3.org/2000/svg">
<g filter="url(#filter0_bd_508_6338)">
<rect x="28" y="28" width="588" height="490.22" rx="27" fill="white"/>
</g>
<path d="M281.778 300.11C273.427 300.11 266.529 297.335 261.085 291.785C255.641 286.236 252.919 279.391 252.919 271.251C252.919 263.059 255.641 256.214 261.085 250.717C266.529 245.167 273.427 242.393 281.778 242.393C286.799 242.393 291.424 243.582 295.652 245.96C299.933 248.286 303.263 251.457 305.642 255.474L296.207 260.945C294.833 258.46 292.877 256.531 290.34 255.157C287.803 253.73 284.949 253.016 281.778 253.016C276.387 253.016 272.026 254.708 268.696 258.09C265.419 261.473 263.781 265.86 263.781 271.251C263.781 276.59 265.419 280.95 268.696 284.333C272.026 287.716 276.387 289.407 281.778 289.407C284.949 289.407 287.803 288.72 290.34 287.346C292.93 285.918 294.886 283.989 296.207 281.558L305.642 287.028C303.263 291.045 299.96 294.243 295.731 296.622C291.503 298.947 286.852 300.11 281.778 300.11ZM308.542 299V241.124H318.77V299H308.542ZM329.24 254.602C327.549 254.602 326.069 253.994 324.801 252.779C323.585 251.51 322.977 250.03 322.977 248.339C322.977 246.647 323.585 245.167 324.801 243.899C326.069 242.63 327.549 241.996 329.24 241.996C330.985 241.996 332.465 242.63 333.68 243.899C334.949 245.167 335.583 246.647 335.583 248.339C335.583 250.03 334.949 251.51 333.68 252.779C332.465 253.994 330.985 254.602 329.24 254.602ZM324.166 299V259.359H334.394V299H324.166ZM361.831 258.249C366.165 258.249 369.733 259.703 372.534 262.61C375.388 265.517 376.815 269.534 376.815 274.66V299H366.588V275.929C366.588 273.286 365.874 271.278 364.447 269.903C363.02 268.476 361.117 267.763 358.739 267.763C356.096 267.763 353.982 268.582 352.396 270.221C350.811 271.859 350.018 274.317 350.018 277.594V299H339.79V259.359H350.018V263.799C352.502 260.099 356.44 258.249 361.831 258.249ZM386.658 254.602C384.967 254.602 383.487 253.994 382.218 252.779C381.002 251.51 380.395 250.03 380.395 248.339C380.395 246.647 381.002 245.167 382.218 243.899C383.487 242.63 384.967 241.996 386.658 241.996C388.402 241.996 389.882 242.63 391.098 243.899C392.366 245.167 393.001 246.647 393.001 248.339C393.001 250.03 392.366 251.51 391.098 252.779C389.882 253.994 388.402 254.602 386.658 254.602ZM381.584 299V259.359H391.811V299H381.584ZM406.333 270.617C406.333 271.674 407.02 272.546 408.394 273.233C409.821 273.868 411.539 274.449 413.548 274.978C415.556 275.453 417.565 276.087 419.573 276.88C421.581 277.62 423.273 278.889 424.647 280.686C426.074 282.483 426.788 284.729 426.788 287.425C426.788 291.495 425.255 294.639 422.189 296.859C419.177 299.026 415.397 300.11 410.852 300.11C402.712 300.11 397.163 296.965 394.203 290.675L403.082 285.681C404.245 289.116 406.835 290.834 410.852 290.834C414.499 290.834 416.322 289.698 416.322 287.425C416.322 286.368 415.609 285.522 414.182 284.888C412.808 284.201 411.116 283.593 409.108 283.064C407.099 282.536 405.091 281.875 403.082 281.082C401.074 280.289 399.356 279.047 397.929 277.356C396.555 275.612 395.868 273.445 395.868 270.855C395.868 266.944 397.295 263.878 400.149 261.658C403.056 259.385 406.65 258.249 410.931 258.249C414.155 258.249 417.089 258.989 419.732 260.469C422.374 261.896 424.462 263.957 425.995 266.653L417.274 271.41C416.005 268.714 413.891 267.366 410.931 267.366C409.61 267.366 408.5 267.657 407.601 268.239C406.756 268.82 406.333 269.613 406.333 270.617ZM462.633 294.085C458.563 298.101 453.595 300.11 447.728 300.11C441.861 300.11 436.893 298.101 432.823 294.085C428.806 290.015 426.798 285.046 426.798 279.179C426.798 273.313 428.806 268.371 432.823 264.354C436.893 260.284 441.861 258.249 447.728 258.249C453.595 258.249 458.563 260.284 462.633 264.354C466.703 268.371 468.738 273.313 468.738 279.179C468.738 285.046 466.703 290.015 462.633 294.085ZM440.038 287.028C442.099 289.09 444.662 290.12 447.728 290.12C450.794 290.12 453.357 289.09 455.418 287.028C457.48 284.967 458.51 282.351 458.51 279.179C458.51 276.008 457.48 273.392 455.418 271.331C453.357 269.269 450.794 268.239 447.728 268.239C444.662 268.239 442.099 269.269 440.038 271.331C438.029 273.392 437.025 276.008 437.025 279.179C437.025 282.351 438.029 284.967 440.038 287.028Z" fill="black"/>
<path d="M184.153 272.642C185.71 273.781 187.895 273.441 189.034 271.884C190.172 270.326 189.832 268.141 188.275 267.003L184.153 272.642ZM202.841 279.335C201.386 278.068 199.18 278.221 197.913 279.676C196.647 281.131 196.8 283.338 198.255 284.604L202.841 279.335ZM193.381 254.832L191.362 257.683C192.671 258.61 194.444 258.526 195.66 257.479L193.381 254.832ZM202.841 251.989L203.964 248.682L202.841 251.989ZM188.275 267.003C183.056 263.188 181.501 260.735 181.196 259.412C181.013 258.615 181.165 257.625 183.105 255.876L178.428 250.687C175.781 253.073 173.353 256.477 174.388 260.978C175.303 264.953 178.764 268.704 184.153 272.642L188.275 267.003ZM183.347 278.477C183.343 278.477 183.34 278.477 183.337 278.477C183.333 278.477 183.33 278.477 183.326 278.477C183.323 278.477 183.319 278.477 183.316 278.477C183.312 278.477 183.309 278.477 183.305 278.477C183.302 278.477 183.298 278.477 183.295 278.477C183.291 278.477 183.287 278.477 183.284 278.477C183.28 278.477 183.276 278.477 183.273 278.477C183.269 278.477 183.265 278.477 183.262 278.477C183.258 278.477 183.254 278.477 183.25 278.477C183.247 278.477 183.243 278.477 183.239 278.477C183.235 278.477 183.231 278.477 183.227 278.477C183.223 278.477 183.22 278.477 183.216 278.477C183.212 278.477 183.208 278.477 183.204 278.477C183.2 278.477 183.196 278.477 183.192 278.477C183.188 278.477 183.184 278.477 183.18 278.477C183.176 278.477 183.172 278.477 183.167 278.477C183.163 278.477 183.159 278.477 183.155 278.477C183.151 278.477 183.147 278.477 183.143 278.477C183.138 278.477 183.134 278.477 183.13 278.477C183.126 278.477 183.121 278.477 183.117 278.477C183.113 278.477 183.108 278.477 183.104 278.477C183.1 278.477 183.095 278.477 183.091 278.477C183.087 278.477 183.082 278.477 183.078 278.477C183.073 278.477 183.069 278.477 183.065 278.477C183.06 278.477 183.056 278.477 183.051 278.477C183.047 278.477 183.042 278.477 183.037 278.477C183.033 278.477 183.028 278.477 183.024 278.477C183.019 278.477 183.014 278.477 183.01 278.477C183.005 278.477 183.001 278.477 182.996 278.477C182.991 278.477 182.986 278.477 182.982 278.477C182.977 278.477 182.972 278.477 182.967 278.477C182.963 278.477 182.958 278.477 182.953 278.477C182.948 278.477 182.943 278.477 182.939 278.477C182.934 278.477 182.929 278.477 182.924 278.477C182.919 278.477 182.914 278.477 182.909 278.477C182.904 278.477 182.899 278.477 182.894 278.477C182.889 278.477 182.884 278.477 182.879 278.477C182.874 278.477 182.869 278.477 182.864 278.477C182.859 278.477 182.854 278.477 182.849 278.477C182.844 278.477 182.839 278.477 182.833 278.477C182.828 278.477 182.823 278.477 182.818 278.477C182.813 278.477 182.807 278.477 182.802 278.477C182.797 278.477 182.792 278.477 182.786 278.477C182.781 278.477 182.776 278.477 182.771 278.477C182.765 278.477 182.76 278.477 182.755 278.477C182.749 278.477 182.744 278.477 182.738 278.477C182.733 278.477 182.728 278.477 182.722 278.477C182.717 278.477 182.711 278.477 182.706 278.477C182.7 278.477 182.695 278.477 182.689 278.477C182.684 278.477 182.678 278.477 182.673 278.477C182.667 278.477 182.661 278.477 182.656 278.477C182.65 278.477 182.645 278.477 182.639 278.477C182.633 278.477 182.628 278.477 182.622 278.477C182.616 278.477 182.611 278.477 182.605 278.477C182.599 278.477 182.593 278.477 182.588 278.477C182.582 278.477 182.576 278.477 182.57 278.477C182.565 278.477 182.559 278.477 182.553 278.477C182.547 278.477 182.541 278.477 182.535 278.477C182.529 278.477 182.524 278.477 182.518 278.477C182.512 278.477 182.506 278.477 182.5 278.477C182.494 278.477 182.488 278.477 182.482 278.477C182.476 278.477 182.47 278.477 182.464 278.477C182.458 278.477 182.452 278.477 182.446 278.477C182.44 278.477 182.434 278.477 182.427 278.477C182.421 278.477 182.415 278.477 182.409 278.477C182.403 278.477 182.397 278.477 182.391 278.477C182.384 278.477 182.378 278.477 182.372 278.477C182.366 278.477 182.36 278.477 182.353 278.477C182.347 278.477 182.341 278.477 182.334 278.477C182.328 278.477 182.322 278.477 182.316 278.477C182.309 278.477 182.303 278.477 182.296 278.477C182.29 278.477 182.284 278.477 182.277 278.477C182.271 278.477 182.264 278.477 182.258 278.477C182.252 278.477 182.245 278.477 182.239 278.477C182.232 278.477 182.226 278.477 182.219 278.477C182.213 278.477 182.206 278.477 182.2 278.477C182.193 278.477 182.186 278.477 182.18 278.477C182.173 278.477 182.167 278.477 182.16 278.477C182.153 278.477 182.147 278.477 182.14 278.477C182.134 278.477 182.127 278.477 182.12 278.477C182.113 278.477 182.107 278.477 182.1 278.477C182.093 278.477 182.087 278.477 182.08 278.477C182.073 278.477 182.066 278.477 182.059 278.477C182.053 278.477 182.046 278.477 182.039 278.477C182.032 278.477 182.025 278.477 182.019 278.477C182.012 278.477 182.005 278.477 181.998 278.477C181.991 278.477 181.984 278.477 181.977 278.477C181.97 278.477 181.963 278.477 181.956 278.477C181.949 278.477 181.942 278.477 181.935 278.477C181.928 278.477 181.921 278.477 181.914 278.477C181.907 278.477 181.9 278.477 181.893 278.477C181.886 278.477 181.879 278.477 181.872 278.477C181.865 278.477 181.858 278.477 181.851 278.477C181.843 278.477 181.836 278.477 181.829 278.477C181.822 278.477 181.815 278.477 181.808 278.477C181.8 278.477 181.793 278.477 181.786 278.477C181.779 278.477 181.771 278.477 181.764 278.477C181.757 278.477 181.75 278.477 181.742 278.477C181.735 278.477 181.728 278.477 181.72 278.477C181.713 278.477 181.706 278.477 181.698 278.477C181.691 278.477 181.684 278.477 181.676 278.477C181.669 278.477 181.661 278.477 181.654 278.477C181.647 278.477 181.639 278.477 181.632 278.477C181.624 278.477 181.617 278.477 181.609 278.477C181.602 278.477 181.594 278.477 181.587 278.477C181.579 278.477 181.572 278.477 181.564 278.477C181.557 278.477 181.549 278.477 181.541 278.477C181.534 278.477 181.526 278.477 181.519 278.477C181.511 278.477 181.503 278.477 181.496 278.477C181.488 278.477 181.481 278.477 181.473 278.477C181.465 278.477 181.458 278.477 181.45 278.477C181.442 278.477 181.434 278.477 181.427 278.477C181.419 278.477 181.411 278.477 181.403 278.477C181.396 278.477 181.388 278.477 181.38 278.477C181.372 278.477 181.364 278.477 181.357 278.477C181.349 278.477 181.341 278.477 181.333 278.477C181.325 278.477 181.317 278.477 181.31 278.477C181.302 278.477 181.294 278.477 181.286 278.477C181.278 278.477 181.27 278.477 181.262 278.477C181.254 278.477 181.246 278.477 181.238 278.477C181.23 278.477 181.222 278.477 181.214 278.477C181.206 278.477 181.198 278.477 181.19 278.477C181.182 278.477 181.174 278.477 181.166 278.477C181.158 278.477 181.15 278.477 181.142 278.477C181.134 278.477 181.126 278.477 181.118 278.477C181.11 278.477 181.102 278.477 181.093 278.477C181.085 278.477 181.077 278.477 181.069 278.477C181.061 278.477 181.053 278.477 181.044 278.477C181.036 278.477 181.028 278.477 181.02 278.477C181.012 278.477 181.003 278.477 180.995 278.477C180.987 278.477 180.979 278.477 180.97 278.477C180.962 278.477 180.954 278.477 180.945 278.477C180.937 278.477 180.929 278.477 180.921 278.477C180.912 278.477 180.904 278.477 180.896 278.477C180.887 278.477 180.879 278.477 180.87 278.477C180.862 278.477 180.854 278.477 180.845 278.477C180.837 278.477 180.828 278.477 180.82 278.477C180.812 278.477 180.803 278.477 180.795 278.477C180.786 278.477 180.778 278.477 180.769 278.477C180.761 278.477 180.752 278.477 180.744 278.477C180.735 278.477 180.727 278.477 180.718 278.477C180.71 278.477 180.701 278.477 180.693 278.477C180.684 278.477 180.676 278.477 180.667 278.477C180.658 278.477 180.65 278.477 180.641 278.477C180.633 278.477 180.624 278.477 180.615 278.477C180.607 278.477 180.598 278.477 180.589 278.477C180.581 278.477 180.572 278.477 180.563 278.477C180.555 278.477 180.546 278.477 180.537 278.477C180.529 278.477 180.52 278.477 180.511 278.477C180.502 278.477 180.494 278.477 180.485 278.477C180.476 278.477 180.467 278.477 180.459 278.477C180.45 278.477 180.441 278.477 180.432 278.477C180.424 278.477 180.415 278.477 180.406 278.477C180.397 278.477 180.388 278.477 180.379 278.477C180.371 278.477 180.362 278.477 180.353 278.477C180.344 278.477 180.335 278.477 180.326 278.477C180.317 278.477 180.308 278.477 180.299 278.477C180.291 278.477 180.282 278.477 180.273 278.477C180.264 278.477 180.255 278.477 180.246 278.477C180.237 278.477 180.228 278.477 180.219 278.477C180.21 278.477 180.201 278.477 180.192 278.477C180.183 278.477 180.174 278.477 180.165 278.477C180.156 278.477 180.147 278.477 180.138 278.477C180.129 278.477 180.12 278.477 180.111 278.477C180.102 278.477 180.092 278.477 180.083 278.477C180.074 278.477 180.065 278.477 180.056 278.477C180.047 278.477 180.038 278.477 180.029 278.477C180.02 278.477 180.01 278.477 180.001 278.477C179.992 278.477 179.983 278.477 179.974 278.477C179.965 278.477 179.955 278.477 179.946 278.477C179.937 278.477 179.928 278.477 179.919 278.477C179.909 278.477 179.9 278.477 179.891 278.477C179.882 278.477 179.873 278.477 179.863 278.477C179.854 278.477 179.845 278.477 179.835 278.477C179.826 278.477 179.817 278.477 179.808 278.477C179.798 278.477 179.789 278.477 179.78 278.477C179.77 278.477 179.761 278.477 179.752 278.477C179.742 278.477 179.733 278.477 179.724 278.477C179.714 278.477 179.705 278.477 179.696 278.477C179.686 278.477 179.677 278.477 179.667 278.477C179.658 278.477 179.649 278.477 179.639 278.477C179.63 278.477 179.62 278.477 179.611 278.477C179.602 278.477 179.592 278.477 179.583 278.477C179.573 278.477 179.564 278.477 179.554 278.477C179.545 278.477 179.535 278.477 179.526 278.477C179.516 278.477 179.507 278.477 179.497 278.477C179.488 278.477 179.478 278.477 179.469 278.477C179.459 278.477 179.45 278.477 179.44 278.477C179.431 278.477 179.421 278.477 179.412 278.477C179.402 278.477 179.393 278.477 179.383 278.477C179.373 278.477 179.364 278.477 179.354 278.477C179.345 278.477 179.335 278.477 179.325 278.477C179.316 278.477 179.306 278.477 179.297 278.477C179.287 278.477 179.277 278.477 179.268 278.477C179.258 278.477 179.248 278.477 179.239 278.477C179.229 278.477 179.219 278.477 179.21 278.477C179.2 278.477 179.19 278.477 179.181 278.477C179.171 278.477 179.161 278.477 179.152 278.477C179.142 278.477 179.132 278.477 179.122 278.477C179.113 278.477 179.103 278.477 179.093 278.477C179.084 278.477 179.074 278.477 179.064 278.477C179.054 278.477 179.045 278.477 179.035 278.477C179.025 278.477 179.015 278.477 179.005 278.477C178.996 278.477 178.986 278.477 178.976 278.477C178.966 278.477 178.956 278.477 178.947 278.477C178.937 278.477 178.927 278.477 178.917 278.477C178.907 278.477 178.898 278.477 178.888 278.477C178.878 278.477 178.868 278.477 178.858 278.477C178.848 278.477 178.838 278.477 178.829 278.477C178.819 278.477 178.809 278.477 178.799 278.477C178.789 278.477 178.779 278.477 178.769 278.477C178.759 278.477 178.749 278.477 178.74 278.477C178.73 278.477 178.72 278.477 178.71 278.477C178.7 278.477 178.69 278.477 178.68 278.477C178.67 278.477 178.66 278.477 178.65 278.477C178.64 278.477 178.63 278.477 178.62 278.477C178.61 278.477 178.6 278.477 178.59 278.477C178.58 278.477 178.57 278.477 178.56 278.477C178.55 278.477 178.54 278.477 178.53 278.477C178.52 278.477 178.51 278.477 178.5 278.477C178.49 278.477 178.48 278.477 178.47 278.477C178.46 278.477 178.45 278.477 178.44 278.477C178.43 278.477 178.42 278.477 178.41 278.477C178.4 278.477 178.39 278.477 178.38 278.477C178.37 278.477 178.36 278.477 178.35 278.477C178.34 278.477 178.329 278.477 178.319 278.477C178.309 278.477 178.299 278.477 178.289 278.477C178.279 278.477 178.269 278.477 178.259 278.477C178.249 278.477 178.239 278.477 178.228 278.477C178.218 278.477 178.208 278.477 178.198 278.477C178.188 278.477 178.178 278.477 178.168 278.477C178.157 278.477 178.147 278.477 178.137 278.477C178.127 278.477 178.117 278.477 178.107 278.477C178.097 278.477 178.086 278.477 178.076 278.477C178.066 278.477 178.056 278.477 178.046 278.477C178.035 278.477 178.025 278.477 178.015 278.477C178.005 278.477 177.995 278.477 177.984 278.477C177.974 278.477 177.964 278.477 177.954 278.477C177.944 278.477 177.933 278.477 177.923 278.477C177.913 278.477 177.903 278.477 177.893 278.477C177.882 278.477 177.872 278.477 177.862 278.477C177.852 278.477 177.841 278.477 177.831 278.477C177.821 278.477 177.811 278.477 177.8 278.477C177.79 278.477 177.78 278.477 177.77 278.477C177.759 278.477 177.749 278.477 177.739 278.477C177.728 278.477 177.718 278.477 177.708 278.477C177.698 278.477 177.687 278.477 177.677 278.477C177.667 278.477 177.656 278.477 177.646 278.477C177.636 278.477 177.625 278.477 177.615 278.477C177.605 278.477 177.595 278.477 177.584 278.477C177.574 278.477 177.564 278.477 177.553 278.477C177.543 278.477 177.533 278.477 177.522 278.477C177.512 278.477 177.502 278.477 177.491 278.477C177.481 278.477 177.471 278.477 177.46 278.477C177.45 278.477 177.44 278.477 177.429 278.477C177.419 278.477 177.409 278.477 177.398 278.477C177.388 278.477 177.377 278.477 177.367 278.477C177.357 278.477 177.346 278.477 177.336 278.477C177.326 278.477 177.315 278.477 177.305 278.477C177.294 278.477 177.284 278.477 177.274 278.477C177.263 278.477 177.253 278.477 177.243 278.477C177.232 278.477 177.222 278.477 177.211 278.477C177.201 278.477 177.191 278.477 177.18 278.477C177.17 278.477 177.159 278.477 177.149 278.477C177.139 278.477 177.128 278.477 177.118 278.477C177.107 278.477 177.097 278.477 177.086 278.477C177.076 278.477 177.066 278.477 177.055 278.477C177.045 278.477 177.034 278.477 177.024 278.477C177.014 278.477 177.003 278.477 176.993 278.477C176.982 278.477 176.972 278.477 176.961 278.477C176.951 278.477 176.941 278.477 176.93 278.477C176.92 278.477 176.909 278.477 176.899 278.477C176.888 278.477 176.878 278.477 176.867 278.477C176.857 278.477 176.847 278.477 176.836 278.477C176.826 278.477 176.815 278.477 176.805 278.477C176.794 278.477 176.784 278.477 176.773 278.477C176.763 278.477 176.752 278.477 176.742 278.477C176.732 278.477 176.721 278.477 176.711 278.477C176.7 278.477 176.69 278.477 176.679 278.477C176.669 278.477 176.658 278.477 176.648 278.477C176.637 278.477 176.627 278.477 176.616 278.477C176.606 278.477 176.595 278.477 176.585 278.477C176.574 278.477 176.564 278.477 176.554 278.477C176.543 278.477 176.533 278.477 176.522 278.477C176.512 278.477 176.501 278.477 176.491 278.477C176.48 278.477 176.47 278.477 176.459 278.477C176.449 278.477 176.438 278.477 176.428 278.477C176.417 278.477 176.407 278.477 176.396 278.477C176.386 278.477 176.375 278.477 176.365 278.477C176.354 278.477 176.344 278.477 176.333 278.477C176.323 278.477 176.312 278.477 176.302 278.477C176.291 278.477 176.281 278.477 176.27 278.477C176.26 278.477 176.249 278.477 176.239 278.477C176.228 278.477 176.218 278.477 176.208 278.477C176.197 278.477 176.187 278.477 176.176 278.477C176.166 278.477 176.155 278.477 176.145 278.477C176.134 278.477 176.124 278.477 176.113 278.477C176.103 278.477 176.092 278.477 176.082 278.477C176.071 278.477 176.061 278.477 176.05 278.477C176.04 278.477 176.029 278.477 176.019 278.477C176.008 278.477 175.998 278.477 175.987 278.477C175.977 278.477 175.966 278.477 175.956 278.477C175.945 278.477 175.935 278.477 175.924 278.477C175.914 278.477 175.903 278.477 175.893 278.477C175.882 278.477 175.872 278.477 175.861 278.477C175.851 278.477 175.84 278.477 175.83 278.477C175.819 278.477 175.809 278.477 175.798 278.477C175.788 278.477 175.777 278.477 175.767 278.477C175.757 278.477 175.746 278.477 175.736 278.477C175.725 278.477 175.715 278.477 175.704 278.477C175.694 278.477 175.683 278.477 175.673 278.477C175.662 278.477 175.652 278.477 175.641 278.477C175.631 278.477 175.62 278.477 175.61 278.477C175.599 278.477 175.589 278.477 175.578 278.477C175.568 278.477 175.558 278.477 175.547 278.477C175.537 278.477 175.526 278.477 175.516 278.477C175.505 278.477 175.495 278.477 175.484 278.477C175.474 278.477 175.463 278.477 175.453 278.477C175.442 278.477 175.432 278.477 175.422 278.477C175.411 278.477 175.401 278.477 175.39 278.477C175.38 278.477 175.369 278.477 175.359 278.477C175.348 278.477 175.338 278.477 175.328 278.477C175.317 278.477 175.307 278.477 175.296 278.477C175.286 278.477 175.275 278.477 175.265 278.477C175.255 278.477 175.244 278.477 175.234 278.477C175.223 278.477 175.213 278.477 175.202 278.477C175.192 278.477 175.182 278.477 175.171 278.477C175.161 278.477 175.15 278.477 175.14 278.477C175.13 278.477 175.119 278.477 175.109 278.477C175.098 278.477 175.088 278.477 175.078 278.477C175.067 278.477 175.057 278.477 175.046 278.477C175.036 278.477 175.026 278.477 175.015 278.477C175.005 278.477 174.994 278.477 174.984 278.477C174.974 278.477 174.963 278.477 174.953 278.477C174.942 278.477 174.932 278.477 174.922 278.477C174.911 278.477 174.901 278.477 174.891 278.477C174.88 278.477 174.87 278.477 174.86 278.477C174.849 278.477 174.839 278.477 174.828 278.477C174.818 278.477 174.808 278.477 174.797 278.477C174.787 278.477 174.777 278.477 174.766 278.477C174.756 278.477 174.746 278.477 174.735 278.477C174.725 278.477 174.715 278.477 174.704 278.477C174.694 278.477 174.684 278.477 174.673 278.477C174.663 278.477 174.653 278.477 174.643 278.477C174.632 278.477 174.622 278.477 174.612 278.477C174.601 278.477 174.591 278.477 174.581 278.477C174.57 278.477 174.56 278.477 174.55 278.477C174.54 278.477 174.529 278.477 174.519 278.477C174.509 278.477 174.498 278.477 174.488 278.477C174.478 278.477 174.468 278.477 174.457 278.477C174.447 278.477 174.437 278.477 174.427 278.477C174.416 278.477 174.406 278.477 174.396 278.477C174.386 278.477 174.375 278.477 174.365 278.477C174.355 278.477 174.345 278.477 174.335 278.477C174.324 278.477 174.314 278.477 174.304 278.477C174.294 278.477 174.283 278.477 174.273 278.477C174.263 278.477 174.253 278.477 174.243 278.477C174.232 278.477 174.222 278.477 174.212 278.477C174.202 278.477 174.192 278.477 174.182 278.477C174.171 278.477 174.161 278.477 174.151 278.477C174.141 278.477 174.131 278.477 174.121 278.477C174.11 278.477 174.1 278.477 174.09 278.477C174.08 278.477 174.07 278.477 174.06 278.477C174.05 278.477 174.039 278.477 174.029 278.477C174.019 278.477 174.009 278.477 173.999 278.477C173.989 278.477 173.979 278.477 173.969 278.477C173.959 278.477 173.949 278.477 173.938 278.477C173.928 278.477 173.918 278.477 173.908 278.477C173.898 278.477 173.888 278.477 173.878 278.477C173.868 278.477 173.858 278.477 173.848 278.477C173.838 278.477 173.828 278.477 173.818 278.477C173.808 278.477 173.798 278.477 173.788 278.477C173.778 278.477 173.768 278.477 173.758 278.477C173.747 278.477 173.737 278.477 173.727 278.477C173.717 278.477 173.707 278.477 173.697 278.477C173.688 278.477 173.678 278.477 173.668 278.477C173.658 278.477 173.648 278.477 173.638 278.477C173.628 278.477 173.618 278.477 173.608 278.477C173.598 278.477 173.588 278.477 173.578 278.477C173.568 278.477 173.558 278.477 173.548 278.477C173.538 278.477 173.528 278.477 173.518 278.477C173.508 278.477 173.499 278.477 173.489 278.477C173.479 278.477 173.469 278.477 173.459 278.477C173.449 278.477 173.439 278.477 173.429 278.477C173.419 278.477 173.41 278.477 173.4 278.477C173.39 278.477 173.38 278.477 173.37 278.477C173.36 278.477 173.351 278.477 173.341 278.477C173.331 278.477 173.321 278.477 173.311 278.477C173.301 278.477 173.292 278.477 173.282 278.477C173.272 278.477 173.262 278.477 173.253 278.477C173.243 278.477 173.233 278.477 173.223 278.477C173.213 278.477 173.204 278.477 173.194 278.477C173.184 278.477 173.174 278.477 173.165 278.477C173.155 278.477 173.145 278.477 173.136 278.477C173.126 278.477 173.116 278.477 173.106 278.477C173.097 278.477 173.087 278.477 173.077 278.477C173.068 278.477 173.058 278.477 173.048 278.477C173.039 278.477 173.029 278.477 173.019 278.477C173.01 278.477 173 278.477 172.99 278.477C172.981 278.477 172.971 278.477 172.961 278.477C172.952 278.477 172.942 278.477 172.933 278.477C172.923 278.477 172.913 278.477 172.904 278.477C172.894 278.477 172.885 278.477 172.875 278.477C172.866 278.477 172.856 278.477 172.846 278.477C172.837 278.477 172.827 278.477 172.818 278.477C172.808 278.477 172.799 278.477 172.789 278.477C172.78 278.477 172.77 278.477 172.761 278.477C172.751 278.477 172.742 278.477 172.732 278.477C172.723 278.477 172.713 278.477 172.704 278.477C172.694 278.477 172.685 278.477 172.675 278.477C172.666 278.477 172.657 278.477 172.647 278.477C172.638 278.477 172.628 278.477 172.619 278.477C172.609 278.477 172.6 278.477 172.591 278.477C172.581 278.477 172.572 278.477 172.563 278.477C172.553 278.477 172.544 278.477 172.534 278.477C172.525 278.477 172.516 278.477 172.506 278.477C172.497 278.477 172.488 278.477 172.479 278.477C172.469 278.477 172.46 278.477 172.451 278.477C172.441 278.477 172.432 278.477 172.423 278.477C172.413 278.477 172.404 278.477 172.395 278.477C172.386 278.477 172.376 278.477 172.367 278.477C172.358 278.477 172.349 278.477 172.34 278.477C172.33 278.477 172.321 278.477 172.312 278.477C172.303 278.477 172.294 278.477 172.284 278.477C172.275 278.477 172.266 278.477 172.257 278.477C172.248 278.477 172.239 278.477 172.23 278.477C172.22 278.477 172.211 278.477 172.202 278.477C172.193 278.477 172.184 278.477 172.175 278.477C172.166 278.477 172.157 278.477 172.148 278.477C172.139 278.477 172.13 278.477 172.121 278.477C172.111 278.477 172.102 278.477 172.093 278.477C172.084 278.477 172.075 278.477 172.066 278.477C172.057 278.477 172.048 278.477 172.039 278.477C172.03 278.477 172.021 278.477 172.013 278.477C172.004 278.477 171.995 278.477 171.986 278.477C171.977 278.477 171.968 278.477 171.959 278.477C171.95 278.477 171.941 278.477 171.932 278.477C171.923 278.477 171.914 278.477 171.906 278.477C171.897 278.477 171.888 278.477 171.879 278.477C171.87 278.477 171.861 278.477 171.853 278.477C171.844 278.477 171.835 278.477 171.826 278.477C171.817 278.477 171.809 278.477 171.8 278.477C171.791 278.477 171.782 278.477 171.773 278.477C171.765 278.477 171.756 278.477 171.747 278.477C171.739 278.477 171.73 278.477 171.721 278.477C171.712 278.477 171.704 278.477 171.695 278.477C171.686 278.477 171.678 278.477 171.669 278.477C171.66 278.477 171.652 278.477 171.643 278.477C171.635 278.477 171.626 278.477 171.617 278.477C171.609 278.477 171.6 278.477 171.592 278.477C171.583 278.477 171.574 278.477 171.566 278.477C171.557 278.477 171.549 278.477 171.54 278.477C171.532 278.477 171.523 278.477 171.515 278.477C171.506 278.477 171.498 278.477 171.489 278.477C171.481 278.477 171.472 278.477 171.464 278.477C171.455 278.477 171.447 278.477 171.439 278.477C171.43 278.477 171.422 278.477 171.413 278.477C171.405 278.477 171.397 278.477 171.388 278.477C171.38 278.477 171.371 278.477 171.363 278.477C171.355 278.477 171.346 278.477 171.338 278.477C171.33 278.477 171.321 278.477 171.313 278.477C171.305 278.477 171.297 278.477 171.288 278.477C171.28 278.477 171.272 278.477 171.264 278.477C171.255 278.477 171.247 278.477 171.239 278.477C171.231 278.477 171.222 278.477 171.214 278.477C171.206 278.477 171.198 278.477 171.19 278.477C171.182 278.477 171.173 278.477 171.165 278.477C171.157 278.477 171.149 278.477 171.141 278.477C171.133 278.477 171.125 278.477 171.117 278.477C171.109 278.477 171.101 278.477 171.093 278.477C171.085 278.477 171.076 278.477 171.068 278.477C171.06 278.477 171.052 278.477 171.044 278.477C171.036 278.477 171.029 278.477 171.021 278.477C171.013 278.477 171.005 278.477 170.997 278.477C170.989 278.477 170.981 278.477 170.973 278.477C170.965 278.477 170.957 278.477 170.949 278.477C170.941 278.477 170.934 278.477 170.926 278.477C170.918 278.477 170.91 278.477 170.902 278.477C170.894 278.477 170.887 278.477 170.879 278.477C170.871 278.477 170.863 278.477 170.856 278.477C170.848 278.477 170.84 278.477 170.832 278.477C170.825 278.477 170.817 278.477 170.809 278.477C170.801 278.477 170.794 278.477 170.786 278.477C170.778 278.477 170.771 278.477 170.763 278.477C170.756 278.477 170.748 278.477 170.74 278.477C170.733 278.477 170.725 278.477 170.718 278.477C170.71 278.477 170.702 278.477 170.695 278.477C170.687 278.477 170.68 278.477 170.672 278.477C170.665 278.477 170.657 278.477 170.65 278.477C170.642 278.477 170.635 278.477 170.627 278.477C170.62 278.477 170.612 278.477 170.605 278.477C170.598 278.477 170.59 278.477 170.583 278.477C170.575 278.477 170.568 278.477 170.561 278.477C170.553 278.477 170.546 278.477 170.539 278.477C170.531 278.477 170.524 278.477 170.517 278.477C170.51 278.477 170.502 278.477 170.495 278.477C170.488 278.477 170.481 278.477 170.473 278.477C170.466 278.477 170.459 278.477 170.452 278.477C170.444 278.477 170.437 278.477 170.43 278.477C170.423 278.477 170.416 278.477 170.409 278.477C170.402 278.477 170.394 278.477 170.387 278.477C170.38 278.477 170.373 278.477 170.366 278.477C170.359 278.477 170.352 278.477 170.345 278.477C170.338 278.477 170.331 278.477 170.324 278.477C170.317 278.477 170.31 278.477 170.303 278.477C170.296 278.477 170.289 278.477 170.282 278.477C170.275 278.477 170.268 278.477 170.261 278.477C170.255 278.477 170.248 278.477 170.241 278.477C170.234 278.477 170.227 278.477 170.22 278.477C170.213 278.477 170.207 278.477 170.2 278.477C170.193 278.477 170.186 278.477 170.18 278.477C170.173 278.477 170.166 278.477 170.159 278.477V285.462C170.166 285.462 170.173 285.462 170.18 285.462C170.186 285.462 170.193 285.462 170.2 285.462C170.207 285.462 170.213 285.462 170.22 285.462C170.227 285.462 170.234 285.462 170.241 285.462C170.248 285.462 170.255 285.462 170.261 285.462C170.268 285.462 170.275 285.462 170.282 285.462C170.289 285.462 170.296 285.462 170.303 285.462C170.31 285.462 170.317 285.462 170.324 285.462C170.331 285.462 170.338 285.462 170.345 285.462C170.352 285.462 170.359 285.462 170.366 285.462C170.373 285.462 170.38 285.462 170.387 285.462C170.394 285.462 170.402 285.462 170.409 285.462C170.416 285.462 170.423 285.462 170.43 285.462C170.437 285.462 170.444 285.462 170.452 285.462C170.459 285.462 170.466 285.462 170.473 285.462C170.481 285.462 170.488 285.462 170.495 285.462C170.502 285.462 170.51 285.462 170.517 285.462C170.524 285.462 170.531 285.462 170.539 285.462C170.546 285.462 170.553 285.462 170.561 285.462C170.568 285.462 170.575 285.462 170.583 285.462C170.59 285.462 170.598 285.462 170.605 285.462C170.612 285.462 170.62 285.462 170.627 285.462C170.635 285.462 170.642 285.462 170.65 285.462C170.657 285.462 170.665 285.462 170.672 285.462C170.68 285.462 170.687 285.462 170.695 285.462C170.702 285.462 170.71 285.462 170.718 285.462C170.725 285.462 170.733 285.462 170.74 285.462C170.748 285.462 170.756 285.462 170.763 285.462C170.771 285.462 170.778 285.462 170.786 285.462C170.794 285.462 170.801 285.462 170.809 285.462C170.817 285.462 170.825 285.462 170.832 285.462C170.84 285.462 170.848 285.462 170.856 285.462C170.863 285.462 170.871 285.462 170.879 285.462C170.887 285.462 170.894 285.462 170.902 285.462C170.91 285.462 170.918 285.462 170.926 285.462C170.934 285.462 170.941 285.462 170.949 285.462C170.957 285.462 170.965 285.462 170.973 285.462C170.981 285.462 170.989 285.462 170.997 285.462C171.005 285.462 171.013 285.462 171.021 285.462C171.029 285.462 171.036 285.462 171.044 285.462C171.052 285.462 171.06 285.462 171.068 285.462C171.076 285.462 171.085 285.462 171.093 285.462C171.101 285.462 171.109 285.462 171.117 285.462C171.125 285.462 171.133 285.462 171.141 285.462C171.149 285.462 171.157 285.462 171.165 285.462C171.173 285.462 171.182 285.462 171.19 285.462C171.198 285.462 171.206 285.462 171.214 285.462C171.222 285.462 171.231 285.462 171.239 285.462C171.247 285.462 171.255 285.462 171.264 285.462C171.272 285.462 171.28 285.462 171.288 285.462C171.297 285.462 171.305 285.462 171.313 285.462C171.321 285.462 171.33 285.462 171.338 285.462C171.346 285.462 171.355 285.462 171.363 285.462C171.371 285.462 171.38 285.462 171.388 285.462C171.397 285.462 171.405 285.462 171.413 285.462C171.422 285.462 171.43 285.462 171.439 285.462C171.447 285.462 171.455 285.462 171.464 285.462C171.472 285.462 171.481 285.462 171.489 285.462C171.498 285.462 171.506 285.462 171.515 285.462C171.523 285.462 171.532 285.462 171.54 285.462C171.549 285.462 171.557 285.462 171.566 285.462C171.574 285.462 171.583 285.462 171.592 285.462C171.6 285.462 171.609 285.462 171.617 285.462C171.626 285.462 171.635 285.462 171.643 285.462C171.652 285.462 171.66 285.462 171.669 285.462C171.678 285.462 171.686 285.462 171.695 285.462C171.704 285.462 171.712 285.462 171.721 285.462C171.73 285.462 171.739 285.462 171.747 285.462C171.756 285.462 171.765 285.462 171.773 285.462C171.782 285.462 171.791 285.462 171.8 285.462C171.809 285.462 171.817 285.462 171.826 285.462C171.835 285.462 171.844 285.462 171.853 285.462C171.861 285.462 171.87 285.462 171.879 285.462C171.888 285.462 171.897 285.462 171.906 285.462C171.914 285.462 171.923 285.462 171.932 285.462C171.941 285.462 171.95 285.462 171.959 285.462C171.968 285.462 171.977 285.462 171.986 285.462C171.995 285.462 172.004 285.462 172.013 285.462C172.021 285.462 172.03 285.462 172.039 285.462C172.048 285.462 172.057 285.462 172.066 285.462C172.075 285.462 172.084 285.462 172.093 285.462C172.102 285.462 172.111 285.462 172.121 285.462C172.13 285.462 172.139 285.462 172.148 285.462C172.157 285.462 172.166 285.462 172.175 285.462C172.184 285.462 172.193 285.462 172.202 285.462C172.211 285.462 172.22 285.462 172.23 285.462C172.239 285.462 172.248 285.462 172.257 285.462C172.266 285.462 172.275 285.462 172.284 285.462C172.294 285.462 172.303 285.462 172.312 285.462C172.321 285.462 172.33 285.462 172.34 285.462C172.349 285.462 172.358 285.462 172.367 285.462C172.376 285.462 172.386 285.462 172.395 285.462C172.404 285.462 172.413 285.462 172.423 285.462C172.432 285.462 172.441 285.462 172.451 285.462C172.46 285.462 172.469 285.462 172.479 285.462C172.488 285.462 172.497 285.462 172.506 285.462C172.516 285.462 172.525 285.462 172.534 285.462C172.544 285.462 172.553 285.462 172.563 285.462C172.572 285.462 172.581 285.462 172.591 285.462C172.6 285.462 172.609 285.462 172.619 285.462C172.628 285.462 172.638 285.462 172.647 285.462C172.657 285.462 172.666 285.462 172.675 285.462C172.685 285.462 172.694 285.462 172.704 285.462C172.713 285.462 172.723 285.462 172.732 285.462C172.742 285.462 172.751 285.462 172.761 285.462C172.77 285.462 172.78 285.462 172.789 285.462C172.799 285.462 172.808 285.462 172.818 285.462C172.827 285.462 172.837 285.462 172.846 285.462C172.856 285.462 172.866 285.462 172.875 285.462C172.885 285.462 172.894 285.462 172.904 285.462C172.913 285.462 172.923 285.462 172.933 285.462C172.942 285.462 172.952 285.462 172.961 285.462C172.971 285.462 172.981 285.462 172.99 285.462C173 285.462 173.01 285.462 173.019 285.462C173.029 285.462 173.039 285.462 173.048 285.462C173.058 285.462 173.068 285.462 173.077 285.462C173.087 285.462 173.097 285.462 173.106 285.462C173.116 285.462 173.126 285.462 173.136 285.462C173.145 285.462 173.155 285.462 173.165 285.462C173.174 285.462 173.184 285.462 173.194 285.462C173.204 285.462 173.213 285.462 173.223 285.462C173.233 285.462 173.243 285.462 173.253 285.462C173.262 285.462 173.272 285.462 173.282 285.462C173.292 285.462 173.301 285.462 173.311 285.462C173.321 285.462 173.331 285.462 173.341 285.462C173.351 285.462 173.36 285.462 173.37 285.462C173.38 285.462 173.39 285.462 173.4 285.462C173.41 285.462 173.419 285.462 173.429 285.462C173.439 285.462 173.449 285.462 173.459 285.462C173.469 285.462 173.479 285.462 173.489 285.462C173.499 285.462 173.508 285.462 173.518 285.462C173.528 285.462 173.538 285.462 173.548 285.462C173.558 285.462 173.568 285.462 173.578 285.462C173.588 285.462 173.598 285.462 173.608 285.462C173.618 285.462 173.628 285.462 173.638 285.462C173.648 285.462 173.658 285.462 173.668 285.462C173.678 285.462 173.688 285.462 173.697 285.462C173.707 285.462 173.717 285.462 173.727 285.462C173.737 285.462 173.747 285.462 173.758 285.462C173.768 285.462 173.778 285.462 173.788 285.462C173.798 285.462 173.808 285.462 173.818 285.462C173.828 285.462 173.838 285.462 173.848 285.462C173.858 285.462 173.868 285.462 173.878 285.462C173.888 285.462 173.898 285.462 173.908 285.462C173.918 285.462 173.928 285.462 173.938 285.462C173.949 285.462 173.959 285.462 173.969 285.462C173.979 285.462 173.989 285.462 173.999 285.462C174.009 285.462 174.019 285.462 174.029 285.462C174.039 285.462 174.05 285.462 174.06 285.462C174.07 285.462 174.08 285.462 174.09 285.462C174.1 285.462 174.11 285.462 174.121 285.462C174.131 285.462 174.141 285.462 174.151 285.462C174.161 285.462 174.171 285.462 174.182 285.462C174.192 285.462 174.202 285.462 174.212 285.462C174.222 285.462 174.232 285.462 174.243 285.462C174.253 285.462 174.263 285.462 174.273 285.462C174.283 285.462 174.294 285.462 174.304 285.462C174.314 285.462 174.324 285.462 174.335 285.462C174.345 285.462 174.355 285.462 174.365 285.462C174.375 285.462 174.386 285.462 174.396 285.462C174.406 285.462 174.416 285.462 174.427 285.462C174.437 285.462 174.447 285.462 174.457 285.462C174.468 285.462 174.478 285.462 174.488 285.462C174.498 285.462 174.509 285.462 174.519 285.462C174.529 285.462 174.54 285.462 174.55 285.462C174.56 285.462 174.57 285.462 174.581 285.462C174.591 285.462 174.601 285.462 174.612 285.462C174.622 285.462 174.632 285.462 174.643 285.462C174.653 285.462 174.663 285.462 174.673 285.462C174.684 285.462 174.694 285.462 174.704 285.462C174.715 285.462 174.725 285.462 174.735 285.462C174.746 285.462 174.756 285.462 174.766 285.462C174.777 285.462 174.787 285.462 174.797 285.462C174.808 285.462 174.818 285.462 174.828 285.462C174.839 285.462 174.849 285.462 174.86 285.462C174.87 285.462 174.88 285.462 174.891 285.462C174.901 285.462 174.911 285.462 174.922 285.462C174.932 285.462 174.942 285.462 174.953 285.462C174.963 285.462 174.974 285.462 174.984 285.462C174.994 285.462 175.005 285.462 175.015 285.462C175.026 285.462 175.036 285.462 175.046 285.462C175.057 285.462 175.067 285.462 175.078 285.462C175.088 285.462 175.098 285.462 175.109 285.462C175.119 285.462 175.13 285.462 175.14 285.462C175.15 285.462 175.161 285.462 175.171 285.462C175.182 285.462 175.192 285.462 175.202 285.462C175.213 285.462 175.223 285.462 175.234 285.462C175.244 285.462 175.255 285.462 175.265 285.462C175.275 285.462 175.286 285.462 175.296 285.462C175.307 285.462 175.317 285.462 175.328 285.462C175.338 285.462 175.348 285.462 175.359 285.462C175.369 285.462 175.38 285.462 175.39 285.462C175.401 285.462 175.411 285.462 175.422 285.462C175.432 285.462 175.442 285.462 175.453 285.462C175.463 285.462 175.474 285.462 175.484 285.462C175.495 285.462 175.505 285.462 175.516 285.462C175.526 285.462 175.537 285.462 175.547 285.462C175.558 285.462 175.568 285.462 175.578 285.462C175.589 285.462 175.599 285.462 175.61 285.462C175.62 285.462 175.631 285.462 175.641 285.462C175.652 285.462 175.662 285.462 175.673 285.462C175.683 285.462 175.694 285.462 175.704 285.462C175.715 285.462 175.725 285.462 175.736 285.462C175.746 285.462 175.757 285.462 175.767 285.462C175.777 285.462 175.788 285.462 175.798 285.462C175.809 285.462 175.819 285.462 175.83 285.462C175.84 285.462 175.851 285.462 175.861 285.462C175.872 285.462 175.882 285.462 175.893 285.462C175.903 285.462 175.914 285.462 175.924 285.462C175.935 285.462 175.945 285.462 175.956 285.462C175.966 285.462 175.977 285.462 175.987 285.462C175.998 285.462 176.008 285.462 176.019 285.462C176.029 285.462 176.04 285.462 176.05 285.462C176.061 285.462 176.071 285.462 176.082 285.462C176.092 285.462 176.103 285.462 176.113 285.462C176.124 285.462 176.134 285.462 176.145 285.462C176.155 285.462 176.166 285.462 176.176 285.462C176.187 285.462 176.197 285.462 176.208 285.462C176.218 285.462 176.228 285.462 176.239 285.462C176.249 285.462 176.26 285.462 176.27 285.462C176.281 285.462 176.291 285.462 176.302 285.462C176.312 285.462 176.323 285.462 176.333 285.462C176.344 285.462 176.354 285.462 176.365 285.462C176.375 285.462 176.386 285.462 176.396 285.462C176.407 285.462 176.417 285.462 176.428 285.462C176.438 285.462 176.449 285.462 176.459 285.462C176.47 285.462 176.48 285.462 176.491 285.462C176.501 285.462 176.512 285.462 176.522 285.462C176.533 285.462 176.543 285.462 176.554 285.462C176.564 285.462 176.574 285.462 176.585 285.462C176.595 285.462 176.606 285.462 176.616 285.462C176.627 285.462 176.637 285.462 176.648 285.462C176.658 285.462 176.669 285.462 176.679 285.462C176.69 285.462 176.7 285.462 176.711 285.462C176.721 285.462 176.732 285.462 176.742 285.462C176.752 285.462 176.763 285.462 176.773 285.462C176.784 285.462 176.794 285.462 176.805 285.462C176.815 285.462 176.826 285.462 176.836 285.462C176.847 285.462 176.857 285.462 176.867 285.462C176.878 285.462 176.888 285.462 176.899 285.462C176.909 285.462 176.92 285.462 176.93 285.462C176.941 285.462 176.951 285.462 176.961 285.462C176.972 285.462 176.982 285.462 176.993 285.462C177.003 285.462 177.014 285.462 177.024 285.462C177.034 285.462 177.045 285.462 177.055 285.462C177.066 285.462 177.076 285.462 177.086 285.462C177.097 285.462 177.107 285.462 177.118 285.462C177.128 285.462 177.139 285.462 177.149 285.462C177.159 285.462 177.17 285.462 177.18 285.462C177.191 285.462 177.201 285.462 177.211 285.462C177.222 285.462 177.232 285.462 177.243 285.462C177.253 285.462 177.263 285.462 177.274 285.462C177.284 285.462 177.294 285.462 177.305 285.462C177.315 285.462 177.326 285.462 177.336 285.462C177.346 285.462 177.357 285.462 177.367 285.462C177.377 285.462 177.388 285.462 177.398 285.462C177.409 285.462 177.419 285.462 177.429 285.462C177.44 285.462 177.45 285.462 177.46 285.462C177.471 285.462 177.481 285.462 177.491 285.462C177.502 285.462 177.512 285.462 177.522 285.462C177.533 285.462 177.543 285.462 177.553 285.462C177.564 285.462 177.574 285.462 177.584 285.462C177.595 285.462 177.605 285.462 177.615 285.462C177.625 285.462 177.636 285.462 177.646 285.462C177.656 285.462 177.667 285.462 177.677 285.462C177.687 285.462 177.698 285.462 177.708 285.462C177.718 285.462 177.728 285.462 177.739 285.462C177.749 285.462 177.759 285.462 177.77 285.462C177.78 285.462 177.79 285.462 177.8 285.462C177.811 285.462 177.821 285.462 177.831 285.462C177.841 285.462 177.852 285.462 177.862 285.462C177.872 285.462 177.882 285.462 177.893 285.462C177.903 285.462 177.913 285.462 177.923 285.462C177.933 285.462 177.944 285.462 177.954 285.462C177.964 285.462 177.974 285.462 177.984 285.462C177.995 285.462 178.005 285.462 178.015 285.462C178.025 285.462 178.035 285.462 178.046 285.462C178.056 285.462 178.066 285.462 178.076 285.462C178.086 285.462 178.097 285.462 178.107 285.462C178.117 285.462 178.127 285.462 178.137 285.462C178.147 285.462 178.157 285.462 178.168 285.462C178.178 285.462 178.188 285.462 178.198 285.462C178.208 285.462 178.218 285.462 178.228 285.462C178.239 285.462 178.249 285.462 178.259 285.462C178.269 285.462 178.279 285.462 178.289 285.462C178.299 285.462 178.309 285.462 178.319 285.462C178.329 285.462 178.34 285.462 178.35 285.462C178.36 285.462 178.37 285.462 178.38 285.462C178.39 285.462 178.4 285.462 178.41 285.462C178.42 285.462 178.43 285.462 178.44 285.462C178.45 285.462 178.46 285.462 178.47 285.462C178.48 285.462 178.49 285.462 178.5 285.462C178.51 285.462 178.52 285.462 178.53 285.462C178.54 285.462 178.55 285.462 178.56 285.462C178.57 285.462 178.58 285.462 178.59 285.462C178.6 285.462 178.61 285.462 178.62 285.462C178.63 285.462 178.64 285.462 178.65 285.462C178.66 285.462 178.67 285.462 178.68 285.462C178.69 285.462 178.7 285.462 178.71 285.462C178.72 285.462 178.73 285.462 178.74 285.462C178.749 285.462 178.759 285.462 178.769 285.462C178.779 285.462 178.789 285.462 178.799 285.462C178.809 285.462 178.819 285.462 178.829 285.462C178.838 285.462 178.848 285.462 178.858 285.462C178.868 285.462 178.878 285.462 178.888 285.462C178.898 285.462 178.907 285.462 178.917 285.462C178.927 285.462 178.937 285.462 178.947 285.462C178.956 285.462 178.966 285.462 178.976 285.462C178.986 285.462 178.996 285.462 179.005 285.462C179.015 285.462 179.025 285.462 179.035 285.462C179.045 285.462 179.054 285.462 179.064 285.462C179.074 285.462 179.084 285.462 179.093 285.462C179.103 285.462 179.113 285.462 179.122 285.462C179.132 285.462 179.142 285.462 179.152 285.462C179.161 285.462 179.171 285.462 179.181 285.462C179.19 285.462 179.2 285.462 179.21 285.462C179.219 285.462 179.229 285.462 179.239 285.462C179.248 285.462 179.258 285.462 179.268 285.462C179.277 285.462 179.287 285.462 179.297 285.462C179.306 285.462 179.316 285.462 179.325 285.462C179.335 285.462 179.345 285.462 179.354 285.462C179.364 285.462 179.373 285.462 179.383 285.462C179.393 285.462 179.402 285.462 179.412 285.462C179.421 285.462 179.431 285.462 179.44 285.462C179.45 285.462 179.459 285.462 179.469 285.462C179.478 285.462 179.488 285.462 179.497 285.462C179.507 285.462 179.516 285.462 179.526 285.462C179.535 285.462 179.545 285.462 179.554 285.462C179.564 285.462 179.573 285.462 179.583 285.462C179.592 285.462 179.602 285.462 179.611 285.462C179.62 285.462 179.63 285.462 179.639 285.462C179.649 285.462 179.658 285.462 179.667 285.462C179.677 285.462 179.686 285.462 179.696 285.462C179.705 285.462 179.714 285.462 179.724 285.462C179.733 285.462 179.742 285.462 179.752 285.462C179.761 285.462 179.77 285.462 179.78 285.462C179.789 285.462 179.798 285.462 179.808 285.462C179.817 285.462 179.826 285.462 179.835 285.462C179.845 285.462 179.854 285.462 179.863 285.462C179.873 285.462 179.882 285.462 179.891 285.462C179.9 285.462 179.909 285.462 179.919 285.462C179.928 285.462 179.937 285.462 179.946 285.462C179.955 285.462 179.965 285.462 179.974 285.462C179.983 285.462 179.992 285.462 180.001 285.462C180.01 285.462 180.02 285.462 180.029 285.462C180.038 285.462 180.047 285.462 180.056 285.462C180.065 285.462 180.074 285.462 180.083 285.462C180.092 285.462 180.102 285.462 180.111 285.462C180.12 285.462 180.129 285.462 180.138 285.462C180.147 285.462 180.156 285.462 180.165 285.462C180.174 285.462 180.183 285.462 180.192 285.462C180.201 285.462 180.21 285.462 180.219 285.462C180.228 285.462 180.237 285.462 180.246 285.462C180.255 285.462 180.264 285.462 180.273 285.462C180.282 285.462 180.291 285.462 180.299 285.462C180.308 285.462 180.317 285.462 180.326 285.462C180.335 285.462 180.344 285.462 180.353 285.462C180.362 285.462 180.371 285.462 180.379 285.462C180.388 285.462 180.397 285.462 180.406 285.462C180.415 285.462 180.424 285.462 180.432 285.462C180.441 285.462 180.45 285.462 180.459 285.462C180.467 285.462 180.476 285.462 180.485 285.462C180.494 285.462 180.502 285.462 180.511 285.462C180.52 285.462 180.529 285.462 180.537 285.462C180.546 285.462 180.555 285.462 180.563 285.462C180.572 285.462 180.581 285.462 180.589 285.462C180.598 285.462 180.607 285.462 180.615 285.462C180.624 285.462 180.633 285.462 180.641 285.462C180.65 285.462 180.658 285.462 180.667 285.462C180.676 285.462 180.684 285.462 180.693 285.462C180.701 285.462 180.71 285.462 180.718 285.462C180.727 285.462 180.735 285.462 180.744 285.462C180.752 285.462 180.761 285.462 180.769 285.462C180.778 285.462 180.786 285.462 180.795 285.462C180.803 285.462 180.812 285.462 180.82 285.462C180.828 285.462 180.837 285.462 180.845 285.462C180.854 285.462 180.862 285.462 180.87 285.462C180.879 285.462 180.887 285.462 180.896 285.462C180.904 285.462 180.912 285.462 180.921 285.462C180.929 285.462 180.937 285.462 180.945 285.462C180.954 285.462 180.962 285.462 180.97 285.462C180.979 285.462 180.987 285.462 180.995 285.462C181.003 285.462 181.012 285.462 181.02 285.462C181.028 285.462 181.036 285.462 181.044 285.462C181.053 285.462 181.061 285.462 181.069 285.462C181.077 285.462 181.085 285.462 181.093 285.462C181.102 285.462 181.11 285.462 181.118 285.462C181.126 285.462 181.134 285.462 181.142 285.462C181.15 285.462 181.158 285.462 181.166 285.462C181.174 285.462 181.182 285.462 181.19 285.462C181.198 285.462 181.206 285.462 181.214 285.462C181.222 285.462 181.23 285.462 181.238 285.462C181.246 285.462 181.254 285.462 181.262 285.462C181.27 285.462 181.278 285.462 181.286 285.462C181.294 285.462 181.302 285.462 181.31 285.462C181.317 285.462 181.325 285.462 181.333 285.462C181.341 285.462 181.349 285.462 181.357 285.462C181.364 285.462 181.372 285.462 181.38 285.462C181.388 285.462 181.396 285.462 181.403 285.462C181.411 285.462 181.419 285.462 181.427 285.462C181.434 285.462 181.442 285.462 181.45 285.462C181.458 285.462 181.465 285.462 181.473 285.462C181.481 285.462 181.488 285.462 181.496 285.462C181.503 285.462 181.511 285.462 181.519 285.462C181.526 285.462 181.534 285.462 181.541 285.462C181.549 285.462 181.557 285.462 181.564 285.462C181.572 285.462 181.579 285.462 181.587 285.462C181.594 285.462 181.602 285.462 181.609 285.462C181.617 285.462 181.624 285.462 181.632 285.462C181.639 285.462 181.647 285.462 181.654 285.462C181.661 285.462 181.669 285.462 181.676 285.462C181.684 285.462 181.691 285.462 181.698 285.462C181.706 285.462 181.713 285.462 181.72 285.462C181.728 285.462 181.735 285.462 181.742 285.462C181.75 285.462 181.757 285.462 181.764 285.462C181.771 285.462 181.779 285.462 181.786 285.462C181.793 285.462 181.8 285.462 181.808 285.462C181.815 285.462 181.822 285.462 181.829 285.462C181.836 285.462 181.843 285.462 181.851 285.462C181.858 285.462 181.865 285.462 181.872 285.462C181.879 285.462 181.886 285.462 181.893 285.462C181.9 285.462 181.907 285.462 181.914 285.462C181.921 285.462 181.928 285.462 181.935 285.462C181.942 285.462 181.949 285.462 181.956 285.462C181.963 285.462 181.97 285.462 181.977 285.462C181.984 285.462 181.991 285.462 181.998 285.462C182.005 285.462 182.012 285.462 182.019 285.462C182.025 285.462 182.032 285.462 182.039 285.462C182.046 285.462 182.053 285.462 182.059 285.462C182.066 285.462 182.073 285.462 182.08 285.462C182.087 285.462 182.093 285.462 182.1 285.462C182.107 285.462 182.113 285.462 182.12 285.462C182.127 285.462 182.134 285.462 182.14 285.462C182.147 285.462 182.153 285.462 182.16 285.462C182.167 285.462 182.173 285.462 182.18 285.462C182.186 285.462 182.193 285.462 182.2 285.462C182.206 285.462 182.213 285.462 182.219 285.462C182.226 285.462 182.232 285.462 182.239 285.462C182.245 285.462 182.252 285.462 182.258 285.462C182.264 285.462 182.271 285.462 182.277 285.462C182.284 285.462 182.29 285.462 182.296 285.462C182.303 285.462 182.309 285.462 182.316 285.462C182.322 285.462 182.328 285.462 182.334 285.462C182.341 285.462 182.347 285.462 182.353 285.462C182.36 285.462 182.366 285.462 182.372 285.462C182.378 285.462 182.384 285.462 182.391 285.462C182.397 285.462 182.403 285.462 182.409 285.462C182.415 285.462 182.421 285.462 182.427 285.462C182.434 285.462 182.44 285.462 182.446 285.462C182.452 285.462 182.458 285.462 182.464 285.462C182.47 285.462 182.476 285.462 182.482 285.462C182.488 285.462 182.494 285.462 182.5 285.462C182.506 285.462 182.512 285.462 182.518 285.462C182.524 285.462 182.529 285.462 182.535 285.462C182.541 285.462 182.547 285.462 182.553 285.462C182.559 285.462 182.565 285.462 182.57 285.462C182.576 285.462 182.582 285.462 182.588 285.462C182.593 285.462 182.599 285.462 182.605 285.462C182.611 285.462 182.616 285.462 182.622 285.462C182.628 285.462 182.633 285.462 182.639 285.462C182.645 285.462 182.65 285.462 182.656 285.462C182.661 285.462 182.667 285.462 182.673 285.462C182.678 285.462 182.684 285.462 182.689 285.462C182.695 285.462 182.7 285.462 182.706 285.462C182.711 285.462 182.717 285.462 182.722 285.462C182.728 285.462 182.733 285.462 182.738 285.462C182.744 285.462 182.749 285.462 182.755 285.462C182.76 285.462 182.765 285.462 182.771 285.462C182.776 285.462 182.781 285.462 182.786 285.462C182.792 285.462 182.797 285.462 182.802 285.462C182.807 285.462 182.813 285.462 182.818 285.462C182.823 285.462 182.828 285.462 182.833 285.462C182.839 285.462 182.844 285.462 182.849 285.462C182.854 285.462 182.859 285.462 182.864 285.462C182.869 285.462 182.874 285.462 182.879 285.462C182.884 285.462 182.889 285.462 182.894 285.462C182.899 285.462 182.904 285.462 182.909 285.462C182.914 285.462 182.919 285.462 182.924 285.462C182.929 285.462 182.934 285.462 182.939 285.462C182.943 285.462 182.948 285.462 182.953 285.462C182.958 285.462 182.963 285.462 182.967 285.462C182.972 285.462 182.977 285.462 182.982 285.462C182.986 285.462 182.991 285.462 182.996 285.462C183.001 285.462 183.005 285.462 183.01 285.462C183.014 285.462 183.019 285.462 183.024 285.462C183.028 285.462 183.033 285.462 183.037 285.462C183.042 285.462 183.047 285.462 183.051 285.462C183.056 285.462 183.06 285.462 183.065 285.462C183.069 285.462 183.073 285.462 183.078 285.462C183.082 285.462 183.087 285.462 183.091 285.462C183.095 285.462 183.1 285.462 183.104 285.462C183.108 285.462 183.113 285.462 183.117 285.462C183.121 285.462 183.126 285.462 183.13 285.462C183.134 285.462 183.138 285.462 183.143 285.462C183.147 285.462 183.151 285.462 183.155 285.462C183.159 285.462 183.163 285.462 183.167 285.462C183.172 285.462 183.176 285.462 183.18 285.462C183.184 285.462 183.188 285.462 183.192 285.462C183.196 285.462 183.2 285.462 183.204 285.462C183.208 285.462 183.212 285.462 183.216 285.462C183.22 285.462 183.223 285.462 183.227 285.462C183.231 285.462 183.235 285.462 183.239 285.462C183.243 285.462 183.247 285.462 183.25 285.462C183.254 285.462 183.258 285.462 183.262 285.462C183.265 285.462 183.269 285.462 183.273 285.462C183.276 285.462 183.28 285.462 183.284 285.462C183.287 285.462 183.291 285.462 183.295 285.462C183.298 285.462 183.302 285.462 183.305 285.462C183.309 285.462 183.312 285.462 183.316 285.462C183.319 285.462 183.323 285.462 183.326 285.462C183.33 285.462 183.333 285.462 183.337 285.462C183.34 285.462 183.343 285.462 183.347 285.462V278.477ZM170.159 278.477C169.767 278.477 169.871 278.396 170.145 278.578C170.451 278.781 170.567 279.041 170.581 279.081C170.583 279.085 170.566 279.039 170.548 278.92C170.529 278.802 170.514 278.644 170.504 278.432C170.494 278.219 170.492 277.983 170.493 277.704C170.494 277.484 170.499 277.072 170.499 276.801H163.513C163.513 277.241 163.494 278.05 163.526 278.747C163.559 279.477 163.653 280.453 164.004 281.434C164.376 282.475 165.066 283.592 166.285 284.4C167.473 285.188 168.832 285.462 170.159 285.462V278.477ZM170.499 276.801C170.499 274.475 170.499 252.248 170.499 246.562L163.513 246.562C163.513 252.248 163.513 274.474 163.513 276.801H170.499ZM170.499 246.562C170.499 245.503 170.674 244.997 170.768 244.805C170.837 244.663 170.878 244.646 170.914 244.626C171.003 244.575 171.22 244.487 171.671 244.431C172.134 244.373 172.637 244.369 173.313 244.369V237.383C172.224 237.383 169.666 237.304 167.47 238.548C164.796 240.063 163.513 242.886 163.513 246.562L170.499 246.562ZM173.313 244.369C175.891 244.369 209.723 244.37 212.018 244.369L212.013 237.383C209.721 237.385 175.895 237.383 173.313 237.383V244.369ZM212.018 244.369C212.698 244.368 213.147 244.357 213.627 244.404C214.08 244.448 214.305 244.529 214.403 244.58C214.441 244.601 214.477 244.614 214.545 244.747C214.639 244.932 214.829 245.449 214.829 246.562L221.815 246.562C221.815 244.702 221.504 243.022 220.774 241.584C220.017 240.093 218.906 239.056 217.655 238.398C215.431 237.228 212.838 237.383 212.013 237.383L212.018 244.369ZM214.829 246.562C214.83 252.506 214.829 280.675 214.829 287.395H221.815C221.815 280.675 221.815 252.506 221.815 246.562L214.829 246.562ZM214.829 287.395C214.829 288.684 214.592 289.291 214.474 289.503C214.391 289.652 214.398 289.571 214.529 289.529C214.596 289.507 214.527 289.552 214.295 289.479C214.064 289.406 213.82 289.257 213.641 289.077L208.669 293.984C210.476 295.815 213.586 297.171 216.669 296.179C220.226 295.034 221.815 291.516 221.815 287.395H214.829ZM213.641 289.077C212.396 287.815 209.645 285.339 207.31 283.266C206.121 282.21 205.004 281.228 204.185 280.51C203.776 280.151 203.44 279.858 203.207 279.654C203.09 279.552 202.999 279.473 202.937 279.419C202.906 279.391 202.882 279.371 202.866 279.357C202.858 279.35 202.852 279.344 202.848 279.341C202.846 279.339 202.844 279.337 202.843 279.337C202.842 279.336 202.842 279.336 202.842 279.335C202.841 279.335 202.841 279.335 202.841 279.335C202.841 279.335 202.841 279.335 200.548 281.97C198.255 284.604 198.255 284.604 198.255 284.604C198.255 284.604 198.255 284.604 198.255 284.604C198.255 284.605 198.256 284.605 198.256 284.605C198.257 284.606 198.258 284.607 198.26 284.609C198.264 284.612 198.27 284.617 198.278 284.624C198.293 284.638 198.316 284.658 198.347 284.684C198.407 284.737 198.497 284.815 198.612 284.916C198.843 285.117 199.175 285.407 199.58 285.763C200.392 286.475 201.497 287.447 202.673 288.49C205.068 290.617 207.621 292.922 208.669 293.984L213.641 289.077ZM204.854 258.849C204.935 258.407 205.092 258.216 204.978 258.403C204.905 258.524 204.758 258.737 204.506 259.051C204.007 259.677 203.265 260.496 202.313 261.471C200.42 263.41 197.905 265.758 195.342 268.068C192.79 270.369 190.231 272.596 188.272 274.282C186.383 275.908 184.914 277.146 184.735 277.308L189.412 282.496C189.402 282.506 189.461 282.454 189.665 282.28C189.845 282.128 190.084 281.924 190.391 281.663C190.998 281.146 191.836 280.431 192.828 279.577C194.81 277.872 197.412 275.607 200.02 273.257C202.618 270.915 205.263 268.449 207.312 266.35C208.331 265.306 209.255 264.299 209.965 263.411C210.318 262.968 210.662 262.501 210.946 262.035C211.189 261.635 211.57 260.949 211.723 260.119L204.854 258.849ZM184.735 277.308C184.626 277.406 184.502 277.524 184.423 277.598C184.33 277.686 184.243 277.767 184.153 277.849C183.971 278.013 183.8 278.154 183.635 278.27C183.251 278.539 183.173 278.477 183.347 278.477V285.462C185.241 285.462 186.74 284.624 187.646 283.989C188.524 283.374 189.337 282.564 189.412 282.496L184.735 277.308ZM183.105 255.876C183.886 255.172 185.317 254.988 187.638 255.802C188.672 256.165 189.623 256.644 190.329 257.045C190.677 257.243 190.952 257.414 191.133 257.531C191.224 257.589 191.29 257.634 191.329 257.66C191.349 257.673 191.361 257.682 191.367 257.686C191.37 257.688 191.371 257.689 191.37 257.688C191.37 257.688 191.369 257.687 191.367 257.686C191.367 257.686 191.366 257.685 191.365 257.685C191.364 257.684 191.364 257.684 191.364 257.684C191.363 257.683 191.362 257.683 193.381 254.832C195.4 251.982 195.399 251.981 195.398 251.981C195.398 251.981 195.397 251.98 195.396 251.979C195.395 251.978 195.393 251.977 195.391 251.976C195.388 251.974 195.384 251.971 195.38 251.968C195.371 251.962 195.361 251.955 195.348 251.946C195.323 251.929 195.29 251.906 195.25 251.879C195.169 251.824 195.059 251.75 194.921 251.661C194.645 251.483 194.257 251.243 193.781 250.972C192.839 250.436 191.496 249.752 189.949 249.21C187.111 248.215 182.235 247.256 178.428 250.687L183.105 255.876ZM193.381 254.832C195.66 257.479 195.659 257.48 195.658 257.481C195.658 257.481 195.657 257.481 195.657 257.482C195.656 257.483 195.655 257.483 195.654 257.484C195.653 257.485 195.652 257.486 195.651 257.487C195.649 257.489 195.648 257.489 195.648 257.489C195.649 257.488 195.655 257.484 195.664 257.476C195.684 257.46 195.72 257.43 195.772 257.389C195.876 257.307 196.041 257.18 196.256 257.028C196.693 256.719 197.303 256.326 198.005 255.978C199.555 255.211 200.848 255.001 201.719 255.297L203.964 248.682C200.418 247.478 196.981 248.69 194.904 249.719C193.794 250.269 192.867 250.868 192.22 251.327C191.893 251.558 191.629 251.759 191.441 251.908C191.346 251.983 191.27 252.045 191.213 252.092C191.184 252.116 191.161 252.135 191.142 252.151C191.133 252.159 191.125 252.166 191.118 252.171C191.115 252.174 191.112 252.177 191.109 252.179C191.108 252.18 191.107 252.181 191.105 252.182C191.105 252.183 191.104 252.184 191.104 252.184C191.103 252.185 191.102 252.185 193.381 254.832ZM201.719 255.297C203.537 255.914 204.29 256.635 204.595 257.094C204.866 257.5 205.006 258.027 204.854 258.849L211.723 260.119C212.144 257.841 211.859 255.399 210.411 253.224C208.999 251.101 206.742 249.625 203.964 248.682L201.719 255.297Z" fill="#0051FF"/>
<defs>
<filter id="filter0_bd_508_6338" x="-19.7" y="-19.7" width="683.4" height="585.62" filterUnits="userSpaceOnUse" color-interpolation-filters="sRGB">
<feFlood flood-opacity="0" result="BackgroundImageFix"/>
<feGaussianBlur in="BackgroundImageFix" stdDeviation="23.85"/>
<feComposite in2="SourceAlpha" operator="in" result="effect1_backgroundBlur_508_6338"/>
<feColorMatrix in="SourceAlpha" type="matrix" values="0 0 0 0 0 0 0 0 0 0 0 0 0 0 0 0 0 0 127 0" result="hardAlpha"/>
<feMorphology radius="8" operator="erode" in="SourceAlpha" result="effect2_dropShadow_508_6338"/>
<feOffset/>
<feGaussianBlur stdDeviation="17.75"/>
<feComposite in2="hardAlpha" operator="out"/>
<feColorMatrix type="matrix" values="0 0 0 0 0 0 0 0 0 0 0 0 0 0 0 0 0 0 0.25 0"/>
<feBlend mode="normal" in2="effect1_backgroundBlur_508_6338" result="effect2_dropShadow_508_6338"/>
<feBlend mode="normal" in="SourceGraphic" in2="effect2_dropShadow_508_6338" result="shape"/>
</filter>
</defs>
</svg>
