<svg width="551" height="141" viewBox="0 0 551 141" fill="none" xmlns="http://www.w3.org/2000/svg">
<path d="M220.502 114.781C207.103 114.781 196.036 110.329 187.301 101.424C178.565 92.5191 174.198 81.5367 174.198 68.4764C174.198 55.3314 178.565 44.3489 187.301 35.529C196.036 26.6242 207.103 22.1719 220.502 22.1719C228.559 22.1719 235.98 24.08 242.764 27.8963C249.634 31.6278 254.976 36.7163 258.793 43.1616L243.655 51.9391C241.45 47.9532 238.312 44.8577 234.241 42.6527C230.17 40.3629 225.591 39.218 220.502 39.218C211.852 39.218 204.856 41.9319 199.513 47.3595C194.255 52.7871 191.626 59.8261 191.626 68.4764C191.626 77.0419 194.255 84.0385 199.513 89.4661C204.856 94.8937 211.852 97.6076 220.502 97.6076C225.591 97.6076 230.17 96.5051 234.241 94.3001C238.397 92.0103 241.535 88.9149 243.655 85.0137L258.793 93.7913C254.976 100.237 249.676 105.367 242.891 109.184C236.107 112.915 228.644 114.781 220.502 114.781ZM263.447 113V20.1365H279.857V113H263.447ZM296.658 41.7623C293.944 41.7623 291.569 40.787 289.534 38.8364C287.583 36.8011 286.608 34.4265 286.608 31.7126C286.608 28.9988 287.583 26.6242 289.534 24.5889C291.569 22.5535 293.944 21.5358 296.658 21.5358C299.456 21.5358 301.831 22.5535 303.781 24.5889C305.817 26.6242 306.835 28.9988 306.835 31.7126C306.835 34.4265 305.817 36.8011 303.781 38.8364C301.831 40.787 299.456 41.7623 296.658 41.7623ZM288.516 113V49.3949H304.926V113H288.516ZM348.95 47.6139C355.904 47.6139 361.629 49.9461 366.123 54.6105C370.703 59.2749 372.993 65.7202 372.993 73.9465V113H356.583V75.9818C356.583 71.7415 355.438 68.5188 353.148 66.3138C350.858 64.0241 347.805 62.8792 343.989 62.8792C339.748 62.8792 336.356 64.1937 333.812 66.8227C331.268 69.4517 329.996 73.3952 329.996 78.6532V113H313.586V49.3949H329.996V56.5186C333.982 50.5822 340.3 47.6139 348.95 47.6139ZM388.786 41.7623C386.072 41.7623 383.697 40.787 381.662 38.8364C379.711 36.8011 378.736 34.4265 378.736 31.7126C378.736 28.9988 379.711 26.6242 381.662 24.5889C383.697 22.5535 386.072 21.5358 388.786 21.5358C391.584 21.5358 393.959 22.5535 395.91 24.5889C397.945 26.6242 398.963 28.9988 398.963 31.7126C398.963 34.4265 397.945 36.8011 395.91 38.8364C393.959 40.787 391.584 41.7623 388.786 41.7623ZM380.644 113V49.3949H397.054V113H380.644ZM420.355 67.4587C420.355 69.1549 421.457 70.5542 423.662 71.6567C425.952 72.6743 428.708 73.6072 431.931 74.4553C435.154 75.2186 438.376 76.2362 441.599 77.5083C444.822 78.6956 447.535 80.731 449.74 83.6144C452.03 86.4979 453.175 90.1022 453.175 94.4273C453.175 100.957 450.716 106.003 445.797 109.565C440.963 113.042 434.899 114.781 427.606 114.781C414.545 114.781 405.641 109.735 400.892 99.6429L415.139 91.6287C417.005 97.1411 421.16 99.8973 427.606 99.8973C433.457 99.8973 436.383 98.074 436.383 94.4273C436.383 92.7312 435.238 91.3743 432.949 90.3566C430.744 89.2541 428.03 88.2788 424.807 87.4307C421.584 86.5827 418.362 85.5226 415.139 84.2505C411.916 82.9784 409.16 80.9854 406.87 78.2716C404.665 75.473 403.563 71.9959 403.563 67.8404C403.563 61.5647 405.853 56.6459 410.432 53.084C415.097 49.4373 420.864 47.6139 427.733 47.6139C432.906 47.6139 437.613 48.8012 441.853 51.1758C446.094 53.4656 449.443 56.7731 451.903 61.0982L437.91 68.7308C435.874 64.4057 432.482 62.2431 427.733 62.2431C425.613 62.2431 423.832 62.7095 422.39 63.6424C421.033 64.5753 420.355 65.8474 420.355 67.4587ZM465.509 41.7623C462.796 41.7623 460.421 40.787 458.386 38.8364C456.435 36.8011 455.46 34.4265 455.46 31.7126C455.46 28.9988 456.435 26.6242 458.386 24.5889C460.421 22.5535 462.796 21.5358 465.509 21.5358C468.308 21.5358 470.683 22.5535 472.633 24.5889C474.669 26.6242 475.686 28.9988 475.686 31.7126C475.686 34.4265 474.669 36.8011 472.633 38.8364C470.683 40.787 468.308 41.7623 465.509 41.7623ZM457.368 113V49.3949H473.778V113H457.368ZM536.629 105.113C530.099 111.558 522.127 114.781 512.713 114.781C503.3 114.781 495.328 111.558 488.798 105.113C482.353 98.5828 479.13 90.611 479.13 81.1974C479.13 71.7839 482.353 63.8544 488.798 57.4091C495.328 50.879 503.3 47.6139 512.713 47.6139C522.127 47.6139 530.099 50.879 536.629 57.4091C543.159 63.8544 546.424 71.7839 546.424 81.1974C546.424 90.611 543.159 98.5828 536.629 105.113ZM500.374 93.7913C503.681 97.0987 507.795 98.7525 512.713 98.7525C517.632 98.7525 521.745 97.0987 525.053 93.7913C528.36 90.4838 530.014 86.2858 530.014 81.1974C530.014 76.109 528.36 71.9111 525.053 68.6036C521.745 65.2962 517.632 63.6424 512.713 63.6424C507.795 63.6424 503.681 65.2962 500.374 68.6036C497.151 71.9111 495.54 76.109 495.54 81.1974C495.54 86.2858 497.151 90.4838 500.374 93.7913Z" fill="white"/>
<path d="M78.8327 76.5954C90.4154 80.8044 101.307 85.1234 110.405 76.7474C114.782 72.7173 115.359 68.5173 115.558 62.5677C115.88 52.8846 108.037 44.6277 105.135 41.7142C100.82 37.3837 84.0764 20.0373 51.2167 22.9658C38.6987 24.0814 22.2119 34.7297 16.62 43.1738C8.81322 54.9623 4.92569 68.7242 12.4126 80.6769C17.637 89.0177 24.9105 95.3567 33.3855 94.7191C38.5251 94.3325 44.6527 87.3236 44.6527 87.3236C44.6527 87.3236 49.5931 89.0086 52.8283 88.4358C55.7123 87.9252 57.943 86.9072 60.3737 85.2638C64.3279 82.5905 63.5848 77.9341 68.0343 76.2197C71.9775 74.7004 75.4148 75.3533 78.8327 76.5954Z" fill="url(#paint0_linear_856_18)"/>
<path d="M53.0962 71.771C37.7814 71.771 23.2267 72.1932 16.1558 58.5356C12.7538 51.9645 13.8619 46.8089 16.1558 39.769C19.8892 28.3115 32.5536 21.9901 37.1804 19.8171C44.0576 16.5872 70.977 3.42104 108.114 20.8049C122.261 27.4273 136.998 46.8806 139.946 59.1283C144.06 76.2268 142.76 93.9676 128.942 104.761C119.3 112.292 108.114 116.613 98.4858 112.267C92.647 109.632 88.4647 98.8345 88.4647 98.8345C88.4647 98.8345 81.9792 98.7056 78.4437 96.6615C75.2919 94.8393 73.1185 92.7014 70.977 89.7475C67.4932 84.9422 70.3375 79.8141 65.8682 75.9194C61.9074 72.4679 57.6156 71.771 53.0962 71.771Z" fill="url(#paint1_linear_856_18)"/>
<circle cx="78" cy="114" r="10" transform="rotate(60 78 114)" fill="url(#paint2_linear_856_18)"/>
<path d="M204.723 126.135L201.341 132.153V136H199.41V132.153L196.042 126.135H198.241L200.383 130.25L202.525 126.135H204.723ZM210.184 135.126C209.461 135.84 208.578 136.197 207.535 136.197C206.492 136.197 205.609 135.84 204.885 135.126C204.171 134.403 203.814 133.52 203.814 132.477C203.814 131.434 204.171 130.556 204.885 129.841C205.609 129.118 206.492 128.756 207.535 128.756C208.578 128.756 209.461 129.118 210.184 129.841C210.908 130.556 211.269 131.434 211.269 132.477C211.269 133.52 210.908 134.403 210.184 135.126ZM206.168 133.872C206.534 134.238 206.99 134.422 207.535 134.422C208.08 134.422 208.535 134.238 208.902 133.872C209.268 133.506 209.451 133.041 209.451 132.477C209.451 131.913 209.268 131.448 208.902 131.082C208.535 130.715 208.08 130.532 207.535 130.532C206.99 130.532 206.534 130.715 206.168 131.082C205.811 131.448 205.632 131.913 205.632 132.477C205.632 133.041 205.811 133.506 206.168 133.872ZM217.199 128.954H219.017V136H217.199V135.211C216.757 135.868 216.057 136.197 215.099 136.197C214.329 136.197 213.69 135.939 213.182 135.422C212.684 134.905 212.435 134.191 212.435 133.28V128.954H214.253V133.055C214.253 133.524 214.38 133.886 214.634 134.14C214.888 134.384 215.226 134.506 215.649 134.506C216.118 134.506 216.494 134.361 216.776 134.069C217.058 133.778 217.199 133.341 217.199 132.759V128.954ZM222.5 130.166C222.669 129.715 222.946 129.376 223.331 129.151C223.726 128.925 224.163 128.813 224.642 128.813V130.842C224.087 130.776 223.59 130.889 223.148 131.18C222.716 131.472 222.5 131.955 222.5 132.632V136H220.682V128.954H222.5V130.166ZM238.966 126.135V136H237.036V129.602L234.259 134.182H234.034L231.258 129.616V136H229.313V126.135H231.314L234.147 130.8L236.965 126.135H238.966ZM242.256 133.224C242.5 134.107 243.163 134.548 244.243 134.548C244.938 134.548 245.464 134.314 245.821 133.844L247.287 134.689C246.592 135.695 245.568 136.197 244.215 136.197C243.05 136.197 242.115 135.845 241.41 135.14C240.706 134.436 240.353 133.548 240.353 132.477C240.353 131.415 240.701 130.532 241.396 129.827C242.091 129.113 242.984 128.756 244.074 128.756C245.107 128.756 245.958 129.113 246.625 129.827C247.301 130.541 247.639 131.425 247.639 132.477C247.639 132.712 247.616 132.961 247.569 133.224H242.256ZM242.228 131.814H245.821C245.718 131.335 245.502 130.978 245.173 130.743C244.854 130.509 244.487 130.391 244.074 130.391C243.585 130.391 243.181 130.518 242.862 130.772C242.542 131.016 242.331 131.364 242.228 131.814ZM254.195 126.135H256.012V136H254.195V135.169C253.659 135.854 252.898 136.197 251.911 136.197C250.963 136.197 250.15 135.84 249.473 135.126C248.806 134.403 248.473 133.52 248.473 132.477C248.473 131.434 248.806 130.556 249.473 129.841C250.15 129.118 250.963 128.756 251.911 128.756C252.898 128.756 253.659 129.099 254.195 129.785V126.135ZM250.84 133.914C251.216 134.281 251.686 134.464 252.25 134.464C252.813 134.464 253.278 134.281 253.645 133.914C254.011 133.538 254.195 133.059 254.195 132.477C254.195 131.894 254.011 131.42 253.645 131.053C253.278 130.678 252.813 130.49 252.25 130.49C251.686 130.49 251.216 130.678 250.84 131.053C250.474 131.42 250.291 131.894 250.291 132.477C250.291 133.059 250.474 133.538 250.84 133.914ZM258.577 128.108C258.276 128.108 258.013 128 257.788 127.784C257.572 127.558 257.464 127.295 257.464 126.995C257.464 126.694 257.572 126.431 257.788 126.206C258.013 125.98 258.276 125.867 258.577 125.867C258.887 125.867 259.15 125.98 259.366 126.206C259.592 126.431 259.704 126.694 259.704 126.995C259.704 127.295 259.592 127.558 259.366 127.784C259.15 128 258.887 128.108 258.577 128.108ZM257.675 136V128.954H259.493V136H257.675ZM264.511 136.197C263.449 136.197 262.562 135.84 261.847 135.126C261.143 134.412 260.791 133.529 260.791 132.477C260.791 131.425 261.143 130.541 261.847 129.827C262.562 129.113 263.449 128.756 264.511 128.756C265.197 128.756 265.822 128.921 266.385 129.25C266.949 129.578 267.377 130.02 267.668 130.574L266.103 131.49C265.963 131.199 265.746 130.969 265.455 130.8C265.173 130.631 264.854 130.546 264.497 130.546C263.952 130.546 263.501 130.729 263.144 131.096C262.787 131.453 262.609 131.913 262.609 132.477C262.609 133.031 262.787 133.491 263.144 133.858C263.501 134.215 263.952 134.393 264.497 134.393C264.863 134.393 265.187 134.314 265.469 134.154C265.761 133.985 265.977 133.755 266.118 133.463L267.696 134.365C267.386 134.92 266.949 135.366 266.385 135.704C265.822 136.033 265.197 136.197 264.511 136.197ZM273.903 128.954H275.721V136H273.903V135.169C273.358 135.854 272.592 136.197 271.605 136.197C270.666 136.197 269.858 135.84 269.182 135.126C268.514 134.403 268.181 133.52 268.181 132.477C268.181 131.434 268.514 130.556 269.182 129.841C269.858 129.118 270.666 128.756 271.605 128.756C272.592 128.756 273.358 129.099 273.903 129.785V128.954ZM270.549 133.914C270.915 134.281 271.38 134.464 271.944 134.464C272.507 134.464 272.972 134.281 273.339 133.914C273.715 133.538 273.903 133.059 273.903 132.477C273.903 131.894 273.715 131.42 273.339 131.053C272.972 130.678 272.507 130.49 271.944 130.49C271.38 130.49 270.915 130.678 270.549 131.053C270.182 131.42 269.999 131.894 269.999 132.477C269.999 133.059 270.182 133.538 270.549 133.914ZM277.369 136V125.712H279.187V136H277.369ZM290.068 126.135H291.998V136H290.068V131.913H286.403V136H284.459V126.135H286.403V130.053H290.068V126.135ZM295.282 133.224C295.527 134.107 296.189 134.548 297.27 134.548C297.965 134.548 298.491 134.314 298.848 133.844L300.314 134.689C299.618 135.695 298.594 136.197 297.241 136.197C296.076 136.197 295.142 135.845 294.437 135.14C293.732 134.436 293.38 133.548 293.38 132.477C293.38 131.415 293.728 130.532 294.423 129.827C295.118 129.113 296.011 128.756 297.1 128.756C298.134 128.756 298.984 129.113 299.651 129.827C300.328 130.541 300.666 131.425 300.666 132.477C300.666 132.712 300.642 132.961 300.595 133.224H295.282ZM295.254 131.814H298.848C298.745 131.335 298.528 130.978 298.2 130.743C297.88 130.509 297.514 130.391 297.1 130.391C296.612 130.391 296.208 130.518 295.888 130.772C295.569 131.016 295.358 131.364 295.254 131.814ZM307.235 128.954H309.053V136H307.235V135.169C306.69 135.854 305.925 136.197 304.938 136.197C303.999 136.197 303.191 135.84 302.514 135.126C301.847 134.403 301.514 133.52 301.514 132.477C301.514 131.434 301.847 130.556 302.514 129.841C303.191 129.118 303.999 128.756 304.938 128.756C305.925 128.756 306.69 129.099 307.235 129.785V128.954ZM303.881 133.914C304.247 134.281 304.713 134.464 305.276 134.464C305.84 134.464 306.305 134.281 306.671 133.914C307.047 133.538 307.235 133.059 307.235 132.477C307.235 131.894 307.047 131.42 306.671 131.053C306.305 130.678 305.84 130.49 305.276 130.49C304.713 130.49 304.247 130.678 303.881 131.053C303.515 131.42 303.331 131.894 303.331 132.477C303.331 133.059 303.515 133.538 303.881 133.914ZM310.702 136V125.712H312.52V136H310.702ZM318.214 130.701H316.622V133.632C316.622 133.877 316.683 134.055 316.805 134.168C316.927 134.281 317.105 134.346 317.34 134.365C317.575 134.375 317.866 134.37 318.214 134.351V136C316.964 136.141 316.081 136.023 315.565 135.648C315.057 135.272 314.804 134.6 314.804 133.632V130.701H313.578V128.954H314.804V127.53L316.622 126.981V128.954H318.214V130.701ZM323.414 128.756C324.184 128.756 324.818 129.015 325.316 129.531C325.823 130.048 326.077 130.762 326.077 131.674V136H324.259V131.899C324.259 131.429 324.132 131.072 323.879 130.828C323.625 130.574 323.287 130.447 322.864 130.447C322.394 130.447 322.018 130.593 321.737 130.884C321.455 131.176 321.314 131.612 321.314 132.195V136H319.496V126.135H321.314V129.743C321.755 129.085 322.455 128.756 323.414 128.756ZM333.295 136L330.532 126.135H332.576L334.464 133.449L336.522 126.135H338.185L340.256 133.449L342.145 126.135H344.188L341.426 136H339.214L337.353 129.489L335.507 136H333.295ZM350.395 135.126C349.672 135.84 348.789 136.197 347.746 136.197C346.703 136.197 345.82 135.84 345.097 135.126C344.383 134.403 344.026 133.52 344.026 132.477C344.026 131.434 344.383 130.556 345.097 129.841C345.82 129.118 346.703 128.756 347.746 128.756C348.789 128.756 349.672 129.118 350.395 129.841C351.119 130.556 351.481 131.434 351.481 132.477C351.481 133.52 351.119 134.403 350.395 135.126ZM346.379 133.872C346.745 134.238 347.201 134.422 347.746 134.422C348.291 134.422 348.747 134.238 349.113 133.872C349.479 133.506 349.663 133.041 349.663 132.477C349.663 131.913 349.479 131.448 349.113 131.082C348.747 130.715 348.291 130.532 347.746 130.532C347.201 130.532 346.745 130.715 346.379 131.082C346.022 131.448 345.844 131.913 345.844 132.477C345.844 133.041 346.022 133.506 346.379 133.872ZM354.577 130.166C354.747 129.715 355.024 129.376 355.409 129.151C355.804 128.925 356.24 128.813 356.72 128.813V130.842C356.165 130.776 355.667 130.889 355.226 131.18C354.794 131.472 354.577 131.955 354.577 132.632V136H352.76V128.954H354.577V130.166ZM364.28 136H362.166L359.601 132.801V136H357.783V126.135H359.601V132.054L362.025 128.954H364.195L361.362 132.435L364.28 136ZM366.396 130.955C366.396 131.143 366.518 131.298 366.763 131.42C367.016 131.533 367.322 131.636 367.679 131.73C368.036 131.814 368.393 131.927 368.75 132.068C369.107 132.2 369.407 132.425 369.652 132.745C369.905 133.064 370.032 133.463 370.032 133.942C370.032 134.666 369.76 135.225 369.215 135.619C368.679 136.005 368.007 136.197 367.199 136.197C365.753 136.197 364.766 135.638 364.24 134.52L365.818 133.632C366.025 134.243 366.485 134.548 367.199 134.548C367.848 134.548 368.172 134.346 368.172 133.942C368.172 133.755 368.045 133.604 367.791 133.491C367.547 133.369 367.246 133.261 366.889 133.167C366.532 133.073 366.175 132.956 365.818 132.815C365.461 132.674 365.156 132.453 364.902 132.153C364.658 131.843 364.536 131.457 364.536 130.997C364.536 130.302 364.79 129.757 365.297 129.362C365.814 128.958 366.452 128.756 367.213 128.756C367.787 128.756 368.308 128.888 368.778 129.151C369.248 129.405 369.619 129.771 369.891 130.25L368.341 131.096C368.115 130.617 367.74 130.377 367.213 130.377C366.979 130.377 366.781 130.429 366.622 130.532C366.471 130.635 366.396 130.776 366.396 130.955ZM375.371 128.756C376.32 128.756 377.128 129.118 377.795 129.841C378.471 130.556 378.81 131.434 378.81 132.477C378.81 133.52 378.471 134.403 377.795 135.126C377.128 135.84 376.32 136.197 375.371 136.197C374.384 136.197 373.623 135.854 373.088 135.169V138.819H371.27V128.954H373.088V129.785C373.623 129.099 374.384 128.756 375.371 128.756ZM373.638 133.914C374.004 134.281 374.469 134.464 375.033 134.464C375.596 134.464 376.061 134.281 376.428 133.914C376.804 133.538 376.992 133.059 376.992 132.477C376.992 131.894 376.804 131.42 376.428 131.053C376.061 130.678 375.596 130.49 375.033 130.49C374.469 130.49 374.004 130.678 373.638 131.053C373.271 131.42 373.088 131.894 373.088 132.477C373.088 133.059 373.271 133.538 373.638 133.914ZM385.447 128.954H387.265V136H385.447V135.169C384.902 135.854 384.136 136.197 383.15 136.197C382.21 136.197 381.402 135.84 380.726 135.126C380.059 134.403 379.725 133.52 379.725 132.477C379.725 131.434 380.059 130.556 380.726 129.841C381.402 129.118 382.21 128.756 383.15 128.756C384.136 128.756 384.902 129.099 385.447 129.785V128.954ZM382.093 133.914C382.459 134.281 382.924 134.464 383.488 134.464C384.052 134.464 384.517 134.281 384.883 133.914C385.259 133.538 385.447 133.059 385.447 132.477C385.447 131.894 385.259 131.42 384.883 131.053C384.517 130.678 384.052 130.49 383.488 130.49C382.924 130.49 382.459 130.678 382.093 131.053C381.726 131.42 381.543 131.894 381.543 132.477C381.543 133.059 381.726 133.538 382.093 133.914ZM392.267 136.197C391.206 136.197 390.318 135.84 389.604 135.126C388.899 134.412 388.547 133.529 388.547 132.477C388.547 131.425 388.899 130.541 389.604 129.827C390.318 129.113 391.206 128.756 392.267 128.756C392.953 128.756 393.578 128.921 394.142 129.25C394.705 129.578 395.133 130.02 395.424 130.574L393.86 131.49C393.719 131.199 393.503 130.969 393.212 130.8C392.93 130.631 392.61 130.546 392.253 130.546C391.708 130.546 391.257 130.729 390.9 131.096C390.543 131.453 390.365 131.913 390.365 132.477C390.365 133.031 390.543 133.491 390.9 133.858C391.257 134.215 391.708 134.393 392.253 134.393C392.62 134.393 392.944 134.314 393.226 134.154C393.517 133.985 393.733 133.755 393.874 133.463L395.452 134.365C395.142 134.92 394.705 135.366 394.142 135.704C393.578 136.033 392.953 136.197 392.267 136.197ZM397.84 133.224C398.084 134.107 398.747 134.548 399.827 134.548C400.522 134.548 401.048 134.314 401.405 133.844L402.871 134.689C402.176 135.695 401.152 136.197 399.799 136.197C398.634 136.197 397.699 135.845 396.994 135.14C396.29 134.436 395.937 133.548 395.937 132.477C395.937 131.415 396.285 130.532 396.98 129.827C397.675 129.113 398.568 128.756 399.658 128.756C400.691 128.756 401.542 129.113 402.209 129.827C402.885 130.541 403.223 131.425 403.223 132.477C403.223 132.712 403.2 132.961 403.153 133.224H397.84ZM397.812 131.814H401.405C401.302 131.335 401.086 130.978 400.757 130.743C400.438 130.509 400.071 130.391 399.658 130.391C399.169 130.391 398.765 130.518 398.446 130.772C398.126 131.016 397.915 131.364 397.812 131.814ZM411.623 138.819V125.853H413.441V138.819H411.623ZM429.758 126.135C431.111 126.135 432.238 126.61 433.14 127.558C434.051 128.507 434.507 129.677 434.507 131.068C434.507 132.458 434.051 133.628 433.14 134.577C432.238 135.526 431.111 136 429.758 136H425.84V126.135H429.758ZM429.758 134.14C430.613 134.14 431.308 133.858 431.843 133.294C432.379 132.721 432.647 131.979 432.647 131.068C432.647 130.156 432.379 129.419 431.843 128.855C431.308 128.282 430.613 127.995 429.758 127.995H427.785V134.14H429.758ZM441.805 135.126C441.082 135.84 440.199 136.197 439.156 136.197C438.113 136.197 437.23 135.84 436.507 135.126C435.792 134.403 435.435 133.52 435.435 132.477C435.435 131.434 435.792 130.556 436.507 129.841C437.23 129.118 438.113 128.756 439.156 128.756C440.199 128.756 441.082 129.118 441.805 129.841C442.529 130.556 442.891 131.434 442.891 132.477C442.891 133.52 442.529 134.403 441.805 135.126ZM437.789 133.872C438.155 134.238 438.611 134.422 439.156 134.422C439.701 134.422 440.157 134.238 440.523 133.872C440.889 133.506 441.073 133.041 441.073 132.477C441.073 131.913 440.889 131.448 440.523 131.082C440.157 130.715 439.701 130.532 439.156 130.532C438.611 130.532 438.155 130.715 437.789 131.082C437.432 131.448 437.253 131.913 437.253 132.477C437.253 133.041 437.432 133.506 437.789 133.872ZM447.524 136.197C446.462 136.197 445.574 135.84 444.86 135.126C444.155 134.412 443.803 133.529 443.803 132.477C443.803 131.425 444.155 130.541 444.86 129.827C445.574 129.113 446.462 128.756 447.524 128.756C448.209 128.756 448.834 128.921 449.398 129.25C449.962 129.578 450.389 130.02 450.68 130.574L449.116 131.49C448.975 131.199 448.759 130.969 448.468 130.8C448.186 130.631 447.866 130.546 447.509 130.546C446.964 130.546 446.514 130.729 446.157 131.096C445.799 131.453 445.621 131.913 445.621 132.477C445.621 133.031 445.799 133.491 446.157 133.858C446.514 134.215 446.964 134.393 447.509 134.393C447.876 134.393 448.2 134.314 448.482 134.154C448.773 133.985 448.989 133.755 449.13 133.463L450.708 134.365C450.398 134.92 449.962 135.366 449.398 135.704C448.834 136.033 448.209 136.197 447.524 136.197ZM455.7 130.701H454.108V133.632C454.108 133.877 454.169 134.055 454.291 134.168C454.413 134.281 454.592 134.346 454.827 134.365C455.062 134.375 455.353 134.37 455.7 134.351V136C454.451 136.141 453.568 136.023 453.051 135.648C452.544 135.272 452.29 134.6 452.29 133.632V130.701H451.064V128.954H452.29V127.53L454.108 126.981V128.954H455.7V130.701ZM462.766 135.126C462.042 135.84 461.159 136.197 460.116 136.197C459.073 136.197 458.19 135.84 457.467 135.126C456.753 134.403 456.396 133.52 456.396 132.477C456.396 131.434 456.753 130.556 457.467 129.841C458.19 129.118 459.073 128.756 460.116 128.756C461.159 128.756 462.042 129.118 462.766 129.841C463.489 130.556 463.851 131.434 463.851 132.477C463.851 133.52 463.489 134.403 462.766 135.126ZM458.749 133.872C459.116 134.238 459.571 134.422 460.116 134.422C460.661 134.422 461.117 134.238 461.483 133.872C461.85 133.506 462.033 133.041 462.033 132.477C462.033 131.913 461.85 131.448 461.483 131.082C461.117 130.715 460.661 130.532 460.116 130.532C459.571 130.532 459.116 130.715 458.749 131.082C458.392 131.448 458.214 131.913 458.214 132.477C458.214 133.041 458.392 133.506 458.749 133.872ZM466.948 130.166C467.117 129.715 467.394 129.376 467.779 129.151C468.174 128.925 468.61 128.813 469.09 128.813V130.842C468.535 130.776 468.037 130.889 467.596 131.18C467.164 131.472 466.948 131.955 466.948 132.632V136H465.13V128.954H466.948V130.166ZM472.906 126.121L471.849 130.039H470.37L470.933 126.121H472.906ZM474.981 130.955C474.981 131.143 475.104 131.298 475.348 131.42C475.602 131.533 475.907 131.636 476.264 131.73C476.621 131.814 476.978 131.927 477.335 132.068C477.692 132.2 477.993 132.425 478.237 132.745C478.491 133.064 478.617 133.463 478.617 133.942C478.617 134.666 478.345 135.225 477.8 135.619C477.264 136.005 476.593 136.197 475.785 136.197C474.338 136.197 473.351 135.638 472.825 134.52L474.404 133.632C474.61 134.243 475.071 134.548 475.785 134.548C476.433 134.548 476.757 134.346 476.757 133.942C476.757 133.755 476.63 133.604 476.377 133.491C476.132 133.369 475.832 133.261 475.475 133.167C475.118 133.073 474.761 132.956 474.404 132.815C474.047 132.674 473.741 132.453 473.488 132.153C473.243 131.843 473.121 131.457 473.121 130.997C473.121 130.302 473.375 129.757 473.882 129.362C474.399 128.958 475.038 128.756 475.799 128.756C476.372 128.756 476.893 128.888 477.363 129.151C477.833 129.405 478.204 129.771 478.476 130.25L476.926 131.096C476.701 130.617 476.325 130.377 475.799 130.377C475.564 130.377 475.367 130.429 475.207 130.532C475.057 130.635 474.981 130.776 474.981 130.955ZM488.142 136.197C486.657 136.197 485.431 135.704 484.464 134.718C483.496 133.731 483.012 132.514 483.012 131.068C483.012 129.611 483.496 128.395 484.464 127.418C485.431 126.431 486.657 125.938 488.142 125.938C489.034 125.938 489.856 126.149 490.608 126.572C491.369 126.985 491.961 127.549 492.384 128.263L490.707 129.236C490.462 128.794 490.115 128.451 489.664 128.207C489.213 127.953 488.706 127.826 488.142 127.826C487.184 127.826 486.408 128.127 485.817 128.728C485.234 129.329 484.943 130.109 484.943 131.068C484.943 132.016 485.234 132.792 485.817 133.393C486.408 133.994 487.184 134.295 488.142 134.295C488.706 134.295 489.213 134.173 489.664 133.928C490.124 133.675 490.472 133.332 490.707 132.9L492.384 133.872C491.961 134.586 491.374 135.154 490.622 135.577C489.871 135.991 489.044 136.197 488.142 136.197ZM497.522 128.756C498.292 128.756 498.926 129.015 499.424 129.531C499.932 130.048 500.185 130.762 500.185 131.674V136H498.367V131.899C498.367 131.429 498.24 131.072 497.987 130.828C497.733 130.574 497.395 130.447 496.972 130.447C496.502 130.447 496.127 130.593 495.845 130.884C495.563 131.176 495.422 131.612 495.422 132.195V136H493.604V126.135H495.422V129.743C495.864 129.085 496.563 128.756 497.522 128.756ZM507.741 135.126C507.018 135.84 506.134 136.197 505.092 136.197C504.049 136.197 503.166 135.84 502.442 135.126C501.728 134.403 501.371 133.52 501.371 132.477C501.371 131.434 501.728 130.556 502.442 129.841C503.166 129.118 504.049 128.756 505.092 128.756C506.134 128.756 507.018 129.118 507.741 129.841C508.464 130.556 508.826 131.434 508.826 132.477C508.826 133.52 508.464 134.403 507.741 135.126ZM503.725 133.872C504.091 134.238 504.547 134.422 505.092 134.422C505.637 134.422 506.092 134.238 506.459 133.872C506.825 133.506 507.008 133.041 507.008 132.477C507.008 131.913 506.825 131.448 506.459 131.082C506.092 130.715 505.637 130.532 505.092 130.532C504.547 130.532 504.091 130.715 503.725 131.082C503.368 131.448 503.189 131.913 503.189 132.477C503.189 133.041 503.368 133.506 503.725 133.872ZM511.007 128.108C510.706 128.108 510.443 128 510.218 127.784C510.002 127.558 509.894 127.295 509.894 126.995C509.894 126.694 510.002 126.431 510.218 126.206C510.443 125.98 510.706 125.867 511.007 125.867C511.317 125.867 511.58 125.98 511.796 126.206C512.022 126.431 512.134 126.694 512.134 126.995C512.134 127.295 512.022 127.558 511.796 127.784C511.58 128 511.317 128.108 511.007 128.108ZM510.105 136V128.954H511.923V136H510.105ZM516.941 136.197C515.879 136.197 514.992 135.84 514.278 135.126C513.573 134.412 513.221 133.529 513.221 132.477C513.221 131.425 513.573 130.541 514.278 129.827C514.992 129.113 515.879 128.756 516.941 128.756C517.627 128.756 518.252 128.921 518.815 129.25C519.379 129.578 519.807 130.02 520.098 130.574L518.534 131.49C518.393 131.199 518.177 130.969 517.885 130.8C517.603 130.631 517.284 130.546 516.927 130.546C516.382 130.546 515.931 130.729 515.574 131.096C515.217 131.453 515.039 131.913 515.039 132.477C515.039 133.031 515.217 133.491 515.574 133.858C515.931 134.215 516.382 134.393 516.927 134.393C517.293 134.393 517.618 134.314 517.899 134.154C518.191 133.985 518.407 133.755 518.548 133.463L520.126 134.365C519.816 134.92 519.379 135.366 518.815 135.704C518.252 136.033 517.627 136.197 516.941 136.197ZM522.514 133.224C522.758 134.107 523.42 134.548 524.501 134.548C525.196 134.548 525.722 134.314 526.079 133.844L527.545 134.689C526.849 135.695 525.825 136.197 524.472 136.197C523.307 136.197 522.373 135.845 521.668 135.14C520.963 134.436 520.611 133.548 520.611 132.477C520.611 131.415 520.959 130.532 521.654 129.827C522.349 129.113 523.242 128.756 524.331 128.756C525.365 128.756 526.215 129.113 526.882 129.827C527.559 130.541 527.897 131.425 527.897 132.477C527.897 132.712 527.873 132.961 527.826 133.224H522.514ZM522.485 131.814H526.079C525.976 131.335 525.76 130.978 525.431 130.743C525.111 130.509 524.745 130.391 524.331 130.391C523.843 130.391 523.439 130.518 523.119 130.772C522.8 131.016 522.589 131.364 522.485 131.814Z" fill="white" fill-opacity="0.61"/>
<defs>
<linearGradient id="paint0_linear_856_18" x1="79.6256" y1="21.0666" x2="38.7558" y2="97.884" gradientUnits="userSpaceOnUse">
<stop stop-color="#004CFC" stop-opacity="0.65"/>
<stop offset="0.42411" stop-color="#004CFC" stop-opacity="0.58"/>
<stop offset="1" stop-color="#00C9FD" stop-opacity="0.75"/>
</linearGradient>
<linearGradient id="paint1_linear_856_18" x1="142" y1="88" x2="14" y2="45.5" gradientUnits="userSpaceOnUse">
<stop stop-color="#064BF0" stop-opacity="0.81"/>
<stop offset="0.43855" stop-color="#148EF6" stop-opacity="0.6645"/>
<stop offset="1" stop-color="#1FC4FB" stop-opacity="0.92"/>
</linearGradient>
<linearGradient id="paint2_linear_856_18" x1="79.6112" y1="128.209" x2="77" y2="104" gradientUnits="userSpaceOnUse">
<stop stop-color="#2C68D5"/>
<stop offset="1" stop-color="#50BEFC"/>
</linearGradient>
</defs>
</svg>
